<?xml version="1.0" encoding="UTF-8"?>
<svg id="Layer_1" data-name="Layer 1" xmlns="http://www.w3.org/2000/svg" viewBox="0 0 517.3 340.86">
  <defs>
    <style>
      .cls-1 {
        stroke: #cecccc;
      }

      .cls-1, .cls-2, .cls-3, .cls-4, .cls-5, .cls-6 {
        fill: none;
      }

      .cls-2 {
        stroke: #9a68ac;
      }

      .cls-3 {
        stroke: #848383;
      }

      .cls-4 {
        stroke: #000;
      }

      .cls-5 {
        stroke: #231f20;
      }

      .cls-6 {
        stroke: #ed1c24;
      }

      .cls-7 {
        fill: #1da3cc;
      }

      .cls-7, .cls-8, .cls-9, .cls-10 {
        stroke-width: 0px;
      }

      .cls-8 {
        fill: #0f66a1;
      }

      .cls-9 {
        fill: #a3dbe1;
      }

      .cls-10 {
        fill: #eddd47;
      }
    </style>
  </defs>
  <line class="cls-5" y1="55.87" x2="111.71" y2="55.87"/>
  <line class="cls-5" x1="58.48" y1="111.73" x2="58.48" y2=".02"/>
  <path class="cls-5" d="m100.41,55.87c0,23.16-18.77,41.93-41.93,41.93s-41.93-18.77-41.93-41.93S35.32,13.94,58.48,13.94s41.93,18.77,41.93,41.93Z"/>
  <rect class="cls-5" x="16.59" y="13.94" width="83.82" height="83.83"/>
  <line class="cls-5" x1="100.41" y1="13.94" x2="16.59" y2="97.77"/>
  <line class="cls-5" x1="16.59" y1="13.94" x2="100.41" y2="97.77"/>
  <line class="cls-3" x1="139.06" y1="55.87" x2="250.77" y2="55.87"/>
  <line class="cls-3" x1="197.54" y1="111.73" x2="197.54" y2=".02"/>
  <path class="cls-3" d="m239.47,55.87c0,23.16-18.77,41.93-41.93,41.93s-41.93-18.77-41.93-41.93,18.77-41.93,41.93-41.93,41.93,18.77,41.93,41.93Z"/>
  <rect class="cls-3" x="155.65" y="13.94" width="83.82" height="83.83"/>
  <line class="cls-3" x1="239.47" y1="13.94" x2="155.65" y2="97.77"/>
  <line class="cls-3" x1="155.65" y1="13.94" x2="239.47" y2="97.77"/>
  <path class="cls-6" d="m229.78,26.27c0,1.36-1.1,2.46-2.46,2.46s-2.46-1.1-2.46-2.46,1.1-2.46,2.46-2.46,2.46,1.1,2.46,2.46Z"/>
  <path class="cls-6" d="m229.78,85.09c0,1.36-1.1,2.46-2.46,2.46s-2.46-1.1-2.46-2.46,1.1-2.46,2.46-2.46,2.46,1.1,2.46,2.46Z"/>
  <path class="cls-6" d="m170.6,26.27c0,1.36-1.1,2.46-2.46,2.46s-2.46-1.1-2.46-2.46,1.1-2.46,2.46-2.46,2.46,1.1,2.46,2.46Z"/>
  <path class="cls-6" d="m170.57,85.9c0,1.36-1.1,2.46-2.46,2.46s-2.46-1.1-2.46-2.46,1.1-2.46,2.46-2.46,2.46,1.1,2.46,2.46Z"/>
  <line class="cls-4" x1="155.61" y1="55.87" x2="173.2" y2="13.94"/>
  <line class="cls-4" x1="222.13" y1="13.94" x2="239.47" y2="55.87"/>
  <line class="cls-4" x1="155.61" y1="80.56" x2="197.54" y2="97.81"/>
  <line class="cls-4" x1="197.54" y1="97.81" x2="239.47" y2="80.56"/>
  <line class="cls-4" x1="239.47" y1="31.27" x2="197.54" y2="13.94"/>
  <line class="cls-4" x1="155.65" y1="31.27" x2="197.54" y2="13.94"/>
  <line class="cls-4" x1="173.2" y1="97.81" x2="155.61" y2="55.87"/>
  <line class="cls-4" x1="222.13" y1="97.81" x2="239.47" y2="55.87"/>
  <line class="cls-3" x1="273.88" y1="55.87" x2="385.59" y2="55.87"/>
  <line class="cls-3" x1="332.35" y1="111.73" x2="332.35" y2=".02"/>
  <path class="cls-3" d="m374.29,55.87c0,23.16-18.77,41.93-41.93,41.93s-41.93-18.77-41.93-41.93,18.77-41.93,41.93-41.93,41.93,18.77,41.93,41.93Z"/>
  <rect class="cls-3" x="290.47" y="13.94" width="83.82" height="83.83"/>
  <line class="cls-3" x1="374.29" y1="13.94" x2="290.47" y2="97.77"/>
  <line class="cls-3" x1="290.47" y1="13.94" x2="374.29" y2="97.77"/>
  <line class="cls-3" x1="290.42" y1="55.87" x2="308.02" y2="13.94"/>
  <line class="cls-3" x1="356.95" y1="13.94" x2="374.29" y2="55.87"/>
  <line class="cls-3" x1="290.42" y1="80.56" x2="332.35" y2="97.81"/>
  <line class="cls-3" x1="332.35" y1="97.81" x2="374.29" y2="80.56"/>
  <line class="cls-3" x1="374.28" y1="31.27" x2="332.35" y2="13.94"/>
  <line class="cls-3" x1="290.47" y1="31.27" x2="332.35" y2="13.94"/>
  <line class="cls-3" x1="308.02" y1="97.81" x2="290.42" y2="55.87"/>
  <line class="cls-3" x1="356.95" y1="97.81" x2="374.29" y2="55.87"/>
  <rect class="cls-4" x="302.7" y="26.22" width="59.3" height="59.3" transform="translate(57.83 251.37) rotate(-45)"/>
  <polygon class="cls-4" points="302.74 26.22 302.74 85.22 362.35 85.83 362.05 26.22 302.74 26.22"/>
  <line class="cls-3" x1="402.97" y1="55.85" x2="514.68" y2="55.85"/>
  <line class="cls-3" x1="461.44" y1="111.71" x2="461.44"/>
  <path class="cls-3" d="m503.38,55.85c0,23.16-18.77,41.93-41.93,41.93s-41.93-18.77-41.93-41.93,18.77-41.93,41.93-41.93,41.93,18.77,41.93,41.93Z"/>
  <rect class="cls-3" x="419.56" y="13.92" width="83.82" height="83.83"/>
  <line class="cls-3" x1="503.38" y1="13.92" x2="419.56" y2="97.75"/>
  <line class="cls-3" x1="419.56" y1="13.92" x2="503.38" y2="97.75"/>
  <line class="cls-3" x1="419.51" y1="55.85" x2="437.1" y2="13.92"/>
  <line class="cls-3" x1="486.04" y1="13.92" x2="503.38" y2="55.85"/>
  <line class="cls-3" x1="419.51" y1="80.54" x2="461.44" y2="97.79"/>
  <line class="cls-3" x1="461.44" y1="97.79" x2="503.38" y2="80.54"/>
  <line class="cls-3" x1="503.37" y1="31.25" x2="461.44" y2="13.92"/>
  <line class="cls-3" x1="419.56" y1="31.25" x2="461.44" y2="13.92"/>
  <line class="cls-3" x1="437.1" y1="97.79" x2="419.51" y2="55.85"/>
  <line class="cls-3" x1="486.04" y1="97.79" x2="503.38" y2="55.85"/>
  <rect class="cls-3" x="431.79" y="26.2" width="59.3" height="59.3" transform="translate(95.66 342.65) rotate(-45)"/>
  <polygon class="cls-3" points="431.82 26.2 431.82 85.2 491.44 85.81 491.14 26.2 431.82 26.2"/>
  <path class="cls-6" d="m451.52,26.2c0,1.36-1.1,2.46-2.45,2.46s-2.46-1.1-2.46-2.46,1.1-2.46,2.46-2.46,2.45,1.1,2.45,2.46Z"/>
  <path class="cls-6" d="m434.28,43.51c0,1.36-1.1,2.46-2.45,2.46s-2.46-1.1-2.46-2.46,1.1-2.46,2.46-2.46,2.45,1.1,2.45,2.46Z"/>
  <path class="cls-6" d="m476.26,26.22c0,1.36-1.1,2.46-2.46,2.46s-2.46-1.1-2.46-2.46,1.1-2.46,2.46-2.46,2.46,1.1,2.46,2.46Z"/>
  <path class="cls-6" d="m493.9,43.51c0,1.36-1.1,2.46-2.46,2.46s-2.46-1.1-2.46-2.46,1.1-2.46,2.46-2.46,2.46,1.1,2.46,2.46Z"/>
  <path class="cls-6" d="m493.9,67.85c0,1.36-1.1,2.46-2.46,2.46s-2.46-1.1-2.46-2.46,1.1-2.46,2.46-2.46,2.46,1.1,2.46,2.46Z"/>
  <path class="cls-6" d="m476.26,85.81c0,1.36-1.1,2.46-2.46,2.46s-2.46-1.1-2.46-2.46,1.1-2.46,2.46-2.46,2.46,1.1,2.46,2.46Z"/>
  <path class="cls-6" d="m451.52,84.89c0,1.36-1.1,2.46-2.46,2.46s-2.46-1.1-2.46-2.46,1.1-2.46,2.46-2.46,2.46,1.1,2.46,2.46Z"/>
  <path class="cls-6" d="m434.28,67.89c0,1.36-1.1,2.46-2.46,2.46s-2.46-1.1-2.46-2.46,1.1-2.46,2.46-2.46,2.46,1.1,2.46,2.46Z"/>
  <line class="cls-4" x1="486.04" y1="13.92" x2="419.51" y2="80.54"/>
  <line class="cls-4" x1="503.63" y1="31.25" x2="437.1" y2="97.87"/>
  <line class="cls-4" x1="437.1" y1="13.92" x2="503.63" y2="80.54"/>
  <line class="cls-4" x1="419.51" y1="31.25" x2="486.04" y2="97.87"/>
  <line class="cls-3" x1="58.48" y1="250.18" x2="58.48" y2="138.47"/>
  <path class="cls-3" d="m100.41,194.33c0,23.16-18.77,41.93-41.93,41.93s-41.93-18.77-41.93-41.93,18.77-41.93,41.93-41.93,41.93,18.77,41.93,41.93Z"/>
  <rect class="cls-3" x="16.59" y="152.4" width="83.82" height="83.83"/>
  <line class="cls-3" x1="100.41" y1="152.4" x2="16.59" y2="236.22"/>
  <line class="cls-3" x1="16.59" y1="152.4" x2="100.41" y2="236.22"/>
  <line class="cls-3" x1="16.54" y1="194.33" x2="34.14" y2="152.4"/>
  <line class="cls-3" x1="83.07" y1="152.4" x2="100.41" y2="194.33"/>
  <line class="cls-3" x1="16.54" y1="219.01" x2="58.48" y2="236.26"/>
  <line class="cls-3" x1="58.48" y1="236.26" x2="100.41" y2="219.01"/>
  <line class="cls-3" x1="100.4" y1="169.73" x2="58.48" y2="152.4"/>
  <line class="cls-3" x1="16.59" y1="169.73" x2="58.48" y2="152.4"/>
  <line class="cls-3" x1="34.14" y1="236.26" x2="16.54" y2="194.33"/>
  <line class="cls-3" x1="83.07" y1="236.26" x2="100.41" y2="194.33"/>
  <rect class="cls-3" x="28.83" y="164.68" width="59.3" height="59.3" transform="translate(-120.28 98.26) rotate(-45)"/>
  <polygon class="cls-3" points="28.86 164.67 28.86 223.68 88.47 224.29 88.17 164.67 28.86 164.67"/>
  <path class="cls-6" d="m48.55,164.67c0,1.36-1.1,2.46-2.45,2.46s-2.46-1.1-2.46-2.46,1.1-2.46,2.46-2.46,2.45,1.1,2.45,2.46Z"/>
  <path class="cls-6" d="m31.31,181.98c0,1.36-1.1,2.46-2.45,2.46s-2.46-1.1-2.46-2.46,1.1-2.46,2.46-2.46,2.45,1.1,2.45,2.46Z"/>
  <path class="cls-6" d="m73.29,164.69c0,1.36-1.1,2.46-2.46,2.46s-2.46-1.1-2.46-2.46,1.1-2.46,2.46-2.46,2.46,1.1,2.46,2.46Z"/>
  <path class="cls-6" d="m90.93,181.98c0,1.36-1.1,2.46-2.46,2.46s-2.46-1.1-2.46-2.46,1.1-2.46,2.46-2.46,2.46,1.1,2.46,2.46Z"/>
  <path class="cls-6" d="m90.93,206.32c0,1.36-1.1,2.46-2.46,2.46s-2.46-1.1-2.46-2.46,1.1-2.46,2.46-2.46,2.46,1.1,2.46,2.46Z"/>
  <path class="cls-6" d="m73.29,224.29c0,1.36-1.1,2.46-2.46,2.46s-2.46-1.1-2.46-2.46,1.1-2.45,2.46-2.45,2.46,1.1,2.46,2.45Z"/>
  <path class="cls-6" d="m48.55,223.37c0,1.36-1.1,2.45-2.46,2.45s-2.46-1.1-2.46-2.45,1.1-2.46,2.46-2.46,2.46,1.1,2.46,2.46Z"/>
  <path class="cls-6" d="m31.31,206.37c0,1.36-1.1,2.46-2.46,2.46s-2.46-1.1-2.46-2.46,1.1-2.45,2.46-2.45,2.46,1.1,2.46,2.45Z"/>
  <line class="cls-3" x1="83.07" y1="152.4" x2="16.54" y2="219.01"/>
  <line class="cls-3" x1="100.67" y1="169.73" x2="34.14" y2="236.34"/>
  <line class="cls-3" x1="34.14" y1="152.4" x2="100.67" y2="219.01"/>
  <line class="cls-3" x1="16.54" y1="169.73" x2="83.07" y2="236.34"/>
  <line class="cls-4" x1="70.83" y1="152.4" x2="70.83" y2="236.22"/>
  <line class="cls-4" x1="46.1" y1="152.4" x2="46.1" y2="236.22"/>
  <line class="cls-4" x1="16.75" y1="181.98" x2="100.58" y2="181.98"/>
  <line class="cls-4" x1="16.75" y1="206.37" x2="100.58" y2="206.37"/>
  <line class="cls-3" x1="138.96" y1="193.93" x2="250.67" y2="193.93"/>
  <line class="cls-3" x1="197.44" y1="249.79" x2="197.44" y2="138.08"/>
  <path class="cls-3" d="m239.37,193.93c0,23.16-18.77,41.93-41.93,41.93s-41.93-18.77-41.93-41.93,18.77-41.93,41.93-41.93,41.93,18.77,41.93,41.93Z"/>
  <rect class="cls-3" x="155.55" y="152" width="83.82" height="83.83"/>
  <line class="cls-3" x1="239.37" y1="152" x2="155.55" y2="235.83"/>
  <line class="cls-3" x1="155.55" y1="152" x2="239.37" y2="235.83"/>
  <line class="cls-3" x1="155.5" y1="193.93" x2="173.1" y2="152"/>
  <line class="cls-3" x1="222.03" y1="152" x2="239.37" y2="193.93"/>
  <line class="cls-3" x1="155.5" y1="218.62" x2="197.44" y2="235.87"/>
  <line class="cls-3" x1="197.44" y1="235.87" x2="239.37" y2="218.62"/>
  <line class="cls-3" x1="239.36" y1="169.33" x2="197.44" y2="152"/>
  <line class="cls-3" x1="155.55" y1="169.33" x2="197.44" y2="152"/>
  <line class="cls-3" x1="173.1" y1="235.87" x2="155.5" y2="193.93"/>
  <line class="cls-3" x1="222.03" y1="235.87" x2="239.37" y2="193.93"/>
  <rect class="cls-3" x="167.79" y="164.28" width="59.3" height="59.3" transform="translate(-79.3 196.41) rotate(-45)"/>
  <polygon class="cls-3" points="167.82 164.28 167.82 223.28 227.44 223.89 227.13 164.28 167.82 164.28"/>
  <line class="cls-3" x1="222.03" y1="152" x2="155.5" y2="218.62"/>
  <line class="cls-3" x1="239.62" y1="169.33" x2="173.1" y2="235.95"/>
  <line class="cls-3" x1="173.1" y1="152" x2="239.62" y2="218.62"/>
  <line class="cls-3" x1="155.5" y1="169.33" x2="222.03" y2="235.95"/>
  <line class="cls-3" x1="209.79" y1="152" x2="209.79" y2="235.83"/>
  <line class="cls-3" x1="185.06" y1="152" x2="185.06" y2="235.83"/>
  <line class="cls-3" x1="155.71" y1="181.59" x2="239.54" y2="181.59"/>
  <line class="cls-3" x1="155.71" y1="205.97" x2="239.54" y2="205.97"/>
  <line class="cls-6" x1="173.1" y1="152" x2="162.77" y2="176.61"/>
  <line class="cls-6" x1="180.21" y1="159.13" x2="155.55" y2="169.33"/>
  <line class="cls-6" x1="197.44" y1="152" x2="185.06" y2="157.12"/>
  <line class="cls-6" x1="197.44" y1="152" x2="209.79" y2="157.11"/>
  <line class="cls-6" x1="239.36" y1="169.33" x2="214.85" y2="159.2"/>
  <line class="cls-6" x1="222.03" y1="152" x2="232.21" y2="176.61"/>
  <line class="cls-6" x1="239.37" y1="193.93" x2="234.26" y2="181.59"/>
  <line class="cls-6" x1="234.26" y1="205.97" x2="239.37" y2="193.93"/>
  <line class="cls-6" x1="232.21" y1="211.26" x2="222.03" y2="235.87"/>
  <line class="cls-6" x1="214.85" y1="228.7" x2="239.37" y2="218.62"/>
  <line class="cls-6" x1="209.79" y1="230.78" x2="197.44" y2="235.87"/>
  <line class="cls-6" x1="197.44" y1="235.87" x2="185.06" y2="230.9"/>
  <line class="cls-6" x1="162.77" y1="211.34" x2="173.1" y2="235.87"/>
  <line class="cls-6" x1="180.33" y1="228.7" x2="155.5" y2="218.62"/>
  <line class="cls-6" x1="155.5" y1="193.93" x2="160.68" y2="181.59"/>
  <line class="cls-6" x1="155.5" y1="193.93" x2="160.68" y2="205.97"/>
  <line class="cls-3" x1="273.88" y1="194.48" x2="385.59" y2="194.48"/>
  <line class="cls-3" x1="332.35" y1="250.33" x2="332.35" y2="138.62"/>
  <path class="cls-3" d="m374.29,194.48c0,23.16-18.77,41.93-41.93,41.93s-41.93-18.77-41.93-41.93,18.77-41.93,41.93-41.93,41.93,18.77,41.93,41.93Z"/>
  <rect class="cls-3" x="290.47" y="152.55" width="83.82" height="83.83"/>
  <line class="cls-3" x1="374.29" y1="152.55" x2="290.47" y2="236.37"/>
  <line class="cls-3" x1="290.47" y1="152.55" x2="374.29" y2="236.37"/>
  <line class="cls-3" x1="290.42" y1="194.48" x2="308.02" y2="152.55"/>
  <line class="cls-3" x1="356.95" y1="152.55" x2="374.29" y2="194.48"/>
  <line class="cls-3" x1="290.42" y1="219.16" x2="332.35" y2="236.41"/>
  <line class="cls-3" x1="332.35" y1="236.41" x2="374.29" y2="219.16"/>
  <line class="cls-3" x1="374.28" y1="169.88" x2="332.35" y2="152.55"/>
  <line class="cls-3" x1="290.47" y1="169.88" x2="332.35" y2="152.55"/>
  <line class="cls-3" x1="308.02" y1="236.41" x2="290.42" y2="194.48"/>
  <line class="cls-3" x1="356.95" y1="236.41" x2="374.29" y2="194.48"/>
  <rect class="cls-3" x="302.7" y="164.83" width="59.3" height="59.3" transform="translate(-40.17 291.97) rotate(-45)"/>
  <polygon class="cls-3" points="302.74 164.82 302.74 223.83 362.35 224.44 362.05 164.82 302.74 164.82"/>
  <line class="cls-3" x1="356.95" y1="152.55" x2="290.42" y2="219.16"/>
  <line class="cls-3" x1="374.54" y1="169.88" x2="308.02" y2="236.5"/>
  <line class="cls-3" x1="308.02" y1="152.55" x2="374.54" y2="219.16"/>
  <line class="cls-3" x1="290.42" y1="169.88" x2="356.95" y2="236.5"/>
  <line class="cls-3" x1="344.71" y1="152.55" x2="344.71" y2="236.37"/>
  <line class="cls-3" x1="319.98" y1="152.55" x2="319.98" y2="236.37"/>
  <line class="cls-3" x1="290.63" y1="182.13" x2="374.46" y2="182.13"/>
  <line class="cls-3" x1="290.63" y1="206.52" x2="374.46" y2="206.52"/>
  <line class="cls-2" x1="308.02" y1="152.55" x2="297.69" y2="177.15"/>
  <line class="cls-2" x1="315.13" y1="159.67" x2="290.47" y2="169.88"/>
  <line class="cls-2" x1="332.35" y1="152.55" x2="319.98" y2="157.67"/>
  <line class="cls-2" x1="332.35" y1="152.55" x2="344.71" y2="157.65"/>
  <line class="cls-2" x1="374.28" y1="169.88" x2="349.77" y2="159.74"/>
  <line class="cls-2" x1="356.95" y1="152.55" x2="367.13" y2="177.16"/>
  <line class="cls-2" x1="374.29" y1="194.48" x2="369.18" y2="182.13"/>
  <line class="cls-2" x1="369.18" y1="206.52" x2="374.29" y2="194.48"/>
  <line class="cls-2" x1="367.13" y1="211.8" x2="356.95" y2="236.41"/>
  <line class="cls-2" x1="349.77" y1="229.25" x2="374.29" y2="219.16"/>
  <line class="cls-2" x1="344.71" y1="231.33" x2="332.35" y2="236.41"/>
  <line class="cls-2" x1="332.35" y1="236.41" x2="319.98" y2="231.44"/>
  <line class="cls-2" x1="297.69" y1="211.89" x2="308.02" y2="236.41"/>
  <line class="cls-2" x1="315.25" y1="229.25" x2="290.42" y2="219.16"/>
  <line class="cls-2" x1="290.42" y1="194.48" x2="295.6" y2="182.13"/>
  <line class="cls-2" x1="290.42" y1="194.48" x2="295.6" y2="206.52"/>
  <line class="cls-6" x1="319.98" y1="231.44" x2="319.98" y2="157.67"/>
  <line class="cls-6" x1="344.71" y1="157.65" x2="344.71" y2="231.33"/>
  <line class="cls-6" x1="295.6" y1="182.13" x2="369.18" y2="182.13"/>
  <line class="cls-6" x1="295.6" y1="206.52" x2="369.79" y2="206.52"/>
  <line class="cls-6" x1="349.77" y1="159.74" x2="297.69" y2="211.89"/>
  <line class="cls-6" x1="367.13" y1="177.16" x2="315.25" y2="229.25"/>
  <line class="cls-6" x1="297.69" y1="177.15" x2="349.77" y2="229.25"/>
  <line class="cls-6" x1="315.13" y1="159.67" x2="367.13" y2="211.8"/>
  <line class="cls-1" x1="405.59" y1="192.49" x2="517.3" y2="192.49"/>
  <line class="cls-1" x1="464.06" y1="248.35" x2="464.06" y2="136.64"/>
  <path class="cls-1" d="m506,192.49c0,23.16-18.77,41.93-41.93,41.93s-41.93-18.77-41.93-41.93,18.77-41.93,41.93-41.93,41.93,18.77,41.93,41.93Z"/>
  <rect class="cls-1" x="422.18" y="150.56" width="83.82" height="83.83"/>
  <line class="cls-1" x1="506" y1="150.56" x2="422.18" y2="234.38"/>
  <line class="cls-1" x1="422.18" y1="150.56" x2="506" y2="234.38"/>
  <line class="cls-3" x1="422.13" y1="192.49" x2="439.73" y2="150.56"/>
  <line class="cls-1" x1="488.66" y1="150.56" x2="506" y2="192.49"/>
  <line class="cls-1" x1="422.13" y1="217.18" x2="464.06" y2="234.42"/>
  <line class="cls-3" x1="464.06" y1="234.42" x2="506" y2="217.18"/>
  <line class="cls-1" x1="505.99" y1="167.89" x2="464.06" y2="150.56"/>
  <line class="cls-1" x1="422.18" y1="167.89" x2="464.06" y2="150.56"/>
  <line class="cls-3" x1="439.73" y1="234.42" x2="422.13" y2="192.49"/>
  <line class="cls-3" x1="488.66" y1="234.42" x2="506" y2="192.49"/>
  <rect class="cls-1" x="434.41" y="162.84" width="59.3" height="59.3" transform="translate(-.19 384.52) rotate(-45)"/>
  <polygon class="cls-1" points="434.44 162.83 434.44 221.84 494.06 222.45 493.76 162.83 434.44 162.83"/>
  <line class="cls-1" x1="488.66" y1="150.56" x2="422.13" y2="217.18"/>
  <line class="cls-1" x1="506.25" y1="167.89" x2="439.73" y2="234.51"/>
  <line class="cls-1" x1="439.73" y1="150.56" x2="506.25" y2="217.18"/>
  <line class="cls-1" x1="422.13" y1="167.89" x2="488.66" y2="234.51"/>
  <line class="cls-1" x1="476.42" y1="150.56" x2="476.42" y2="234.38"/>
  <line class="cls-1" x1="451.69" y1="150.56" x2="451.69" y2="234.38"/>
  <line class="cls-1" x1="422.34" y1="180.14" x2="506.17" y2="180.14"/>
  <line class="cls-1" x1="422.34" y1="204.53" x2="506.17" y2="204.53"/>
  <line class="cls-4" x1="439.73" y1="150.56" x2="429.4" y2="175.16"/>
  <line class="cls-4" x1="446.84" y1="157.68" x2="422.18" y2="167.89"/>
  <line class="cls-4" x1="464.06" y1="150.56" x2="451.69" y2="155.68"/>
  <line class="cls-4" x1="464.06" y1="150.56" x2="476.42" y2="155.67"/>
  <line class="cls-4" x1="505.99" y1="167.89" x2="481.47" y2="157.75"/>
  <line class="cls-4" x1="488.66" y1="150.56" x2="498.83" y2="175.17"/>
  <line class="cls-4" x1="506" y1="192.49" x2="500.89" y2="180.14"/>
  <line class="cls-4" x1="500.89" y1="204.53" x2="506" y2="192.49"/>
  <line class="cls-4" x1="498.83" y1="209.81" x2="488.66" y2="234.42"/>
  <line class="cls-4" x1="481.47" y1="227.26" x2="506" y2="217.18"/>
  <line class="cls-4" x1="476.42" y1="229.34" x2="464.06" y2="234.42"/>
  <line class="cls-4" x1="464.06" y1="234.42" x2="451.69" y2="229.45"/>
  <line class="cls-4" x1="429.4" y1="209.9" x2="439.73" y2="234.42"/>
  <line class="cls-4" x1="446.96" y1="227.26" x2="422.13" y2="217.18"/>
  <line class="cls-4" x1="422.13" y1="192.49" x2="427.31" y2="180.14"/>
  <line class="cls-4" x1="422.13" y1="192.49" x2="427.31" y2="204.53"/>
  <line class="cls-4" x1="451.69" y1="229.45" x2="451.69" y2="155.68"/>
  <line class="cls-4" x1="476.42" y1="155.67" x2="476.42" y2="229.34"/>
  <line class="cls-4" x1="427.31" y1="180.14" x2="500.89" y2="180.14"/>
  <line class="cls-4" x1="427.31" y1="204.53" x2="501.5" y2="204.53"/>
  <line class="cls-4" x1="481.47" y1="157.75" x2="429.4" y2="209.9"/>
  <line class="cls-4" x1="498.83" y1="175.17" x2="446.96" y2="227.26"/>
  <line class="cls-4" x1="429.4" y1="175.16" x2="481.47" y2="227.26"/>
  <line class="cls-4" x1="446.84" y1="157.68" x2="498.83" y2="209.81"/>
  <polygon class="cls-7" points="255.83 281.44 243.39 269.11 243.27 262.12 255.64 257 268 262.11 268.03 269.22 255.83 281.44"/>
  <polygon class="cls-7" points="226.02 286.55 220.98 281.61 226.02 269.27 238.42 264.12 243.39 269.11 243.39 286.55 226.02 286.55"/>
  <polygon class="cls-8" points="213.75 274.33 213.75 257 231.3 257 226.02 269.27 213.75 274.33"/>
  <polygon class="cls-8" points="280.24 340.86 285.31 328.66 297.57 323.62 297.57 340.83 280.24 340.86"/>
  <polygon class="cls-8" points="213.75 340.83 213.71 323.62 226.18 328.66 231.3 340.86 213.75 340.83"/>
  <polygon class="cls-8" points="285.34 269.27 280.24 257 297.57 257 297.57 274.33 285.34 269.27"/>
  <polygon class="cls-7" points="218.89 310.97 213.71 298.93 218.89 286.58 226.02 286.55 238.26 298.91 226.14 311.17 218.89 310.97"/>
  <polygon class="cls-7" points="238.54 333.7 226.18 328.66 220.98 316.34 226.14 311.17 243.23 310.97 243.39 328.84 238.54 333.7"/>
  <polygon class="cls-7" points="255.64 340.86 243.27 335.89 243.39 328.84 255.62 316.55 267.85 328.66 268 335.78 255.64 340.86"/>
  <polygon class="cls-7" points="273.05 333.7 267.85 328.66 268 310.97 285.14 310.97 290.41 316.25 285.31 328.66 273.05 333.7"/>
  <polygon class="cls-7" points="292.47 310.97 285.14 310.97 273.28 298.91 285.49 286.55 292.47 286.58 297.57 298.93 292.47 310.97"/>
  <polygon class="cls-7" points="285.49 286.55 268.03 286.54 268.03 269.22 273.05 264.19 285.34 269.27 290.41 281.61 285.49 286.55"/>
  <polygon class="cls-10" points="273.28 298.91 268.03 304.08 268 310.97 261.25 310.9 255.62 316.55 250.33 310.97 243.23 310.97 243.39 304.03 238.26 298.91 243.39 293.89 243.39 286.55 250.73 286.55 255.83 281.44 260.94 286.7 268.03 286.54 268.15 293.89 273.28 298.91"/>
  <polygon class="cls-8" points="268.03 286.54 260.94 286.7 255.83 281.44 268.03 269.22 268.03 286.54"/>
  <polygon class="cls-8" points="255.83 281.44 250.73 286.55 243.39 286.55 243.39 269.11 255.83 281.44"/>
  <polygon class="cls-8" points="243.39 293.89 238.26 298.91 226.14 286.58 243.39 286.55 243.39 293.89"/>
  <polygon class="cls-9" points="213.71 298.93 218.89 310.97 226.14 311.17 220.98 316.34 226.18 328.66 213.71 323.62 213.71 298.93"/>
  <polygon class="cls-9" points="243.39 328.84 243.27 335.89 255.64 340.86 231.3 340.86 226.18 328.66 238.54 333.7 243.39 328.84"/>
  <polygon class="cls-9" points="267.85 328.66 273.05 333.7 285.31 328.66 280.24 340.86 255.64 340.86 268 335.78 267.85 328.66"/>
  <polygon class="cls-9" points="285.14 310.97 292.47 310.97 297.57 298.93 297.57 323.62 285.31 328.66 290.41 316.25 285.14 310.97"/>
  <polygon class="cls-9" points="290.41 281.61 285.34 269.27 297.57 274.33 297.57 298.93 292.47 286.58 285.49 286.55 290.41 281.61"/>
  <polygon class="cls-9" points="268.03 269.22 268 262.11 255.64 257 280.24 257 285.36 269.3 273.05 264.19 268.03 269.22"/>
  <polygon class="cls-9" points="226.02 269.27 231.3 257 255.64 257 243.27 262.12 243.39 269.11 238.42 264.12 226.02 269.27"/>
  <polygon class="cls-9" points="226.02 269.27 220.98 281.61 226.02 286.55 218.89 286.58 213.71 298.93 213.75 274.33 226.02 269.27"/>
  <polygon class="cls-8" points="243.23 310.97 226.14 311.17 238.26 298.91 243.39 304.03 243.23 310.97"/>
  <polygon class="cls-8" points="243.39 328.84 243.23 310.97 250.33 310.97 255.62 316.55 243.39 328.84"/>
  <polygon class="cls-8" points="267.85 328.66 255.62 316.55 261.25 310.9 268 310.97 267.85 328.66"/>
  <polygon class="cls-8" points="285.14 310.97 268 310.97 268.03 304.08 273.28 298.91 285.14 310.97"/>
  <polygon class="cls-8" points="273.28 298.91 268.15 293.89 268.03 286.54 285.49 286.55 273.28 298.91"/>
</svg>