<?xml version="1.0" encoding="UTF-8" standalone="no"?>
<!-- Created with Inkscape (http://www.inkscape.org/) -->

<svg
   version="1.1"
   id="svg2"
   width="361.33334"
   height="58.666668"
   viewBox="0 0 361.33334 58.666668"
   sodipodi:docname="MClogo_left_aligned_purple_gray_CMYK.eps"
   xmlns:inkscape="http://www.inkscape.org/namespaces/inkscape"
   xmlns:sodipodi="http://sodipodi.sourceforge.net/DTD/sodipodi-0.dtd"
   xmlns="http://www.w3.org/2000/svg"
   xmlns:svg="http://www.w3.org/2000/svg">
  <defs
     id="defs6" />
  <sodipodi:namedview
     id="namedview4"
     pagecolor="#ffffff"
     bordercolor="#000000"
     borderopacity="0.25"
     inkscape:showpageshadow="2"
     inkscape:pageopacity="0.0"
     inkscape:pagecheckerboard="0"
     inkscape:deskcolor="#d1d1d1" />
  <g
     id="g8"
     inkscape:groupmode="layer"
     inkscape:label="ink_ext_XXXXXX"
     transform="matrix(1.3333333,0,0,-1.3333333,0,58.666667)">
    <g
       id="g10"
       transform="scale(0.1)">
      <path
         d="M 616.398,84.8008 C 541.621,84.8008 481,145.328 481,219.996 c 0,74.664 60.621,135.195 135.398,135.195 47.172,0 88.665,-24.113 112.903,-60.628 L 790,355.16 C 749.672,406.723 686.996,440 616.398,440 518.777,440 436.039,376.578 407.113,288.766 c 4.117,46.98 23.063,89.672 52.082,123.531 v 20.75 H 371.813 L 231.898,198.223 h -1.324 L 89.9961,433.047 H 0 V 4.72266 H 91.3086 V 253.32 h 3.2891 L 227.258,32.5547 241.094,53.2539 361.313,253.32 h 3.277 V 4.72266 h 94.605 V 65.9141 C 499.176,25.25 554.824,0 616.398,0 686.996,0 749.672,33.2773 790,84.832 l -60.699,60.609 C 705.063,108.91 663.57,84.8008 616.398,84.8008"
         style="fill:#4a217b;fill-opacity:1;fill-rule:nonzero;stroke:none"
         id="path12" />
      <path
         d="m 2661.92,436.688 -26.29,-70.344 -26.04,70.344 h -48.56 l 52.34,-111.559 v -63.711 h 44.76 v 63.711 L 2710,436.688 Z m -112.31,-92.141 c 4.98,7.82 8.76,18.238 8.76,31.742 0,19.184 -6.63,36.477 -21.31,47.84 -9.71,7.574 -26.77,12.559 -54.24,12.559 h -57.31 v -175.27 h 44.76 v 135.945 h 16.58 c 6.15,0 13.26,-1.656 18.24,-4.738 5.92,-3.781 10.42,-11.121 10.42,-20.363 0,-9.711 -4.5,-18.004 -9.95,-21.551 -5.92,-3.793 -15.63,-4.738 -27.01,-4.738 h -7.34 l 45.71,-84.555 h 46.19 l -36.24,64.426 c 8.29,3.547 16.82,9.472 22.74,18.703 z m -253.23,-83.129 h 99.24 v 39.312 h -54.47 v 30.083 h 52.81 v 39.312 h -52.81 v 27.238 h 54.47 v 39.325 h -99.24 z m -126.07,62.289 -32.93,112.981 h -59.92 v -175.27 h 41.22 l -1.43,131.207 37.9,-131.207 h 29.61 l 37.89,131.207 -1.42,-131.207 h 41.21 v 175.27 h -60.15 z m -159.55,25.109 c 0,22.735 -15.4,51.872 -47.61,51.872 -31.03,0 -47.85,-26.536 -47.85,-51.168 v -0.235 c 0,-26.758 18.24,-51.867 48.32,-51.867 31.74,0 47.14,28.891 47.14,51.398 z m 44.76,0.235 c 0,-48.789 -38.37,-90.949 -92.84,-90.949 -55.19,0 -92.14,43.82 -92.14,88.816 v 0.234 c 0,57.317 44.05,92.848 92.37,92.848 54.01,0 92.61,-42.16 92.61,-90.949 z m -310.08,12.078 v -35.766 h 52.35 c -2.37,-8.527 -7.34,-15.625 -14.45,-20.363 -7.1,-4.98 -16.34,-7.816 -27.47,-7.816 -22.03,0 -48.08,15.867 -48.08,52.578 0,34.578 25.82,50.926 47.84,50.926 12.32,0 22.03,-4.504 29.37,-10.899 3.79,-3.559 6.87,-7.586 9.24,-11.844 h 50.21 c -9.71,33.875 -45.71,62.055 -87.63,62.055 -51.64,0 -93.8,-37.898 -93.8,-90.238 0,-50.453 40.03,-91.895 93.09,-91.895 28.89,0 68.2,14.449 85.26,53.051 7.58,17.047 9,37.656 8.06,50.211 z m -203.72,36.234 h 34.59 V 261.418 h 44.76 v 135.945 h 34.34 v 39.325 h -113.69 z m -65.9,-67.496 -67.26,106.821 h -38.61 v -175.27 h 42.87 l -0.94,105.629 67.02,-105.629 h 38.84 v 175.27 h -42.86 z m -174.31,18.949 c 0,22.735 -15.39,51.872 -47.6,51.872 -31.03,0 -47.85,-26.536 -47.85,-51.168 v -0.235 c 0,-26.758 18.24,-51.867 48.32,-51.867 31.74,0 47.13,28.891 47.13,51.398 z m 44.77,0.235 c 0,-48.789 -38.37,-90.949 -92.84,-90.949 -55.2,0 -92.14,43.82 -92.14,88.816 v 0.234 c 0,57.317 44.05,92.848 92.37,92.848 54.01,0 92.61,-42.16 92.61,-90.949 z m -268.58,87.637 h 60.16 v -175.27 h -41.22 l 1.43,131.207 -37.89,-131.207 h -29.61 l -37.898,131.207 1.426,-131.207 h -41.215 v 175.27 h 59.917 l 32.93,-112.981 31.97,112.981"
         style="fill:#5a5758;fill-opacity:1;fill-rule:nonzero;stroke:none"
         id="path14" />
      <path
         d="m 1976.59,155.551 v 24.633 h -98.05 V 4.91406 h 98.05 V 29.5469 h -70.1 V 81.418 h 69.16 v 24.387 h -69.16 v 49.746 z m -225.3,-85.0315 h 75.55 c -2.6,-12.0781 -9.94,-23.2109 -20.6,-31.2617 -10.42,-8.0547 -24.39,-13.0273 -40.51,-13.0273 -32.92,0 -64.18,24.6367 -64.18,66.7851 0,40.7384 31.03,65.8474 64.18,65.8474 14.46,0 26.77,-4.504 36.96,-11.843 6.15,-4.504 11.6,-10.188 16.1,-16.582 h 31.5 c -12.55,30.316 -46.42,53.058 -84.08,53.058 -50.92,0 -92.37,-38.133 -92.37,-90.4804 0,-51.3906 40.27,-91.41794 92.14,-91.41794 33.15,0 69.39,17.52734 85.5,52.33984 5.91,13.0313 7.82,28.1914 7.82,39.3242 H 1751.29 Z M 1557.04,4.91406 h 98.05 V 29.5469 h -70.1 V 81.418 h 69.16 v 24.387 h -69.16 v 49.746 h 70.1 v 24.633 h -98.05 z M 1477.67,180.184 h -27.95 V 4.91406 h 89.76 V 29.5469 h -61.81 z m -107.79,0 h -27.95 V 4.91406 h 89.76 V 29.5469 h -61.81 z m -77.52,-87.8715 c 0,34.3435 -25.33,66.5505 -63.71,66.5505 -38.12,0 -64.18,-30.793 -64.18,-66.0817 v -0.2344 c 0,-36.4766 27,-66.3164 64.42,-66.3164 38.14,0 63.47,31.9765 63.47,66.082 z m 27.95,0.2344 c 0,-50.4453 -39.55,-90.94924 -92.13,-90.94924 -52.81,0 -91.42,41.44924 -91.42,89.76174 v 0.2422 c 0,55.1834 42.39,91.8944 91.66,91.8944 52.34,0 91.89,-40.504 91.89,-90.9491 z m -342.361,0.2344 c 0,-36.4766 26.521,-66.5508 63.471,-66.5508 33.87,0 50.21,25.582 54,31.9765 h 29.37 C 1113.89,26.2305 1081.44,1.59766 1041.65,1.59766 988.836,1.59766 950,43.0469 950,92.7813 c 0,48.0777 37.18,90.7147 91.42,90.7147 47.13,-0.234 75.08,-33.394 83.6,-57.551 h -29.6 c -5.68,11.368 -23.45,32.684 -54.24,32.918 -37.19,0 -63.231,-30.55 -63.231,-66.0817"
         style="fill:#5a5758;fill-opacity:1;fill-rule:nonzero;stroke:none"
         id="path16" />
    </g>
  </g>
</svg>
