<?xml version="1.0" encoding="UTF-8"?>
<svg id="Layer_1" data-name="Layer 1" xmlns="http://www.w3.org/2000/svg" xmlns:xlink="http://www.w3.org/1999/xlink" viewBox="0 0 433.83 220.08">
  <defs>
    <style>
      .cls-1 {
        clip-path: url(#clippath);
      }

      .cls-2, .cls-3 {
        fill: none;
      }

      .cls-2, .cls-4, .cls-5, .cls-6, .cls-7, .cls-8, .cls-9 {
        stroke-width: 0px;
      }

      .cls-10 {
        clip-path: url(#clippath-1);
      }

      .cls-11 {
        clip-path: url(#clippath-2);
      }

      .cls-12 {
        font-size: 8px;
      }

      .cls-12, .cls-13 {
        fill: #040303;
        font-family: PqpnqrKsjllwLcvkxxArialMT, PqpnqrKsjllwLcvkxxArialMT;
      }

      .cls-3 {
        stroke: #131413;
        stroke-linecap: round;
        stroke-linejoin: round;
        stroke-width: .5px;
      }

      .cls-13 {
        font-size: 10px;
      }

      .cls-4 {
        fill: #d9d1e6;
      }

      .cls-5 {
        fill: #b6deee;
      }

      .cls-6 {
        fill: #b6d4b3;
      }

      .cls-7 {
        fill: #fcdeb0;
      }

      .cls-8 {
        fill: #e4d3c2;
      }

      .cls-9 {
        fill: #030303;
      }
    </style>
    <clipPath id="clippath">
      <rect class="cls-2" y="0" width="433.76" height="220.08"/>
    </clipPath>
    <clipPath id="clippath-1">
      <rect class="cls-2" y="0" width="433.76" height="220.08"/>
    </clipPath>
    <clipPath id="clippath-2">
      <rect class="cls-2" y="0" width="433.76" height="220.08"/>
    </clipPath>
  </defs>
  <polyline class="cls-4" points="432.83 181.88 427.51 181.88 418.29 187.2 412.96 196.42 412.96 201.75 432.83 201.75 432.83 181.88"/>
  <polyline class="cls-4" points="396.99 187.2 387.77 181.88 377.13 181.88 367.91 187.2 362.58 196.42 362.58 201.75 402.32 201.75 402.32 196.42 396.99 187.2"/>
  <polyline class="cls-4" points="346.61 187.2 337.39 181.88 332.07 181.88 332.07 201.75 351.94 201.75 351.94 196.42 346.61 187.2"/>
  <polyline class="cls-4" points="377.13 152.79 371.8 143.57 362.58 138.25 351.94 138.25 342.72 143.57 337.39 152.79 337.39 163.44 342.72 172.66 351.94 177.98 362.58 177.98 371.8 172.66 377.13 163.44 377.13 152.79"/>
  <polyline class="cls-4" points="422.19 143.57 412.96 138.25 402.32 138.25 393.1 143.57 387.77 152.79 387.77 163.44 393.1 172.66 402.32 177.98 412.96 177.98 422.19 172.66 427.51 163.44 427.51 152.79 422.19 143.57"/>
  <polyline class="cls-4" points="432.83 114.48 412.96 114.48 412.96 119.81 418.29 129.03 427.51 134.35 432.83 134.35 432.83 114.48"/>
  <polyline class="cls-4" points="402.32 119.81 402.32 114.48 362.58 114.48 362.58 119.81 367.91 129.03 377.13 134.35 387.77 134.35 396.99 129.03 402.32 119.81"/>
  <polyline class="cls-4" points="351.94 119.81 351.94 114.48 332.07 114.48 332.07 134.35 337.39 134.35 346.61 129.03 351.94 119.81"/>
  <polyline class="cls-4" points="317.98 176.55 311.23 176.55 299.54 183.31 292.78 195 292.78 201.75 317.98 201.75 317.98 176.55"/>
  <polyline class="cls-4" points="286.04 183.31 274.34 176.55 260.85 176.55 249.15 183.31 242.4 195 242.4 201.75 292.78 201.75 292.78 195 286.04 183.31"/>
  <polyline class="cls-4" points="235.65 183.31 223.96 176.55 217.21 176.55 217.21 201.75 242.4 201.75 242.4 195 235.65 183.31"/>
  <polyline class="cls-4" points="267.59 151.37 260.85 139.67 249.15 132.92 235.65 132.92 223.96 139.67 217.21 151.37 217.21 164.86 223.96 176.56 235.65 183.31 249.15 183.31 260.85 176.56 267.59 164.86 267.59 151.37"/>
  <polyline class="cls-4" points="311.23 139.67 299.54 132.92 286.04 132.92 274.34 139.67 267.59 151.37 267.59 164.86 274.34 176.56 286.04 183.31 299.54 183.31 311.23 176.56 317.98 164.86 317.98 151.37 311.23 139.67"/>
  <polyline class="cls-4" points="317.98 114.48 292.78 114.48 292.78 121.23 299.54 132.92 311.23 139.67 317.98 139.67 317.98 114.48"/>
  <polyline class="cls-4" points="292.78 121.23 292.78 114.48 242.4 114.48 242.4 121.23 249.15 132.92 260.85 139.67 274.34 139.67 286.04 132.92 292.78 121.23"/>
  <polyline class="cls-4" points="242.4 121.23 242.4 114.48 217.21 114.48 217.21 139.67 223.96 139.67 235.65 132.92 242.4 121.23"/>
  <polyline class="cls-8" points="203.12 181.18 194.6 172.66 182.55 172.66 174.03 181.18 174.03 193.23 182.55 201.75 194.6 201.75 203.12 193.23 203.12 181.18"/>
  <polyline class="cls-8" points="174.03 181.18 165.51 172.66 153.46 172.66 144.95 181.18 144.95 193.23 153.46 201.75 165.51 201.75 174.03 193.23 174.03 181.18"/>
  <polyline class="cls-8" points="144.95 181.18 136.43 172.66 124.38 172.66 115.86 181.18 115.86 193.23 124.38 201.75 136.43 201.75 144.95 193.23 144.95 181.18"/>
  <polyline class="cls-8" points="144.95 152.09 136.43 143.57 124.38 143.57 115.86 152.09 115.86 164.14 124.38 172.66 136.43 172.66 144.95 164.14 144.95 152.09"/>
  <polyline class="cls-8" points="174.03 152.09 165.51 143.57 153.46 143.57 144.95 152.09 144.95 164.14 153.46 172.66 165.51 172.66 174.03 164.14 174.03 152.09"/>
  <polyline class="cls-8" points="203.12 152.09 194.6 143.57 182.55 143.57 174.03 152.09 174.03 164.14 182.55 172.66 194.6 172.66 203.12 164.14 203.12 152.09"/>
  <polyline class="cls-8" points="203.12 123 194.6 114.48 182.55 114.48 174.03 123 174.03 135.05 182.55 143.57 194.6 143.57 203.12 135.05 203.12 123"/>
  <polyline class="cls-8" points="174.03 123 165.51 114.48 153.46 114.48 144.95 123 144.95 135.05 153.46 143.57 165.51 143.57 174.03 135.05 174.03 123"/>
  <polyline class="cls-8" points="144.95 123 136.43 114.48 124.38 114.48 115.86 123 115.86 135.05 124.38 143.57 136.43 143.57 144.95 135.05 144.95 123"/>
  <polyline class="cls-5" points="362.58 177.98 351.94 177.98 346.61 187.2 351.94 196.42 362.58 196.42 367.91 187.2 362.58 177.98"/>
  <polyline class="cls-5" points="412.96 177.98 402.32 177.98 396.99 187.2 402.32 196.42 412.96 196.42 418.29 187.2 412.96 177.98"/>
  <polyline class="cls-5" points="432.83 163.44 427.51 163.44 422.19 172.66 427.51 181.88 432.83 181.88 432.83 163.44"/>
  <polyline class="cls-5" points="387.77 163.44 377.13 163.44 371.8 172.66 377.13 181.88 387.77 181.88 393.1 172.66 387.77 163.44"/>
  <polyline class="cls-5" points="342.72 172.66 337.39 163.44 332.07 163.44 332.07 181.88 337.39 181.88 342.72 172.66"/>
  <polyline class="cls-5" points="337.39 134.35 332.07 134.35 332.07 152.79 337.39 152.79 342.72 143.57 337.39 134.35"/>
  <polyline class="cls-5" points="387.77 134.35 377.13 134.35 371.8 143.57 377.13 152.79 387.77 152.79 393.1 143.57 387.77 134.35"/>
  <polyline class="cls-5" points="432.83 134.35 427.51 134.35 422.19 143.57 427.51 152.79 432.83 152.79 432.83 134.35"/>
  <polyline class="cls-5" points="418.29 129.03 412.96 119.81 402.32 119.81 396.99 129.03 402.32 138.25 412.96 138.25 418.29 129.03"/>
  <polyline class="cls-5" points="362.58 119.81 351.94 119.81 346.61 129.03 351.94 138.25 362.58 138.25 367.91 129.03 362.58 119.81"/>
  <polyline class="cls-5" points="101.76 192.52 96.44 192.52 91.12 201.75 101.76 201.75 101.76 192.52"/>
  <polyline class="cls-5" points="56.71 192.52 46.06 192.52 40.74 201.75 62.03 201.75 56.71 192.52"/>
  <polyline class="cls-5" points="6.32 192.52 1 192.52 1 201.75 11.65 201.75 6.32 192.52"/>
  <polyline class="cls-5" points="36.84 187.2 31.51 177.98 20.87 177.98 15.55 187.2 20.87 196.42 31.51 196.42 36.84 187.2"/>
  <polyline class="cls-5" points="87.22 187.2 81.9 177.98 71.25 177.98 65.93 187.2 71.25 196.42 81.9 196.42 87.22 187.2"/>
  <polyline class="cls-5" points="101.76 163.44 96.44 163.44 91.12 172.66 96.44 181.88 101.76 181.88 101.76 163.44"/>
  <polyline class="cls-5" points="56.71 163.44 46.06 163.44 40.74 172.66 46.06 181.88 56.71 181.88 62.03 172.66 56.71 163.44"/>
  <polyline class="cls-5" points="11.65 172.66 6.32 163.44 1 163.44 1 181.88 6.32 181.88 11.65 172.66"/>
  <polyline class="cls-5" points="36.84 158.11 31.51 148.89 20.87 148.89 15.55 158.11 20.87 167.33 31.51 167.33 36.84 158.11"/>
  <polyline class="cls-5" points="87.22 158.11 81.9 148.89 71.25 148.89 65.93 158.11 71.25 167.33 81.9 167.33 87.22 158.11"/>
  <polyline class="cls-5" points="101.76 134.35 96.44 134.35 91.12 143.57 96.44 152.79 101.76 152.79 101.76 134.35"/>
  <polyline class="cls-5" points="56.71 134.35 46.06 134.35 40.74 143.57 46.06 152.79 56.71 152.79 62.03 143.57 56.71 134.35"/>
  <polyline class="cls-5" points="6.32 134.35 1 134.35 1 152.79 6.32 152.79 11.65 143.57 6.32 134.35"/>
  <polyline class="cls-5" points="31.52 119.81 20.87 119.81 15.55 129.03 20.87 138.25 31.52 138.25 36.84 129.03 31.52 119.81"/>
  <polyline class="cls-5" points="81.9 119.81 71.25 119.81 65.93 129.03 71.25 138.25 81.9 138.25 87.22 129.03 81.9 119.81"/>
  <polyline class="cls-5" points="101.76 114.48 91.12 114.48 96.44 123.7 101.76 123.7 101.76 114.48"/>
  <polyline class="cls-5" points="62.03 114.48 40.74 114.48 46.06 123.7 56.71 123.7 62.03 114.48"/>
  <polyline class="cls-5" points="11.65 114.48 1 114.48 1 123.7 6.32 123.7 11.65 114.48"/>
  <polyline class="cls-5" points="215.8 73.72 203.2 80.99 203.2 88.27 215.8 88.27 215.8 73.72"/>
  <polyline class="cls-5" points="190.61 73.72 178.01 66.45 165.42 73.72 165.42 88.27 190.61 88.27 190.61 73.72"/>
  <polyline class="cls-5" points="152.82 66.45 140.22 59.18 127.63 66.45 127.63 80.99 140.22 88.27 152.82 80.99 152.82 66.45"/>
  <polyline class="cls-5" points="140.22 30.09 127.63 22.82 115.03 30.09 115.03 44.63 127.63 51.91 140.22 44.63 140.22 30.09"/>
  <polyline class="cls-5" points="178.01 37.36 165.42 30.09 152.82 37.36 152.82 51.91 165.42 59.18 178.01 51.91 178.01 37.36"/>
  <polyline class="cls-5" points="215.8 44.63 203.2 37.36 190.61 44.63 190.61 59.18 203.2 66.45 215.8 59.18 215.8 44.63"/>
  <polyline class="cls-5" points="203.2 8.27 190.61 1 178.01 8.27 178.01 22.82 190.61 30.09 203.2 22.82 203.2 8.27"/>
  <polyline class="cls-5" points="165.42 1 140.22 1 140.22 15.54 152.82 22.82 165.42 15.54 165.42 1"/>
  <polyline class="cls-5" points="127.63 1 115.03 1 115.03 15.54 127.63 8.27 127.63 1"/>
  <polyline class="cls-5" points="26.19 77.36 19.89 66.45 7.3 66.45 1 77.36 7.3 88.26 19.89 88.26 26.19 77.36"/>
  <polyline class="cls-5" points="45.09 66.45 32.49 66.45 26.19 77.36 32.49 88.27 45.09 88.27 51.38 77.36 45.09 66.45"/>
  <polyline class="cls-5" points="70.28 66.45 57.68 66.45 51.38 77.36 57.68 88.27 70.28 88.27 76.57 77.36 70.28 66.45"/>
  <polyline class="cls-5" points="101.76 77.36 95.47 66.45 82.87 66.45 76.57 77.36 82.87 88.26 95.47 88.26 101.76 77.36"/>
  <polyline class="cls-5" points="101.76 44.63 95.47 44.63 89.17 55.54 95.47 66.45 101.76 66.45 101.76 44.63"/>
  <polyline class="cls-5" points="82.87 44.63 70.28 44.63 63.98 55.54 70.28 66.45 82.87 66.45 89.17 55.54 82.87 44.63"/>
  <polyline class="cls-5" points="57.68 44.63 45.09 44.63 38.79 55.54 45.09 66.45 57.68 66.45 63.98 55.54 57.68 44.63"/>
  <polyline class="cls-5" points="32.49 44.63 19.89 44.63 13.6 55.54 19.89 66.45 32.49 66.45 38.79 55.54 32.49 44.63"/>
  <polyline class="cls-5" points="7.3 44.63 1 44.63 1 66.45 7.3 66.45 13.6 55.54 7.3 44.63"/>
  <polyline class="cls-5" points="26.19 33.72 19.89 22.82 7.3 22.82 1 33.72 7.3 44.63 19.89 44.63 26.19 33.72"/>
  <polyline class="cls-5" points="45.09 22.82 32.49 22.82 26.19 33.72 32.49 44.63 45.09 44.63 51.38 33.72 45.09 22.82"/>
  <polyline class="cls-5" points="70.28 22.82 57.68 22.82 51.38 33.72 57.68 44.63 70.28 44.63 76.57 33.72 70.28 22.82"/>
  <polyline class="cls-5" points="95.47 22.82 82.87 22.82 76.57 33.72 82.87 44.63 95.47 44.63 101.76 33.72 95.47 22.82"/>
  <polyline class="cls-5" points="101.76 1 95.47 1 89.17 11.91 95.47 22.82 101.76 22.82 101.76 1"/>
  <polyline class="cls-5" points="89.17 11.91 82.87 1 70.28 1 63.98 11.91 70.28 22.82 82.87 22.82 89.17 11.91"/>
  <polyline class="cls-5" points="57.68 1 45.09 1 38.79 11.91 45.09 22.82 57.68 22.82 63.98 11.91 57.68 1"/>
  <polyline class="cls-5" points="32.49 1 19.89 1 13.6 11.91 19.89 22.82 32.49 22.82 38.79 11.91 32.49 1"/>
  <polyline class="cls-5" points="7.3 1 1 1 1 22.82 7.3 22.82 13.6 11.91 7.3 1"/>
  <polyline class="cls-6" points="432.83 80.47 427.51 79.04 425.04 88.27 432.83 88.27 432.83 80.47"/>
  <polyline class="cls-6" points="412.96 82.94 398.42 79.04 395.95 88.27 411.54 88.27 412.96 82.94"/>
  <polyline class="cls-6" points="383.88 82.94 369.33 79.04 366.86 88.27 382.45 88.27 383.88 82.94"/>
  <polyline class="cls-6" points="354.79 82.94 345.57 80.47 345.57 88.27 353.36 88.27 354.79 82.94"/>
  <polyline class="cls-6" points="365.44 64.5 350.89 68.4 354.79 82.94 369.33 79.04 365.44 64.5"/>
  <polyline class="cls-6" points="394.52 64.5 379.98 68.4 383.88 82.94 398.42 79.04 394.52 64.5"/>
  <polyline class="cls-6" points="423.61 64.5 409.07 68.4 412.96 82.94 427.51 79.04 423.61 64.5"/>
  <polyline class="cls-6" points="432.83 51.38 427.51 49.96 423.61 64.5 432.83 66.97 432.83 51.38"/>
  <polyline class="cls-6" points="412.96 53.85 398.42 49.96 394.52 64.5 409.07 68.4 412.96 53.85"/>
  <polyline class="cls-6" points="383.88 53.85 369.33 49.96 365.44 64.5 379.98 68.4 383.88 53.85"/>
  <polyline class="cls-6" points="354.79 53.85 345.57 51.38 345.57 66.97 350.89 68.4 354.79 53.85"/>
  <polyline class="cls-6" points="365.44 35.41 350.89 39.31 354.79 53.85 369.33 49.96 365.44 35.41"/>
  <polyline class="cls-6" points="394.52 35.41 379.98 39.31 383.88 53.85 398.42 49.96 394.52 35.41"/>
  <polyline class="cls-6" points="423.61 35.41 409.07 39.31 412.96 53.85 427.51 49.96 423.61 35.41"/>
  <polyline class="cls-6" points="432.83 22.29 427.51 20.87 423.61 35.41 432.83 37.88 432.83 22.29"/>
  <polyline class="cls-6" points="412.96 24.76 398.42 20.87 394.52 35.41 409.07 39.31 412.96 24.76"/>
  <polyline class="cls-6" points="383.88 24.76 369.33 20.87 365.44 35.41 379.98 39.31 383.88 24.76"/>
  <polyline class="cls-6" points="354.79 24.76 345.57 22.29 345.57 37.88 350.89 39.31 354.79 24.76"/>
  <polyline class="cls-6" points="365.44 6.32 350.89 10.22 354.79 24.77 369.33 20.87 365.44 6.32"/>
  <polyline class="cls-6" points="394.52 6.32 379.98 10.22 383.88 24.77 398.42 20.87 394.52 6.32"/>
  <polyline class="cls-6" points="423.61 6.32 409.07 10.22 412.96 24.77 427.51 20.87 423.61 6.32"/>
  <polyline class="cls-6" points="432.83 1 425.04 1 423.61 6.32 432.83 8.8 432.83 1"/>
  <polyline class="cls-6" points="411.54 1 395.95 1 394.52 6.32 409.07 10.22 411.54 1"/>
  <polyline class="cls-6" points="382.45 1 366.86 1 365.44 6.32 379.98 10.22 382.45 1"/>
  <polyline class="cls-6" points="353.36 1 345.57 1 345.57 8.8 350.89 10.22 353.36 1"/>
  <rect class="cls-6" x="310.48" y="1" width="21.82" height="87.26"/>
  <rect class="cls-6" x="269.77" y="1" width="21.82" height="87.26"/>
  <rect class="cls-6" x="229.06" y="1" width="21.82" height="87.26"/>
  <rect class="cls-6" x="20.87" y="196.42" width="10.65" height="5.32"/>
  <rect class="cls-6" x="71.25" y="196.42" width="10.65" height="5.32"/>
  <polyline class="cls-6" points="96.44 192.52 87.22 187.2 81.9 196.42 91.12 201.75 96.44 192.52"/>
  <polyline class="cls-6" points="65.93 187.2 56.71 192.52 62.03 201.75 71.25 196.42 65.93 187.2"/>
  <polyline class="cls-6" points="46.06 192.52 36.84 187.2 31.51 196.42 40.74 201.75 46.06 192.52"/>
  <polyline class="cls-6" points="15.55 187.2 6.32 192.52 11.65 201.75 20.87 196.42 15.55 187.2"/>
  <rect class="cls-6" x="1" y="181.88" width="5.32" height="10.65"/>
  <polyline class="cls-6" points="56.71 181.88 46.06 181.88 46.06 192.52 56.71 192.52 56.71 181.88"/>
  <rect class="cls-6" x="96.44" y="181.88" width="5.32" height="10.65"/>
  <polyline class="cls-6" points="91.12 172.66 81.9 177.98 87.22 187.2 96.44 181.88 91.12 172.66"/>
  <polyline class="cls-6" points="71.25 177.98 62.03 172.66 56.71 181.88 65.93 187.2 71.25 177.98"/>
  <polyline class="cls-6" points="40.74 172.66 31.52 177.98 36.84 187.2 46.06 181.88 40.74 172.66"/>
  <polyline class="cls-6" points="20.87 177.98 11.65 172.66 6.32 181.88 15.54 187.2 20.87 177.98"/>
  <polyline class="cls-6" points="15.55 158.11 6.32 163.44 11.65 172.66 20.87 167.33 15.55 158.11"/>
  <rect class="cls-6" x="20.87" y="167.33" width="10.65" height="10.65"/>
  <polyline class="cls-6" points="46.06 163.44 36.84 158.11 31.51 167.33 40.74 172.66 46.06 163.44"/>
  <polyline class="cls-6" points="65.93 158.11 56.71 163.44 62.03 172.66 71.25 167.33 65.93 158.11"/>
  <rect class="cls-6" x="71.25" y="167.33" width="10.65" height="10.65"/>
  <polyline class="cls-6" points="96.44 163.44 87.22 158.11 81.9 167.33 91.12 172.66 96.44 163.44"/>
  <rect class="cls-6" x="96.44" y="152.79" width="5.32" height="10.65"/>
  <polyline class="cls-6" points="91.12 143.57 81.9 148.89 87.22 158.11 96.44 152.79 91.12 143.57"/>
  <polyline class="cls-6" points="71.25 148.89 62.03 143.57 56.71 152.79 65.93 158.11 71.25 148.89"/>
  <polyline class="cls-6" points="56.71 152.79 46.06 152.79 46.06 163.44 56.71 163.44 56.71 152.79"/>
  <polyline class="cls-6" points="40.74 143.57 31.52 148.89 36.84 158.11 46.06 152.79 40.74 143.57"/>
  <polyline class="cls-6" points="20.87 148.89 11.65 143.57 6.32 152.79 15.55 158.11 20.87 148.89"/>
  <rect class="cls-6" x="1" y="152.79" width="5.32" height="10.65"/>
  <polyline class="cls-6" points="15.55 129.03 6.32 134.35 11.65 143.57 20.87 138.25 15.55 129.03"/>
  <rect class="cls-6" x="20.87" y="138.25" width="10.65" height="10.65"/>
  <polyline class="cls-6" points="46.06 134.35 36.84 129.03 31.52 138.25 40.74 143.57 46.06 134.35"/>
  <polyline class="cls-6" points="65.93 129.03 56.71 134.35 62.03 143.57 71.25 138.25 65.93 129.03"/>
  <rect class="cls-6" x="71.25" y="138.25" width="10.65" height="10.65"/>
  <polyline class="cls-6" points="96.44 134.35 87.22 129.03 81.9 138.25 91.12 143.57 96.44 134.35"/>
  <rect class="cls-6" x="96.44" y="123.7" width="5.32" height="10.65"/>
  <polyline class="cls-6" points="91.12 114.48 81.9 119.81 87.22 129.03 96.44 123.7 91.12 114.48"/>
  <rect class="cls-6" x="71.25" y="114.48" width="10.65" height="5.32"/>
  <polyline class="cls-6" points="71.25 119.81 62.03 114.48 56.71 123.7 65.93 129.03 71.25 119.81"/>
  <polyline class="cls-6" points="56.71 123.7 46.06 123.7 46.06 134.35 56.71 134.35 56.71 123.7"/>
  <rect class="cls-6" x="1" y="123.7" width="5.32" height="10.65"/>
  <polyline class="cls-6" points="40.74 114.48 31.52 119.81 36.84 129.03 46.06 123.7 40.74 114.48"/>
  <rect class="cls-6" x="20.87" y="114.48" width="10.65" height="5.32"/>
  <polyline class="cls-6" points="20.87 119.81 11.65 114.48 6.32 123.7 15.54 129.03 20.87 119.81"/>
  <polyline class="cls-6" points="115.86 193.23 115.86 201.75 124.38 201.75 115.86 193.23"/>
  <polyline class="cls-6" points="144.94 193.23 136.42 201.75 153.46 201.75 144.94 193.23"/>
  <polyline class="cls-6" points="174.03 193.23 165.51 201.75 182.55 201.75 174.03 193.23"/>
  <polyline class="cls-6" points="203.12 193.23 194.6 201.75 203.12 201.75 203.12 193.23"/>
  <polyline class="cls-6" points="203.12 164.14 194.6 172.66 203.12 181.18 203.12 164.14"/>
  <polyline class="cls-6" points="182.55 172.66 174.03 164.14 165.51 172.66 174.03 181.18 182.55 172.66"/>
  <polyline class="cls-6" points="153.46 172.66 144.94 164.14 136.43 172.66 144.94 181.18 153.46 172.66"/>
  <polyline class="cls-6" points="124.38 172.66 115.86 164.14 115.86 181.18 124.38 172.66"/>
  <polyline class="cls-6" points="115.86 135.05 115.86 152.09 124.38 143.57 115.86 135.05"/>
  <polyline class="cls-6" points="144.94 135.05 136.42 143.57 144.94 152.09 153.46 143.57 144.94 135.05"/>
  <polyline class="cls-6" points="174.03 135.05 165.51 143.57 174.03 152.09 182.55 143.57 174.03 135.05"/>
  <polyline class="cls-6" points="203.12 135.05 194.6 143.57 203.12 152.09 203.12 135.05"/>
  <polyline class="cls-6" points="203.12 114.48 194.6 114.48 203.12 123 203.12 114.48"/>
  <polyline class="cls-6" points="182.55 114.48 165.51 114.48 174.03 123 182.55 114.48"/>
  <polyline class="cls-6" points="153.46 114.48 136.43 114.48 144.94 123 153.46 114.48"/>
  <polyline class="cls-6" points="124.38 114.48 115.86 114.48 115.86 123 124.38 114.48"/>
  <rect class="cls-6" x="402.32" y="196.42" width="10.65" height="5.32"/>
  <rect class="cls-6" x="351.93" y="196.42" width="10.65" height="5.32"/>
  <polyline class="cls-6" points="351.93 177.98 342.72 172.66 337.39 181.88 346.61 187.2 351.93 177.98"/>
  <polyline class="cls-6" points="371.8 172.66 362.58 177.98 367.91 187.2 377.13 181.88 371.8 172.66"/>
  <polyline class="cls-6" points="402.32 177.98 393.1 172.66 387.77 181.88 396.99 187.2 402.32 177.98"/>
  <polyline class="cls-6" points="422.19 172.66 412.96 177.98 418.29 187.2 427.51 181.88 422.19 172.66"/>
  <rect class="cls-6" x="427.51" y="152.79" width="5.32" height="10.65"/>
  <rect class="cls-6" x="377.13" y="152.79" width="10.65" height="10.65"/>
  <rect class="cls-6" x="332.07" y="152.79" width="5.33" height="10.65"/>
  <polyline class="cls-6" points="346.61 129.03 337.39 134.35 342.72 143.57 351.93 138.25 346.61 129.03"/>
  <polyline class="cls-6" points="377.13 134.35 367.91 129.03 362.58 138.25 371.8 143.57 377.13 134.35"/>
  <polyline class="cls-6" points="396.99 129.03 387.77 134.35 393.1 143.57 402.32 138.25 396.99 129.03"/>
  <polyline class="cls-6" points="427.51 134.35 418.29 129.03 412.96 138.25 422.19 143.57 427.51 134.35"/>
  <rect class="cls-6" x="402.32" y="114.48" width="10.65" height="5.32"/>
  <rect class="cls-6" x="351.93" y="114.48" width="10.65" height="5.32"/>
  <polyline class="cls-7" points="1 77.36 1 88.26 7.3 88.26 1 77.36"/>
  <polyline class="cls-7" points="26.19 77.36 19.89 88.26 32.49 88.26 26.19 77.36"/>
  <polyline class="cls-7" points="51.38 77.36 45.08 88.26 57.68 88.26 51.38 77.36"/>
  <polyline class="cls-7" points="76.57 77.36 70.28 88.26 82.87 88.26 76.57 77.36"/>
  <polyline class="cls-7" points="101.76 77.36 95.47 88.26 101.76 88.26 101.76 77.36"/>
  <polyline class="cls-7" points="101.76 66.45 95.47 66.45 101.76 77.36 101.76 66.45"/>
  <polyline class="cls-7" points="82.87 66.45 70.27 66.45 76.57 77.36 82.87 66.45"/>
  <polyline class="cls-7" points="57.68 66.45 45.08 66.45 51.38 77.36 57.68 66.45"/>
  <polyline class="cls-7" points="32.49 66.45 19.89 66.45 26.19 77.36 32.49 66.45"/>
  <polyline class="cls-7" points="7.3 66.45 1 66.45 1 77.36 7.3 66.45"/>
  <polyline class="cls-7" points="13.6 55.54 7.3 66.45 19.89 66.45 13.6 55.54"/>
  <polyline class="cls-7" points="38.79 55.54 32.49 66.45 45.09 66.45 38.79 55.54"/>
  <polyline class="cls-7" points="63.98 55.54 57.68 66.45 70.27 66.45 63.98 55.54"/>
  <polyline class="cls-7" points="89.17 55.54 82.87 66.45 95.47 66.45 89.17 55.54"/>
  <polyline class="cls-7" points="95.47 44.63 82.87 44.63 89.17 55.54 95.47 44.63"/>
  <polyline class="cls-7" points="70.28 44.63 57.68 44.63 63.98 55.54 70.28 44.63"/>
  <polyline class="cls-7" points="45.08 44.63 32.49 44.63 38.79 55.54 45.08 44.63"/>
  <polyline class="cls-7" points="19.89 44.63 7.3 44.63 13.6 55.54 19.89 44.63"/>
  <polyline class="cls-7" points="1 33.72 1 44.63 7.3 44.63 1 33.72"/>
  <polyline class="cls-7" points="26.19 33.72 19.89 44.63 32.49 44.63 26.19 33.72"/>
  <polyline class="cls-7" points="51.38 33.72 45.08 44.63 57.68 44.63 51.38 33.72"/>
  <polyline class="cls-7" points="76.57 33.72 70.28 44.63 82.87 44.63 76.57 33.72"/>
  <polyline class="cls-7" points="101.76 33.72 95.47 44.63 101.76 44.63 101.76 33.72"/>
  <polyline class="cls-7" points="101.76 22.82 95.47 22.82 101.76 33.72 101.76 22.82"/>
  <polyline class="cls-7" points="82.87 22.82 70.27 22.82 76.57 33.72 82.87 22.82"/>
  <polyline class="cls-7" points="57.68 22.82 45.08 22.82 51.38 33.72 57.68 22.82"/>
  <polyline class="cls-7" points="32.49 22.82 19.89 22.82 26.19 33.72 32.49 22.82"/>
  <polyline class="cls-7" points="7.3 22.82 1 22.82 1 33.72 7.3 22.82"/>
  <polyline class="cls-7" points="13.6 11.91 7.3 22.82 19.89 22.82 13.6 11.91"/>
  <polyline class="cls-7" points="38.79 11.91 32.49 22.82 45.09 22.82 38.79 11.91"/>
  <polyline class="cls-7" points="63.98 11.91 57.68 22.82 70.27 22.82 63.98 11.91"/>
  <polyline class="cls-7" points="89.17 11.91 82.87 22.82 95.47 22.82 89.17 11.91"/>
  <polyline class="cls-7" points="95.47 1 82.87 1 89.17 11.91 95.47 1"/>
  <polyline class="cls-7" points="70.28 1 57.68 1 63.98 11.91 70.28 1"/>
  <polyline class="cls-7" points="45.08 1 32.49 1 38.79 11.91 45.08 1"/>
  <polyline class="cls-7" points="19.89 1 7.3 1 13.6 11.91 19.89 1"/>
  <polyline class="cls-7" points="203.2 1 190.6 1 203.2 8.27 203.2 1"/>
  <polyline class="cls-7" points="215.8 1 203.2 1 203.2 8.27 215.8 1"/>
  <polyline class="cls-7" points="215.8 1 203.2 8.27 215.8 15.54 215.8 1"/>
  <polyline class="cls-7" points="203.2 8.27 203.2 22.82 215.8 15.55 203.2 8.27"/>
  <polyline class="cls-7" points="215.8 15.55 203.2 22.82 215.8 30.09 215.8 15.55"/>
  <polyline class="cls-7" points="215.8 30.09 203.2 37.36 215.8 44.63 215.8 30.09"/>
  <polyline class="cls-7" points="203.2 22.82 203.2 37.36 215.8 30.09 203.2 22.82"/>
  <polyline class="cls-7" points="203.2 22.82 190.6 30.09 203.2 37.36 203.2 22.82"/>
  <polyline class="cls-7" points="190.6 30.09 190.6 44.63 203.2 37.36 190.6 30.09"/>
  <polyline class="cls-7" points="215.8 59.18 203.2 66.45 215.8 73.72 215.8 59.18"/>
  <polyline class="cls-7" points="203.2 66.45 203.2 80.99 215.8 73.72 203.2 66.45"/>
  <polyline class="cls-7" points="203.2 80.99 190.6 88.26 203.2 88.26 203.2 80.99"/>
  <polyline class="cls-7" points="190.6 73.72 190.6 88.27 203.2 80.99 190.6 73.72"/>
  <polyline class="cls-7" points="203.2 66.45 190.6 73.72 203.2 80.99 203.2 66.45"/>
  <polyline class="cls-7" points="203.2 66.45 190.6 59.18 190.6 73.72 203.2 66.45"/>
  <polyline class="cls-7" points="190.6 59.18 178.01 66.45 190.6 73.72 190.6 59.18"/>
  <polyline class="cls-7" points="178.01 66.45 165.41 59.18 165.41 73.72 178.01 66.45"/>
  <polyline class="cls-7" points="178.01 51.9 165.41 59.18 178.01 66.45 178.01 51.9"/>
  <polyline class="cls-7" points="190.6 59.18 178.01 51.9 178.01 66.45 190.6 59.18"/>
  <polyline class="cls-7" points="190.6 44.63 178.01 51.9 190.6 59.18 190.6 44.63"/>
  <polyline class="cls-7" points="190.6 44.63 178.01 37.36 178.01 51.9 190.6 44.63"/>
  <polyline class="cls-7" points="190.6 30.09 178.01 37.36 190.6 44.63 190.6 30.09"/>
  <polyline class="cls-7" points="178.01 22.82 165.41 30.09 178.01 37.36 178.01 22.82"/>
  <polyline class="cls-7" points="178.01 22.82 178.01 37.36 190.6 30.09 178.01 22.82"/>
  <polyline class="cls-7" points="190.6 1 178.01 1 178.01 8.27 190.6 1"/>
  <polyline class="cls-7" points="178.01 1 165.41 1 178.01 8.27 178.01 1"/>
  <polyline class="cls-7" points="165.41 1 165.41 15.54 178.01 8.27 165.41 1"/>
  <polyline class="cls-7" points="178.01 8.27 165.41 15.55 178.01 22.82 178.01 8.27"/>
  <polyline class="cls-7" points="165.41 15.55 165.41 30.09 178.01 22.82 165.41 15.55"/>
  <polyline class="cls-7" points="165.41 15.55 152.82 22.82 165.41 30.09 165.41 15.55"/>
  <polyline class="cls-7" points="152.82 22.82 152.82 37.36 165.41 30.09 152.82 22.82"/>
  <polyline class="cls-7" points="152.82 51.9 140.22 59.18 152.82 66.45 152.82 51.9"/>
  <polyline class="cls-7" points="152.82 51.9 152.82 66.45 165.41 59.18 152.82 51.9"/>
  <polyline class="cls-7" points="165.41 59.18 152.82 66.45 165.41 73.72 165.41 59.18"/>
  <polyline class="cls-7" points="165.41 73.72 152.82 66.45 152.82 80.99 165.41 73.72"/>
  <polyline class="cls-7" points="165.41 73.72 152.82 80.99 165.41 88.27 165.41 73.72"/>
  <polyline class="cls-7" points="152.82 80.99 152.82 88.26 165.41 88.26 152.82 80.99"/>
  <polyline class="cls-7" points="152.82 80.99 140.22 88.26 152.82 88.26 152.82 80.99"/>
  <polyline class="cls-7" points="127.63 80.99 127.63 88.26 140.22 88.26 127.63 80.99"/>
  <polyline class="cls-7" points="127.63 80.99 115.03 88.26 127.63 88.26 127.63 80.99"/>
  <polyline class="cls-7" points="115.03 73.72 115.03 88.27 127.63 80.99 115.03 73.72"/>
  <polyline class="cls-7" points="127.63 66.45 115.03 73.72 127.63 80.99 127.63 66.45"/>
  <polyline class="cls-7" points="115.03 59.18 115.03 73.72 127.63 66.45 115.03 59.18"/>
  <polyline class="cls-7" points="127.63 51.9 115.03 59.18 127.63 66.45 127.63 51.9"/>
  <polyline class="cls-7" points="127.63 51.9 115.03 44.63 115.03 59.18 127.63 51.9"/>
  <polyline class="cls-7" points="127.63 51.9 127.63 66.45 140.22 59.18 127.63 51.9"/>
  <polyline class="cls-7" points="140.22 44.63 127.63 51.9 140.22 59.18 140.22 44.63"/>
  <polyline class="cls-7" points="152.82 51.9 140.22 44.63 140.22 59.18 152.82 51.9"/>
  <polyline class="cls-7" points="152.82 37.36 140.22 44.63 152.82 51.91 152.82 37.36"/>
  <polyline class="cls-7" points="140.22 30.09 140.22 44.63 152.82 37.36 140.22 30.09"/>
  <polyline class="cls-7" points="152.82 22.82 140.22 30.09 152.82 37.36 152.82 22.82"/>
  <polyline class="cls-7" points="152.82 22.82 140.22 15.55 140.22 30.09 152.82 22.82"/>
  <polyline class="cls-7" points="140.22 15.55 127.63 22.82 140.22 30.09 140.22 15.55"/>
  <polyline class="cls-7" points="115.03 15.55 115.03 30.09 127.63 22.82 115.03 15.55"/>
  <polyline class="cls-7" points="127.63 8.27 115.03 15.55 127.63 22.82 127.63 8.27"/>
  <polyline class="cls-7" points="127.63 8.27 127.63 22.82 140.22 15.55 127.63 8.27"/>
  <polyline class="cls-7" points="140.22 1 127.63 8.27 140.22 15.54 140.22 1"/>
  <polyline class="cls-7" points="140.22 1 127.63 1 127.63 8.27 140.22 1"/>
  <polyline class="cls-7" points="291.59 77.36 291.59 88.26 310.48 88.26 291.59 77.36"/>
  <polyline class="cls-7" points="310.48 66.45 291.59 77.36 310.48 88.27 310.48 66.45"/>
  <polyline class="cls-7" points="310.48 66.45 291.59 55.54 291.59 77.36 310.48 66.45"/>
  <polyline class="cls-7" points="310.48 44.63 291.59 55.54 310.48 66.45 310.48 44.63"/>
  <polyline class="cls-7" points="310.48 44.63 291.59 33.72 291.59 55.54 310.48 44.63"/>
  <polyline class="cls-7" points="310.48 22.82 291.59 33.72 310.48 44.63 310.48 22.82"/>
  <polyline class="cls-7" points="310.48 22.82 291.59 11.91 291.59 33.72 310.48 22.82"/>
  <polyline class="cls-7" points="310.48 1 291.59 11.91 310.48 22.82 310.48 1"/>
  <polyline class="cls-7" points="310.48 1 291.59 1 291.59 11.91 310.48 1"/>
  <polyline class="cls-7" points="269.77 77.36 250.88 88.26 269.77 88.26 269.77 77.36"/>
  <polyline class="cls-7" points="269.77 77.36 250.88 66.45 250.88 88.26 269.77 77.36"/>
  <polyline class="cls-7" points="269.77 55.54 250.88 66.45 269.77 77.36 269.77 55.54"/>
  <polyline class="cls-7" points="269.77 55.54 250.88 44.63 250.88 66.45 269.77 55.54"/>
  <polyline class="cls-7" points="269.77 33.72 250.88 44.63 269.77 55.54 269.77 33.72"/>
  <polyline class="cls-7" points="269.77 33.72 250.88 22.82 250.88 44.63 269.77 33.72"/>
  <polyline class="cls-7" points="269.77 11.91 250.88 22.82 269.77 33.72 269.77 11.91"/>
  <polyline class="cls-7" points="250.88 1 250.88 22.82 269.77 11.91 250.88 1"/>
  <polyline class="cls-7" points="269.77 1 250.88 1 269.77 11.91 269.77 1"/>
  <polyline class="cls-7" points="412.96 82.94 411.54 88.27 418.29 88.27 412.96 82.94"/>
  <polyline class="cls-7" points="427.51 79.04 412.96 82.94 418.29 88.27 425.04 88.27 427.51 79.04"/>
  <polyline class="cls-7" points="432.83 73.72 427.51 79.04 432.83 80.47 432.83 73.72"/>
  <polyline class="cls-7" points="432.83 66.97 423.61 64.5 427.51 79.04 432.83 73.72 432.83 66.97"/>
  <polyline class="cls-7" points="412.96 53.85 409.07 68.4 423.61 64.5 412.96 53.85"/>
  <polyline class="cls-7" points="427.51 49.96 412.96 53.85 423.61 64.5 427.51 49.96"/>
  <polyline class="cls-7" points="432.83 44.63 427.51 49.96 432.83 51.38 432.83 44.63"/>
  <polyline class="cls-7" points="432.83 37.88 423.61 35.41 427.51 49.96 432.83 44.63 432.83 37.88"/>
  <polyline class="cls-7" points="412.96 24.76 409.07 39.31 423.61 35.41 412.96 24.76"/>
  <polyline class="cls-7" points="427.51 20.87 412.96 24.76 423.61 35.41 427.51 20.87"/>
  <polyline class="cls-7" points="432.83 15.55 427.51 20.87 432.83 22.3 432.83 15.55"/>
  <polyline class="cls-7" points="432.83 8.8 423.61 6.32 427.51 20.87 432.83 15.54 432.83 8.8"/>
  <polyline class="cls-7" points="425.04 1 418.29 1 423.61 6.32 425.04 1"/>
  <polyline class="cls-7" points="418.29 1 411.54 1 409.07 10.22 423.61 6.32 418.29 1"/>
  <polyline class="cls-7" points="389.2 1 382.45 1 379.98 10.22 394.52 6.32 389.2 1"/>
  <polyline class="cls-7" points="395.95 1 389.2 1 394.52 6.32 395.95 1"/>
  <polyline class="cls-7" points="409.07 10.22 398.42 20.87 412.96 24.77 409.07 10.22"/>
  <polyline class="cls-7" points="409.07 10.22 394.52 6.32 398.42 20.87 409.07 10.22"/>
  <polyline class="cls-7" points="398.42 20.87 383.88 24.76 394.52 35.41 398.42 20.87"/>
  <polyline class="cls-7" points="383.88 24.76 379.98 39.31 394.52 35.41 383.88 24.76"/>
  <polyline class="cls-7" points="409.07 39.31 394.52 35.41 398.42 49.96 409.07 39.31"/>
  <polyline class="cls-7" points="409.07 39.31 398.42 49.96 412.96 53.85 409.07 39.31"/>
  <polyline class="cls-7" points="398.42 49.96 383.88 53.85 394.52 64.5 398.42 49.96"/>
  <polyline class="cls-7" points="383.88 53.85 379.98 68.4 394.52 64.5 383.88 53.85"/>
  <polyline class="cls-7" points="409.07 68.4 394.52 64.5 398.42 79.04 409.07 68.4"/>
  <polyline class="cls-7" points="409.07 68.4 398.42 79.04 412.96 82.94 409.07 68.4"/>
  <polyline class="cls-7" points="398.42 79.04 383.88 82.94 389.2 88.27 395.95 88.27 398.42 79.04"/>
  <polyline class="cls-7" points="383.88 82.94 382.45 88.27 389.2 88.27 383.88 82.94"/>
  <polyline class="cls-7" points="354.79 82.94 353.36 88.27 360.11 88.27 354.79 82.94"/>
  <polyline class="cls-7" points="369.33 79.04 354.79 82.94 360.11 88.27 366.86 88.27 369.33 79.04"/>
  <polyline class="cls-7" points="379.98 68.4 369.33 79.04 383.88 82.94 379.98 68.4"/>
  <polyline class="cls-7" points="379.98 68.4 365.44 64.5 369.33 79.04 379.98 68.4"/>
  <polyline class="cls-7" points="350.89 68.4 345.57 66.97 345.57 73.72 350.89 68.4"/>
  <polyline class="cls-7" points="350.89 68.4 345.57 73.72 345.57 80.47 354.79 82.94 350.89 68.4"/>
  <polyline class="cls-7" points="354.79 53.85 350.89 68.4 365.44 64.5 354.79 53.85"/>
  <polyline class="cls-7" points="369.33 49.96 354.79 53.85 365.44 64.5 369.33 49.96"/>
  <polyline class="cls-7" points="379.98 39.31 369.33 49.96 383.88 53.85 379.98 39.31"/>
  <polyline class="cls-7" points="379.98 39.31 365.44 35.41 369.33 49.96 379.98 39.31"/>
  <polyline class="cls-7" points="350.89 39.31 345.57 44.63 345.57 51.38 354.79 53.85 350.89 39.31"/>
  <polyline class="cls-7" points="350.89 39.31 345.57 37.88 345.57 44.63 350.89 39.31"/>
  <polyline class="cls-7" points="354.79 24.76 350.89 39.31 365.44 35.41 354.79 24.76"/>
  <polyline class="cls-7" points="350.89 10.22 345.57 8.8 345.57 15.55 350.89 10.22"/>
  <polyline class="cls-7" points="350.89 10.22 345.57 15.55 345.57 22.3 354.79 24.77 350.89 10.22"/>
  <polyline class="cls-7" points="369.33 20.87 354.79 24.76 365.44 35.41 369.33 20.87"/>
  <polyline class="cls-7" points="379.98 10.22 369.33 20.87 383.88 24.77 379.98 10.22"/>
  <polyline class="cls-7" points="379.98 10.22 365.44 6.32 369.33 20.87 379.98 10.22"/>
  <polyline class="cls-7" points="366.86 1 360.11 1 365.44 6.32 366.86 1"/>
  <polyline class="cls-7" points="360.11 1 353.36 1 350.89 10.22 365.44 6.32 360.11 1"/>
  <polyline class="cls-7" points="91.12 114.48 81.9 114.48 81.9 119.81 91.12 114.48"/>
  <polyline class="cls-7" points="96.44 123.7 87.22 129.03 96.44 134.35 96.44 123.7"/>
  <polyline class="cls-7" points="81.9 138.25 81.9 148.89 91.12 143.57 81.9 138.25"/>
  <polyline class="cls-7" points="96.44 152.79 87.22 158.11 96.44 163.44 96.44 152.79"/>
  <polyline class="cls-7" points="81.9 167.33 81.9 177.98 91.12 172.66 81.9 167.33"/>
  <polyline class="cls-7" points="96.44 181.88 87.22 187.2 96.44 192.52 96.44 181.88"/>
  <polyline class="cls-7" points="81.9 196.42 81.9 201.75 91.12 201.75 81.9 196.42"/>
  <polyline class="cls-7" points="71.25 196.42 62.03 201.75 71.25 201.75 71.25 196.42"/>
  <polyline class="cls-7" points="65.93 187.2 56.71 181.88 56.71 192.52 65.93 187.2"/>
  <polyline class="cls-7" points="71.25 167.33 62.03 172.66 71.25 177.98 71.25 167.33"/>
  <polyline class="cls-7" points="56.71 152.79 56.71 163.44 65.93 158.11 56.71 152.79"/>
  <polyline class="cls-7" points="71.25 138.25 62.03 143.57 71.25 148.89 71.25 138.25"/>
  <polyline class="cls-7" points="56.71 123.7 56.71 134.35 65.93 129.03 56.71 123.7"/>
  <polyline class="cls-7" points="71.25 114.48 62.03 114.48 71.25 119.81 71.25 114.48"/>
  <polyline class="cls-7" points="40.73 114.48 31.51 114.48 31.51 119.81 40.73 114.48"/>
  <polyline class="cls-7" points="46.06 123.7 36.84 129.03 46.06 134.35 46.06 123.7"/>
  <polyline class="cls-7" points="31.51 138.25 31.51 148.89 40.73 143.57 31.51 138.25"/>
  <polyline class="cls-7" points="46.06 152.79 36.84 158.11 46.06 163.44 46.06 152.79"/>
  <polyline class="cls-7" points="40.73 172.66 31.51 167.33 31.51 177.98 40.73 172.66"/>
  <polyline class="cls-7" points="46.06 181.88 36.84 187.2 46.06 192.52 46.06 181.88"/>
  <polyline class="cls-7" points="31.51 196.42 31.51 201.75 40.73 201.75 31.51 196.42"/>
  <polyline class="cls-7" points="20.87 196.42 11.65 201.75 20.87 201.75 20.87 196.42"/>
  <polyline class="cls-7" points="6.32 181.88 6.32 192.52 15.54 187.2 6.32 181.88"/>
  <polyline class="cls-7" points="20.87 167.33 11.65 172.66 20.87 177.98 20.87 167.33"/>
  <polyline class="cls-7" points="6.32 152.79 6.32 163.44 15.54 158.11 6.32 152.79"/>
  <polyline class="cls-7" points="20.87 138.25 11.65 143.57 20.87 148.89 20.87 138.25"/>
  <polyline class="cls-7" points="6.32 123.7 6.32 134.35 15.54 129.03 6.32 123.7"/>
  <polyline class="cls-7" points="20.87 114.48 11.65 114.48 20.87 119.81 20.87 114.48"/>
  <polyline class="cls-7" points="299.54 183.31 286.04 183.31 292.78 195 299.54 183.31"/>
  <polyline class="cls-7" points="317.98 164.86 311.23 176.56 317.98 176.56 317.98 164.86"/>
  <polyline class="cls-7" points="317.98 139.67 311.23 139.67 317.98 151.37 317.98 139.67"/>
  <polyline class="cls-7" points="292.78 121.23 286.03 132.92 299.53 132.92 292.78 121.23"/>
  <polyline class="cls-7" points="274.34 139.67 260.84 139.67 267.59 151.37 274.34 139.67"/>
  <polyline class="cls-7" points="267.59 164.86 260.84 176.56 274.34 176.56 267.59 164.86"/>
  <polyline class="cls-7" points="249.15 183.31 235.65 183.31 242.4 195 249.15 183.31"/>
  <polyline class="cls-7" points="217.21 164.86 217.21 176.56 223.96 176.56 217.21 164.86"/>
  <polyline class="cls-7" points="223.96 139.67 217.21 139.67 217.21 151.37 223.96 139.67"/>
  <polyline class="cls-7" points="242.4 121.23 235.65 132.92 249.15 132.92 242.4 121.23"/>
  <line class="cls-3" x1="46.06" y1="123.7" x2="36.84" y2="129.03"/>
  <line class="cls-3" x1="46.06" y1="134.35" x2="46.06" y2="123.7"/>
  <line class="cls-3" x1="31.51" y1="119.81" x2="36.84" y2="129.03"/>
  <line class="cls-3" x1="15.54" y1="129.03" x2="20.87" y2="119.81"/>
  <polyline class="cls-3" points="15.54 129.03 6.32 123.7 6.32 134.35"/>
  <line class="cls-3" x1="1" y1="134.35" x2="6.32" y2="134.35"/>
  <line class="cls-3" x1="6.32" y1="152.79" x2="1" y2="152.79"/>
  <line class="cls-3" x1="1" y1="163.44" x2="6.32" y2="163.44"/>
  <line class="cls-3" x1="6.32" y1="181.88" x2="1" y2="181.88"/>
  <line class="cls-3" x1="1" y1="192.53" x2="6.32" y2="192.53"/>
  <line class="cls-3" x1="36.84" y1="129.03" x2="46.06" y2="134.35"/>
  <polyline class="cls-3" points="46.06 152.79 36.84 158.11 46.06 163.44"/>
  <polyline class="cls-3" points="31.51 148.89 40.73 143.57 31.51 138.25"/>
  <polyline class="cls-3" points="46.06 181.88 36.84 187.2 46.06 192.53"/>
  <line class="cls-3" x1="40.73" y1="201.75" x2="31.51" y2="196.42"/>
  <line class="cls-3" x1="40.73" y1="172.66" x2="31.51" y2="167.33"/>
  <polyline class="cls-3" points="31.51 177.98 40.73 172.66 46.06 163.44"/>
  <polyline class="cls-3" points="40.73 201.75 46.06 192.53 51.38 192.53"/>
  <line class="cls-3" x1="51.38" y1="181.88" x2="46.06" y2="181.88"/>
  <polyline class="cls-3" points="46.06 192.53 46.06 181.88 40.73 172.66"/>
  <line class="cls-3" x1="46.06" y1="152.79" x2="40.73" y2="143.57"/>
  <line class="cls-3" x1="51.38" y1="152.79" x2="46.06" y2="152.79"/>
  <line class="cls-3" x1="46.06" y1="163.44" x2="51.38" y2="163.44"/>
  <line class="cls-3" x1="46.06" y1="163.44" x2="46.06" y2="152.79"/>
  <line class="cls-3" x1="46.06" y1="134.35" x2="51.38" y2="134.35"/>
  <line class="cls-3" x1="40.73" y1="143.57" x2="46.06" y2="134.35"/>
  <line class="cls-3" x1="6.32" y1="163.44" x2="11.65" y2="172.66"/>
  <line class="cls-3" x1="20.87" y1="167.33" x2="11.65" y2="172.66"/>
  <line class="cls-3" x1="20.87" y1="177.98" x2="20.87" y2="167.33"/>
  <line class="cls-3" x1="31.51" y1="167.33" x2="31.51" y2="177.98"/>
  <line class="cls-3" x1="15.54" y1="187.2" x2="20.87" y2="177.98"/>
  <line class="cls-3" x1="20.87" y1="196.42" x2="15.54" y2="187.2"/>
  <line class="cls-3" x1="20.87" y1="196.42" x2="11.65" y2="201.75"/>
  <line class="cls-3" x1="11.65" y1="172.66" x2="20.87" y2="177.98"/>
  <polyline class="cls-3" points="36.84 187.2 31.51 196.42 20.87 196.42"/>
  <line class="cls-3" x1="31.51" y1="196.42" x2="31.51" y2="201.75"/>
  <line class="cls-3" x1="20.87" y1="201.75" x2="20.87" y2="196.42"/>
  <polyline class="cls-3" points="20.87 177.98 31.51 177.98 36.84 187.2"/>
  <line class="cls-3" x1="6.32" y1="192.53" x2="11.65" y2="201.75"/>
  <line class="cls-3" x1="11.65" y1="172.66" x2="6.32" y2="181.88"/>
  <line class="cls-3" x1="15.54" y1="187.2" x2="6.32" y2="181.88"/>
  <line class="cls-3" x1="6.32" y1="192.53" x2="15.54" y2="187.2"/>
  <line class="cls-3" x1="6.32" y1="181.88" x2="6.32" y2="192.53"/>
  <line class="cls-3" x1="15.54" y1="129.03" x2="20.87" y2="138.25"/>
  <line class="cls-3" x1="15.54" y1="158.11" x2="20.87" y2="148.89"/>
  <line class="cls-3" x1="20.87" y1="167.33" x2="15.54" y2="158.11"/>
  <polyline class="cls-3" points="20.87 138.25 11.64 143.57 20.87 148.89"/>
  <line class="cls-3" x1="31.51" y1="148.89" x2="36.84" y2="158.11"/>
  <line class="cls-3" x1="31.51" y1="167.33" x2="20.87" y2="167.33"/>
  <line class="cls-3" x1="36.84" y1="158.11" x2="31.51" y2="167.33"/>
  <line class="cls-3" x1="20.87" y1="148.89" x2="31.51" y2="148.89"/>
  <line class="cls-3" x1="31.51" y1="138.25" x2="20.87" y2="138.25"/>
  <polyline class="cls-3" points="36.84 129.03 31.51 138.25 31.51 148.89"/>
  <line class="cls-3" x1="20.87" y1="148.89" x2="20.87" y2="138.25"/>
  <line class="cls-3" x1="11.64" y1="143.57" x2="6.32" y2="152.79"/>
  <line class="cls-3" x1="15.54" y1="158.11" x2="6.32" y2="152.79"/>
  <line class="cls-3" x1="6.32" y1="163.44" x2="15.54" y2="158.11"/>
  <line class="cls-3" x1="6.32" y1="152.79" x2="6.32" y2="163.44"/>
  <line class="cls-3" x1="6.32" y1="134.35" x2="11.64" y2="143.57"/>
  <line class="cls-3" x1="6.32" y1="134.35" x2="15.54" y2="129.03"/>
  <line class="cls-3" x1="6.32" y1="123.7" x2="1" y2="123.7"/>
  <line class="cls-3" x1="31.51" y1="119.81" x2="40.73" y2="114.48"/>
  <polyline class="cls-3" points="51.38 123.7 46.06 123.7 40.73 114.48"/>
  <polyline class="cls-3" points="11.64 114.48 20.86 119.81 31.51 119.81"/>
  <line class="cls-3" x1="31.51" y1="114.48" x2="31.51" y2="119.81"/>
  <line class="cls-3" x1="20.86" y1="119.81" x2="20.86" y2="114.48"/>
  <line class="cls-3" x1="11.64" y1="114.48" x2="6.32" y2="123.7"/>
  <line class="cls-3" x1="91.11" y1="114.48" x2="81.89" y2="119.81"/>
  <line class="cls-3" x1="91.11" y1="143.57" x2="81.89" y2="148.89"/>
  <line class="cls-3" x1="81.89" y1="138.25" x2="91.11" y2="143.57"/>
  <polyline class="cls-3" points="81.89 167.33 87.22 158.11 81.89 148.89"/>
  <line class="cls-3" x1="87.22" y1="129.03" x2="81.89" y2="138.25"/>
  <line class="cls-3" x1="91.11" y1="172.66" x2="81.89" y2="177.98"/>
  <line class="cls-3" x1="81.89" y1="196.42" x2="91.11" y2="201.75"/>
  <polyline class="cls-3" points="81.89 196.42 87.22 187.2 81.89 177.98"/>
  <line class="cls-3" x1="81.89" y1="167.33" x2="91.11" y2="172.66"/>
  <line class="cls-3" x1="87.22" y1="129.03" x2="81.89" y2="119.81"/>
  <line class="cls-3" x1="71.24" y1="177.98" x2="65.92" y2="187.2"/>
  <polyline class="cls-3" points="56.7 192.53 56.7 181.88 65.92 187.2"/>
  <line class="cls-3" x1="81.89" y1="201.75" x2="81.89" y2="196.42"/>
  <line class="cls-3" x1="71.25" y1="196.42" x2="71.25" y2="201.75"/>
  <line class="cls-3" x1="71.25" y1="196.42" x2="81.89" y2="196.42"/>
  <line class="cls-3" x1="65.92" y1="187.2" x2="71.25" y2="196.42"/>
  <line class="cls-3" x1="56.7" y1="192.53" x2="51.38" y2="192.53"/>
  <line class="cls-3" x1="62.02" y1="201.75" x2="56.7" y2="192.53"/>
  <line class="cls-3" x1="62.02" y1="201.75" x2="71.24" y2="196.42"/>
  <line class="cls-3" x1="65.92" y1="187.2" x2="56.7" y2="192.53"/>
  <line class="cls-3" x1="81.89" y1="148.89" x2="81.89" y2="138.25"/>
  <line class="cls-3" x1="71.24" y1="138.25" x2="71.24" y2="148.89"/>
  <line class="cls-3" x1="62.02" y1="143.57" x2="56.7" y2="134.35"/>
  <line class="cls-3" x1="62.02" y1="143.57" x2="71.24" y2="138.25"/>
  <line class="cls-3" x1="81.89" y1="148.89" x2="71.25" y2="148.89"/>
  <polyline class="cls-3" points="65.92 158.11 71.25 167.33 81.89 167.33"/>
  <line class="cls-3" x1="71.25" y1="148.89" x2="65.92" y2="158.11"/>
  <line class="cls-3" x1="81.89" y1="177.98" x2="71.25" y2="177.98"/>
  <line class="cls-3" x1="71.25" y1="167.33" x2="71.25" y2="177.98"/>
  <line class="cls-3" x1="81.89" y1="177.98" x2="81.89" y2="167.33"/>
  <line class="cls-3" x1="56.7" y1="163.44" x2="56.7" y2="152.79"/>
  <line class="cls-3" x1="56.7" y1="163.44" x2="51.38" y2="163.44"/>
  <polyline class="cls-3" points="51.38 152.79 56.7 152.79 62.02 143.57"/>
  <line class="cls-3" x1="56.7" y1="181.88" x2="62.02" y2="172.66"/>
  <line class="cls-3" x1="51.38" y1="181.88" x2="56.7" y2="181.88"/>
  <line class="cls-3" x1="62.02" y1="172.66" x2="56.7" y2="163.44"/>
  <polyline class="cls-3" points="71.24 177.98 62.02 172.66 71.24 167.33"/>
  <line class="cls-3" x1="71.24" y1="148.89" x2="62.02" y2="143.57"/>
  <line class="cls-3" x1="65.92" y1="158.11" x2="56.7" y2="163.44"/>
  <line class="cls-3" x1="56.7" y1="152.79" x2="65.92" y2="158.11"/>
  <line class="cls-3" x1="81.89" y1="119.81" x2="81.89" y2="114.48"/>
  <line class="cls-3" x1="71.24" y1="114.48" x2="71.24" y2="119.81"/>
  <line class="cls-3" x1="81.89" y1="119.81" x2="71.24" y2="119.81"/>
  <line class="cls-3" x1="56.7" y1="123.7" x2="62.02" y2="114.48"/>
  <line class="cls-3" x1="51.38" y1="123.7" x2="56.7" y2="123.7"/>
  <line class="cls-3" x1="71.24" y1="119.81" x2="62.02" y2="114.48"/>
  <polyline class="cls-3" points="65.92 129.03 71.24 138.25 81.89 138.25"/>
  <line class="cls-3" x1="56.7" y1="134.35" x2="51.38" y2="134.35"/>
  <line class="cls-3" x1="65.92" y1="129.03" x2="56.7" y2="134.35"/>
  <line class="cls-3" x1="71.24" y1="119.81" x2="65.92" y2="129.03"/>
  <polyline class="cls-3" points="56.7 134.35 56.7 123.7 65.92 129.03"/>
  <line class="cls-3" x1="96.44" y1="181.88" x2="96.44" y2="192.53"/>
  <line class="cls-3" x1="87.22" y1="187.2" x2="96.44" y2="181.88"/>
  <line class="cls-3" x1="96.44" y1="192.53" x2="87.22" y2="187.2"/>
  <line class="cls-3" x1="96.44" y1="192.53" x2="91.11" y2="201.75"/>
  <line class="cls-3" x1="101.76" y1="192.53" x2="96.44" y2="192.53"/>
  <line class="cls-3" x1="96.44" y1="134.35" x2="91.11" y2="143.57"/>
  <polyline class="cls-3" points="96.44 152.79 96.44 163.44 87.22 158.11 96.44 152.79"/>
  <line class="cls-3" x1="91.11" y1="143.57" x2="96.44" y2="152.79"/>
  <line class="cls-3" x1="91.11" y1="172.66" x2="96.44" y2="181.88"/>
  <line class="cls-3" x1="96.44" y1="163.44" x2="91.11" y2="172.66"/>
  <line class="cls-3" x1="96.44" y1="181.88" x2="101.76" y2="181.88"/>
  <line class="cls-3" x1="101.76" y1="163.44" x2="96.44" y2="163.44"/>
  <line class="cls-3" x1="96.44" y1="152.79" x2="101.76" y2="152.79"/>
  <polyline class="cls-3" points="91.11 114.48 96.44 123.7 101.76 123.7"/>
  <line class="cls-3" x1="96.44" y1="134.35" x2="87.22" y2="129.03"/>
  <line class="cls-3" x1="101.76" y1="134.35" x2="96.44" y2="134.35"/>
  <line class="cls-3" x1="96.44" y1="123.7" x2="96.44" y2="134.35"/>
  <line class="cls-3" x1="87.22" y1="129.03" x2="96.44" y2="123.7"/>
  <line class="cls-3" x1="19.89" y1="66.45" x2="7.29" y2="66.45"/>
  <line class="cls-3" x1="13.59" y1="88.27" x2="7.29" y2="88.27"/>
  <polyline class="cls-3" points="13.59 11.91 7.29 22.82 19.89 22.82"/>
  <line class="cls-3" x1="7.29" y1="1" x2="13.59" y2="11.91"/>
  <line class="cls-3" x1="7.29" y1="44.63" x2="13.59" y2="55.54"/>
  <line class="cls-3" x1="19.89" y1="44.63" x2="7.29" y2="44.63"/>
  <line class="cls-3" x1="13.59" y1="55.54" x2="7.29" y2="66.45"/>
  <line class="cls-3" x1="7.29" y1="88.27" x2=".99" y2="77.36"/>
  <line class="cls-3" x1=".99" y1="66.45" x2="7.29" y2="66.45"/>
  <line class="cls-3" x1=".99" y1="77.36" x2="7.29" y2="66.45"/>
  <line class="cls-3" x1="7.29" y1="44.63" x2=".99" y2="33.72"/>
  <line class="cls-3" x1=".99" y1="44.63" x2="7.29" y2="44.63"/>
  <line class="cls-3" x1="7.29" y1="22.82" x2=".99" y2="22.82"/>
  <line class="cls-3" x1=".99" y1="33.72" x2="7.29" y2="22.82"/>
  <line class="cls-3" x1="63.97" y1="11.91" x2="57.68" y2="22.82"/>
  <line class="cls-3" x1="70.27" y1="22.82" x2="63.97" y2="11.91"/>
  <line class="cls-3" x1="89.16" y1="11.91" x2="82.87" y2="22.82"/>
  <line class="cls-3" x1="95.46" y1="22.82" x2="89.16" y2="11.91"/>
  <line class="cls-3" x1="38.78" y1="11.91" x2="32.49" y2="22.82"/>
  <line class="cls-3" x1="45.08" y1="22.82" x2="38.78" y2="11.91"/>
  <line class="cls-3" x1="19.89" y1="22.82" x2="13.59" y2="11.91"/>
  <line class="cls-3" x1="70.27" y1="66.45" x2="82.87" y2="66.45"/>
  <line class="cls-3" x1="76.57" y1="77.36" x2="82.87" y2="66.45"/>
  <polyline class="cls-3" points="70.27 88.27 82.87 88.27 76.57 77.36"/>
  <line class="cls-3" x1="82.87" y1="22.82" x2="70.27" y2="22.82"/>
  <line class="cls-3" x1="76.57" y1="33.73" x2="82.87" y2="22.82"/>
  <polyline class="cls-3" points="70.27 44.64 82.87 44.64 76.57 33.73"/>
  <line class="cls-3" x1="45.08" y1="66.45" x2="32.49" y2="66.45"/>
  <line class="cls-3" x1="45.08" y1="88.27" x2="32.49" y2="88.27"/>
  <line class="cls-3" x1="38.78" y1="55.54" x2="45.08" y2="44.64"/>
  <line class="cls-3" x1="45.08" y1="66.45" x2="38.78" y2="55.54"/>
  <line class="cls-3" x1="45.08" y1="44.64" x2="32.49" y2="44.64"/>
  <line class="cls-3" x1="32.49" y1="22.82" x2="45.08" y2="22.82"/>
  <line class="cls-3" x1="38.78" y1="55.54" x2="32.49" y2="66.45"/>
  <line class="cls-3" x1="19.89" y1="66.45" x2="13.59" y2="55.54"/>
  <line class="cls-3" x1="19.89" y1="66.45" x2="26.19" y2="66.45"/>
  <line class="cls-3" x1="19.89" y1="66.45" x2="26.19" y2="77.36"/>
  <line class="cls-3" x1="19.89" y1="88.27" x2="32.49" y2="88.27"/>
  <polyline class="cls-3" points="26.19 77.36 19.89 88.27 13.6 88.27"/>
  <line class="cls-3" x1="32.49" y1="88.27" x2="26.19" y2="77.36"/>
  <line class="cls-3" x1="26.19" y1="66.45" x2="32.49" y2="66.45"/>
  <line class="cls-3" x1="26.19" y1="77.36" x2="32.49" y2="66.45"/>
  <line class="cls-3" x1="19.89" y1="22.82" x2="26.19" y2="33.72"/>
  <line class="cls-3" x1="26.19" y1="22.82" x2="19.89" y2="22.82"/>
  <polyline class="cls-3" points="26.19 33.72 19.89 44.63 26.19 44.63"/>
  <line class="cls-3" x1="13.6" y1="55.54" x2="19.89" y2="44.63"/>
  <line class="cls-3" x1="32.49" y1="44.63" x2="26.19" y2="33.72"/>
  <line class="cls-3" x1="32.49" y1="44.63" x2="38.79" y2="55.54"/>
  <line class="cls-3" x1="26.19" y1="44.63" x2="32.49" y2="44.63"/>
  <line class="cls-3" x1="32.49" y1="22.82" x2="26.19" y2="22.82"/>
  <line class="cls-3" x1="26.19" y1="33.72" x2="32.49" y2="22.82"/>
  <line class="cls-3" x1="63.98" y1="55.54" x2="57.68" y2="66.45"/>
  <line class="cls-3" x1="70.27" y1="66.45" x2="63.98" y2="55.54"/>
  <line class="cls-3" x1="70.27" y1="66.45" x2="57.68" y2="66.45"/>
  <polyline class="cls-3" points="70.27 88.26 57.68 88.26 51.38 77.36 45.08 88.26"/>
  <line class="cls-3" x1="57.68" y1="88.26" x2="45.08" y2="88.26"/>
  <line class="cls-3" x1="45.08" y1="66.45" x2="57.68" y2="66.45"/>
  <line class="cls-3" x1="51.38" y1="77.36" x2="57.68" y2="66.45"/>
  <line class="cls-3" x1="45.08" y1="66.45" x2="51.38" y2="77.36"/>
  <line class="cls-3" x1="76.57" y1="77.36" x2="70.27" y2="88.26"/>
  <line class="cls-3" x1="70.27" y1="66.45" x2="76.57" y2="77.36"/>
  <line class="cls-3" x1="57.68" y1="44.63" x2="63.97" y2="55.54"/>
  <line class="cls-3" x1="70.27" y1="44.63" x2="57.68" y2="44.63"/>
  <line class="cls-3" x1="70.27" y1="22.82" x2="57.68" y2="22.82"/>
  <line class="cls-3" x1="51.38" y1="33.72" x2="45.08" y2="44.63"/>
  <line class="cls-3" x1="57.68" y1="44.63" x2="51.38" y2="33.72"/>
  <line class="cls-3" x1="45.08" y1="44.63" x2="57.68" y2="44.63"/>
  <polyline class="cls-3" points="51.38 33.72 57.68 22.82 45.08 22.82 51.38 33.72"/>
  <line class="cls-3" x1="76.57" y1="33.72" x2="70.27" y2="44.63"/>
  <line class="cls-3" x1="63.98" y1="55.54" x2="70.27" y2="44.63"/>
  <line class="cls-3" x1="70.27" y1="22.82" x2="76.57" y2="33.72"/>
  <polyline class="cls-3" points="95.46 66.45 89.17 55.54 82.87 66.45"/>
  <line class="cls-3" x1="95.46" y1="66.45" x2="101.76" y2="66.45"/>
  <line class="cls-3" x1="95.46" y1="66.45" x2="101.76" y2="77.36"/>
  <line class="cls-3" x1="95.46" y1="88.26" x2="101.76" y2="88.26"/>
  <polyline class="cls-3" points="101.76 77.36 95.46 88.26 89.17 88.26 82.87 88.26"/>
  <line class="cls-3" x1="95.46" y1="66.45" x2="82.87" y2="66.45"/>
  <line class="cls-3" x1="95.46" y1="22.82" x2="101.76" y2="33.72"/>
  <line class="cls-3" x1="95.46" y1="44.63" x2="101.76" y2="44.63"/>
  <line class="cls-3" x1="101.76" y1="33.72" x2="95.46" y2="44.63"/>
  <line class="cls-3" x1="101.76" y1="22.82" x2="95.46" y2="22.82"/>
  <line class="cls-3" x1="95.46" y1="44.63" x2="82.87" y2="44.63"/>
  <line class="cls-3" x1="89.17" y1="55.54" x2="95.46" y2="44.63"/>
  <line class="cls-3" x1="82.87" y1="44.63" x2="89.17" y2="55.54"/>
  <line class="cls-3" x1="82.87" y1="22.82" x2="95.46" y2="22.82"/>
  <line class="cls-3" x1="38.79" y1="11.91" x2="45.08" y2="1"/>
  <line class="cls-3" x1="13.59" y1="11.91" x2="19.89" y2="1"/>
  <line class="cls-3" x1="32.49" y1="1" x2="38.78" y2="11.91"/>
  <polyline class="cls-3" points="57.68 1 63.97 11.91 70.27 1"/>
  <line class="cls-3" x1="89.17" y1="11.91" x2="95.46" y2="1"/>
  <line class="cls-3" x1="82.87" y1="1" x2="89.17" y2="11.91"/>
  <polyline class="cls-3" points="165.51 201.74 174.03 193.23 174.03 181.18 165.51 172.66 153.46 172.66 144.94 181.18 144.94 193.23 153.46 201.74"/>
  <polyline class="cls-3" points="153.46 172.66 165.51 172.66 174.03 164.14 174.03 152.09 165.51 143.57 153.46 143.57 144.94 152.09 144.94 164.14 153.46 172.66"/>
  <polyline class="cls-3" points="153.46 143.57 165.51 143.57 174.03 135.05 174.03 123 165.51 114.48"/>
  <polyline class="cls-3" points="153.46 114.48 144.94 123 144.94 135.05 153.46 143.57"/>
  <polyline class="cls-3" points="124.37 201.74 136.42 201.74 144.94 193.23 144.94 181.18 136.42 172.66 124.37 172.66 115.85 181.18"/>
  <line class="cls-3" x1="115.85" y1="193.23" x2="124.37" y2="201.74"/>
  <polyline class="cls-3" points="124.37 172.66 136.42 172.66 144.94 164.14 144.94 152.09 136.42 143.57 124.37 143.57 115.85 152.09"/>
  <line class="cls-3" x1="115.85" y1="164.14" x2="124.37" y2="172.66"/>
  <polyline class="cls-3" points="124.37 143.57 136.42 143.57 144.94 135.05 144.94 123 136.42 114.48"/>
  <line class="cls-3" x1="124.37" y1="114.48" x2="115.85" y2="123"/>
  <line class="cls-3" x1="115.85" y1="135.05" x2="124.37" y2="143.57"/>
  <line class="cls-3" x1="194.6" y1="201.74" x2="203.12" y2="193.23"/>
  <polyline class="cls-3" points="203.12 181.18 194.6 172.66 182.55 172.66 174.03 181.18 174.03 193.23 182.55 201.74"/>
  <polyline class="cls-3" points="182.55 172.66 194.6 172.66 203.12 164.14"/>
  <polyline class="cls-3" points="203.12 152.09 194.6 143.57 182.55 143.57 174.03 152.09 174.03 164.14 182.55 172.66"/>
  <polyline class="cls-3" points="182.55 143.57 194.6 143.57 203.12 135.05"/>
  <line class="cls-3" x1="203.12" y1="123" x2="194.6" y2="114.48"/>
  <polyline class="cls-3" points="182.55 114.48 174.03 123 174.03 135.05 182.55 143.57"/>
  <line class="cls-3" x1="249.15" y1="183.3" x2="235.65" y2="183.3"/>
  <line class="cls-3" x1="242.4" y1="194.99" x2="249.15" y2="183.3"/>
  <polyline class="cls-3" points="235.65 132.92 249.15 132.92 242.4 121.23"/>
  <line class="cls-3" x1="292.78" y1="194.99" x2="299.53" y2="183.3"/>
  <line class="cls-3" x1="286.03" y1="183.3" x2="292.78" y2="194.99"/>
  <line class="cls-3" x1="292.78" y1="201.74" x2="292.78" y2="194.99"/>
  <line class="cls-3" x1="260.84" y1="139.67" x2="267.59" y2="151.36"/>
  <line class="cls-3" x1="311.23" y1="139.67" x2="317.98" y2="151.36"/>
  <line class="cls-3" x1="267.59" y1="151.36" x2="274.34" y2="139.67"/>
  <line class="cls-3" x1="299.53" y1="183.3" x2="286.03" y2="183.3"/>
  <line class="cls-3" x1="317.98" y1="164.86" x2="311.23" y2="176.55"/>
  <line class="cls-3" x1="317.98" y1="176.55" x2="311.23" y2="176.55"/>
  <line class="cls-3" x1="299.53" y1="183.3" x2="311.23" y2="176.55"/>
  <line class="cls-3" x1="260.84" y1="176.55" x2="267.59" y2="164.86"/>
  <line class="cls-3" x1="274.34" y1="176.55" x2="267.59" y2="164.86"/>
  <polyline class="cls-3" points="260.84 176.55 274.34 176.55 286.03 183.3"/>
  <line class="cls-3" x1="260.84" y1="176.55" x2="249.15" y2="183.3"/>
  <line class="cls-3" x1="267.59" y1="151.36" x2="267.59" y2="164.86"/>
  <polyline class="cls-3" points="286.03 132.92 299.53 132.92 292.78 121.23"/>
  <polyline class="cls-3" points="317.98 139.67 311.23 139.67 299.53 132.92"/>
  <line class="cls-3" x1="292.78" y1="121.23" x2="286.03" y2="132.92"/>
  <line class="cls-3" x1="274.34" y1="139.67" x2="260.84" y2="139.67"/>
  <line class="cls-3" x1="274.34" y1="139.67" x2="286.03" y2="132.92"/>
  <line class="cls-3" x1="249.15" y1="132.92" x2="260.84" y2="139.67"/>
  <line class="cls-3" x1="292.78" y1="121.23" x2="292.78" y2="114.48"/>
  <polyline class="cls-3" points="235.65 183.3 242.4 194.99 242.4 201.74"/>
  <line class="cls-3" x1="217.21" y1="151.36" x2="223.96" y2="139.67"/>
  <line class="cls-3" x1="217.21" y1="164.86" x2="223.96" y2="176.55"/>
  <line class="cls-3" x1="217.21" y1="176.55" x2="223.96" y2="176.55"/>
  <line class="cls-3" x1="235.65" y1="183.3" x2="223.96" y2="176.55"/>
  <line class="cls-3" x1="242.4" y1="121.23" x2="235.65" y2="132.92"/>
  <line class="cls-3" x1="223.96" y1="139.67" x2="217.21" y2="139.67"/>
  <line class="cls-3" x1="223.96" y1="139.67" x2="235.65" y2="132.92"/>
  <line class="cls-3" x1="242.4" y1="114.48" x2="242.4" y2="121.23"/>
  <line class="cls-3" x1="350.89" y1="10.22" x2="345.57" y2="8.79"/>
  <line class="cls-3" x1="345.57" y1="22.29" x2="354.79" y2="24.76"/>
  <line class="cls-3" x1="345.57" y1="15.54" x2="350.89" y2="10.22"/>
  <line class="cls-3" x1="350.89" y1="39.31" x2="345.57" y2="37.88"/>
  <line class="cls-3" x1="345.57" y1="51.38" x2="354.79" y2="53.85"/>
  <line class="cls-3" x1="345.57" y1="44.63" x2="350.89" y2="39.31"/>
  <polyline class="cls-3" points="345.57 73.72 350.89 68.4 345.57 66.97"/>
  <line class="cls-3" x1="345.57" y1="80.47" x2="354.79" y2="82.94"/>
  <polyline class="cls-3" points="432.83 8.79 423.61 6.32 427.51 20.87"/>
  <line class="cls-3" x1="411.53" y1="1" x2="409.07" y2="10.22"/>
  <line class="cls-3" x1="423.61" y1="6.32" x2="409.07" y2="10.22"/>
  <line class="cls-3" x1="394.52" y1="6.32" x2="398.42" y2="20.87"/>
  <polyline class="cls-3" points="382.45 1 379.98 10.22 394.52 6.32"/>
  <line class="cls-3" x1="369.33" y1="20.87" x2="365.43" y2="6.32"/>
  <polyline class="cls-3" points="353.36 1 350.89 10.22 365.43 6.32 379.98 10.22"/>
  <line class="cls-3" x1="409.07" y1="10.22" x2="394.52" y2="6.32"/>
  <line class="cls-3" x1="398.42" y1="20.87" x2="383.87" y2="24.76"/>
  <polyline class="cls-3" points="394.52 35.41 398.42 49.95 383.87 53.85"/>
  <line class="cls-3" x1="395.95" y1="88.26" x2="398.42" y2="79.04"/>
  <polyline class="cls-3" points="394.52 64.5 398.42 79.04 383.87 82.94"/>
  <line class="cls-3" x1="398.42" y1="49.95" x2="394.52" y2="64.5"/>
  <line class="cls-3" x1="394.52" y1="35.41" x2="398.42" y2="20.87"/>
  <line class="cls-3" x1="409.07" y1="68.4" x2="394.52" y2="64.5"/>
  <line class="cls-3" x1="394.52" y1="35.41" x2="409.07" y2="39.31"/>
  <polyline class="cls-3" points="394.52 64.5 383.87 53.85 379.98 68.4"/>
  <line class="cls-3" x1="365.43" y1="64.5" x2="369.33" y2="49.95"/>
  <polyline class="cls-3" points="365.43 64.5 354.79 53.85 350.89 68.4"/>
  <line class="cls-3" x1="369.33" y1="79.04" x2="383.88" y2="82.94"/>
  <line class="cls-3" x1="369.33" y1="79.04" x2="379.98" y2="68.4"/>
  <line class="cls-3" x1="365.44" y1="64.5" x2="379.98" y2="68.4"/>
  <line class="cls-3" x1="354.79" y1="82.94" x2="369.33" y2="79.04"/>
  <line class="cls-3" x1="365.44" y1="64.5" x2="350.89" y2="68.4"/>
  <line class="cls-3" x1="354.79" y1="82.94" x2="350.89" y2="68.4"/>
  <line class="cls-3" x1="354.79" y1="82.94" x2="353.36" y2="88.27"/>
  <line class="cls-3" x1="360.11" y1="88.27" x2="354.79" y2="82.94"/>
  <line class="cls-3" x1="365.44" y1="64.5" x2="369.33" y2="79.04"/>
  <line class="cls-3" x1="366.86" y1="88.27" x2="369.33" y2="79.04"/>
  <line class="cls-3" x1="379.98" y1="68.4" x2="394.52" y2="64.5"/>
  <polyline class="cls-3" points="389.2 88.27 383.88 82.94 379.98 68.4"/>
  <line class="cls-3" x1="383.88" y1="82.94" x2="382.45" y2="88.27"/>
  <line class="cls-3" x1="369.33" y1="20.87" x2="383.88" y2="24.77"/>
  <line class="cls-3" x1="369.33" y1="20.87" x2="379.98" y2="10.22"/>
  <polyline class="cls-3" points="369.33 49.96 379.98 39.31 365.44 35.41"/>
  <polyline class="cls-3" points="383.88 53.85 369.33 49.96 365.44 35.41 350.89 39.31"/>
  <line class="cls-3" x1="354.79" y1="24.77" x2="350.89" y2="39.31"/>
  <line class="cls-3" x1="369.33" y1="49.96" x2="354.79" y2="53.85"/>
  <line class="cls-3" x1="350.89" y1="39.31" x2="354.79" y2="53.85"/>
  <line class="cls-3" x1="369.33" y1="20.87" x2="354.79" y2="24.77"/>
  <polyline class="cls-3" points="365.44 35.41 354.79 24.77 350.89 10.22 358.16 8.27"/>
  <line class="cls-3" x1="365.44" y1="35.41" x2="369.33" y2="20.87"/>
  <line class="cls-3" x1="379.98" y1="39.31" x2="394.52" y2="35.41"/>
  <line class="cls-3" x1="383.88" y1="24.77" x2="379.98" y2="39.31"/>
  <line class="cls-3" x1="383.88" y1="53.85" x2="379.98" y2="39.31"/>
  <polyline class="cls-3" points="394.52 35.41 383.88 24.77 379.98 10.22"/>
  <line class="cls-3" x1="423.61" y1="64.5" x2="412.96" y2="53.85"/>
  <line class="cls-3" x1="409.07" y1="68.4" x2="412.96" y2="53.85"/>
  <line class="cls-3" x1="423.61" y1="64.5" x2="427.51" y2="49.96"/>
  <line class="cls-3" x1="427.51" y1="79.04" x2="412.96" y2="82.94"/>
  <line class="cls-3" x1="409.07" y1="68.4" x2="423.61" y2="64.5"/>
  <line class="cls-3" x1="412.96" y1="82.94" x2="409.07" y2="68.4"/>
  <line class="cls-3" x1="398.42" y1="79.04" x2="412.96" y2="82.94"/>
  <line class="cls-3" x1="409.07" y1="68.4" x2="398.42" y2="79.04"/>
  <line class="cls-3" x1="412.96" y1="82.94" x2="418.29" y2="88.27"/>
  <line class="cls-3" x1="412.96" y1="82.94" x2="411.54" y2="88.27"/>
  <line class="cls-3" x1="423.61" y1="64.5" x2="427.51" y2="79.04"/>
  <polyline class="cls-3" points="432.83 73.72 427.51 79.04 425.04 88.27"/>
  <line class="cls-3" x1="427.51" y1="79.04" x2="432.83" y2="80.47"/>
  <line class="cls-3" x1="432.83" y1="66.97" x2="423.61" y2="64.5"/>
  <line class="cls-3" x1="412.96" y1="24.77" x2="427.51" y2="20.87"/>
  <line class="cls-3" x1="409.07" y1="39.31" x2="423.61" y2="35.41"/>
  <line class="cls-3" x1="427.51" y1="49.96" x2="412.96" y2="53.85"/>
  <line class="cls-3" x1="412.96" y1="24.77" x2="423.61" y2="35.41"/>
  <line class="cls-3" x1="412.96" y1="24.77" x2="409.07" y2="39.31"/>
  <line class="cls-3" x1="412.96" y1="53.85" x2="409.07" y2="39.31"/>
  <line class="cls-3" x1="398.42" y1="49.96" x2="412.96" y2="53.85"/>
  <line class="cls-3" x1="398.42" y1="49.96" x2="409.07" y2="39.31"/>
  <line class="cls-3" x1="412.96" y1="24.77" x2="409.07" y2="10.22"/>
  <line class="cls-3" x1="398.42" y1="20.87" x2="412.96" y2="24.77"/>
  <line class="cls-3" x1="409.07" y1="10.22" x2="398.42" y2="20.87"/>
  <polyline class="cls-3" points="432.83 37.88 423.61 35.41 427.51 49.96 432.83 44.63"/>
  <line class="cls-3" x1="432.83" y1="51.38" x2="427.51" y2="49.96"/>
  <line class="cls-3" x1="427.51" y1="20.87" x2="432.83" y2="22.29"/>
  <line class="cls-3" x1="427.51" y1="20.87" x2="423.61" y2="35.41"/>
  <line class="cls-3" x1="432.83" y1="15.54" x2="427.51" y2="20.87"/>
  <line class="cls-3" x1="365.44" y1="6.32" x2="360.11" y2="1"/>
  <line class="cls-3" x1="365.44" y1="6.32" x2="366.86" y2="1"/>
  <line class="cls-3" x1="394.52" y1="6.32" x2="389.2" y2="1"/>
  <line class="cls-3" x1="395.95" y1="1" x2="394.52" y2="6.32"/>
  <line class="cls-3" x1="423.61" y1="6.32" x2="418.29" y2="1"/>
  <line class="cls-3" x1="423.61" y1="6.32" x2="425.04" y2="1"/>
  <line class="cls-3" x1="178.01" y1="22.82" x2="178.01" y2="8.27"/>
  <line class="cls-3" x1="203.2" y1="8.27" x2="203.2" y2="22.82"/>
  <line class="cls-3" x1="178.01" y1="8.27" x2="165.42" y2="15.55"/>
  <line class="cls-3" x1="165.42" y1="1" x2="165.42" y2="15.55"/>
  <line class="cls-3" x1="140.22" y1="15.54" x2="140.22" y2="1"/>
  <line class="cls-3" x1="127.63" y1="8.27" x2="140.22" y2="15.55"/>
  <line class="cls-3" x1="203.2" y1="8.27" x2="215.8" y2="15.55"/>
  <polyline class="cls-3" points="127.63 22.82 127.63 8.27 115.03 15.54"/>
  <line class="cls-3" x1="152.82" y1="22.82" x2="140.22" y2="30.09"/>
  <line class="cls-3" x1="152.82" y1="22.82" x2="140.22" y2="15.54"/>
  <line class="cls-3" x1="140.22" y1="30.09" x2="152.82" y2="37.36"/>
  <polyline class="cls-3" points="140.22 59.18 152.82 51.9 140.22 44.63"/>
  <line class="cls-3" x1="152.82" y1="37.36" x2="140.22" y2="44.63"/>
  <line class="cls-3" x1="152.82" y1="80.99" x2="140.22" y2="88.26"/>
  <line class="cls-3" x1="140.22" y1="59.18" x2="152.82" y2="66.45"/>
  <line class="cls-3" x1="127.63" y1="66.45" x2="127.63" y2="51.9"/>
  <polyline class="cls-3" points="115.03 59.18 127.63 66.45 140.22 59.18"/>
  <line class="cls-3" x1="115.03" y1="73.72" x2="127.63" y2="66.45"/>
  <line class="cls-3" x1="127.63" y1="80.99" x2="115.03" y2="88.26"/>
  <line class="cls-3" x1="127.63" y1="80.99" x2="115.03" y2="73.72"/>
  <line class="cls-3" x1="127.63" y1="80.99" x2="127.63" y2="66.45"/>
  <polyline class="cls-3" points="140.22 88.26 127.63 80.99 127.63 88.26"/>
  <line class="cls-3" x1="140.22" y1="30.09" x2="140.22" y2="44.63"/>
  <line class="cls-3" x1="127.63" y1="51.9" x2="115.03" y2="59.18"/>
  <line class="cls-3" x1="127.63" y1="51.9" x2="115.03" y2="44.63"/>
  <polyline class="cls-3" points="140.22 59.17 140.22 44.63 127.63 51.9"/>
  <line class="cls-3" x1="140.22" y1="59.17" x2="127.63" y2="51.9"/>
  <line class="cls-3" x1="127.63" y1="22.82" x2="115.03" y2="15.54"/>
  <line class="cls-3" x1="115.03" y1="30.09" x2="127.63" y2="22.82"/>
  <line class="cls-3" x1="140.22" y1="15.54" x2="140.22" y2="30.09"/>
  <line class="cls-3" x1="127.63" y1="22.81" x2="140.22" y2="30.09"/>
  <line class="cls-3" x1="140.22" y1="15.54" x2="127.63" y2="22.81"/>
  <line class="cls-3" x1="215.8" y1="59.17" x2="203.2" y2="66.45"/>
  <line class="cls-3" x1="190.6" y1="59.17" x2="178.01" y2="66.45"/>
  <line class="cls-3" x1="190.6" y1="73.72" x2="190.6" y2="59.18"/>
  <line class="cls-3" x1="178.01" y1="51.9" x2="178.01" y2="66.45"/>
  <line class="cls-3" x1="165.41" y1="59.17" x2="178.01" y2="66.45"/>
  <line class="cls-3" x1="165.41" y1="59.17" x2="165.41" y2="73.72"/>
  <line class="cls-3" x1="203.2" y1="66.45" x2="190.6" y2="59.18"/>
  <polyline class="cls-3" points="165.41 59.17 152.82 66.45 152.82 51.9"/>
  <line class="cls-3" x1="203.2" y1="80.99" x2="190.6" y2="88.26"/>
  <polyline class="cls-3" points="203.2 80.99 190.6 73.72 203.2 66.45"/>
  <line class="cls-3" x1="165.41" y1="73.72" x2="178.01" y2="66.45"/>
  <polyline class="cls-3" points="165.41 88.26 165.41 73.72 152.82 80.99"/>
  <line class="cls-3" x1="152.82" y1="66.45" x2="152.82" y2="80.99"/>
  <polyline class="cls-3" points="165.41 88.26 152.82 80.99 152.82 88.26"/>
  <line class="cls-3" x1="165.41" y1="73.72" x2="152.82" y2="66.45"/>
  <line class="cls-3" x1="190.6" y1="73.72" x2="190.6" y2="88.26"/>
  <line class="cls-3" x1="178.01" y1="66.45" x2="190.6" y2="73.72"/>
  <polyline class="cls-3" points="203.2 66.45 203.2 80.99 215.8 73.72"/>
  <line class="cls-3" x1="203.2" y1="88.26" x2="203.2" y2="80.99"/>
  <line class="cls-3" x1="203.2" y1="66.45" x2="215.8" y2="73.72"/>
  <line class="cls-3" x1="203.2" y1="22.82" x2="190.6" y2="30.09"/>
  <polyline class="cls-3" points="190.6 44.63 203.2 37.36 190.6 30.09"/>
  <polyline class="cls-3" points="152.82 22.82 152.82 37.36 165.41 30.09"/>
  <line class="cls-3" x1="178.01" y1="37.36" x2="178.01" y2="22.82"/>
  <polyline class="cls-3" points="165.42 30.09 178.01 37.36 190.6 30.09"/>
  <line class="cls-3" x1="190.6" y1="44.63" x2="190.6" y2="30.09"/>
  <line class="cls-3" x1="178.01" y1="51.9" x2="165.41" y2="59.17"/>
  <line class="cls-3" x1="152.82" y1="51.9" x2="152.82" y2="37.36"/>
  <line class="cls-3" x1="165.42" y1="59.17" x2="152.82" y2="51.9"/>
  <polyline class="cls-3" points="190.6 59.17 190.6 44.63 178.01 51.9"/>
  <line class="cls-3" x1="178.01" y1="37.36" x2="178.01" y2="51.9"/>
  <line class="cls-3" x1="190.6" y1="59.17" x2="178.01" y2="51.9"/>
  <line class="cls-3" x1="178.01" y1="37.36" x2="190.6" y2="44.63"/>
  <line class="cls-3" x1="178.01" y1="22.81" x2="165.41" y2="30.09"/>
  <line class="cls-3" x1="165.42" y1="15.54" x2="178.01" y2="22.81"/>
  <line class="cls-3" x1="165.42" y1="30.09" x2="152.82" y2="22.82"/>
  <polyline class="cls-3" points="165.42 30.09 165.42 15.54 152.82 22.82"/>
  <line class="cls-3" x1="190.6" y1="30.09" x2="178.01" y2="22.82"/>
  <polyline class="cls-3" points="215.8 30.09 203.2 37.36 203.2 22.82"/>
  <line class="cls-3" x1="203.2" y1="37.36" x2="215.8" y2="44.63"/>
  <line class="cls-3" x1="203.2" y1="22.82" x2="215.8" y2="30.09"/>
  <line class="cls-3" x1="203.2" y1="22.82" x2="215.8" y2="15.54"/>
  <line class="cls-3" x1="127.63" y1="8.27" x2="140.22" y2="1"/>
  <line class="cls-3" x1="127.63" y1="1" x2="127.63" y2="8.27"/>
  <line class="cls-3" x1="190.61" y1="1" x2="203.2" y2="8.27"/>
  <polyline class="cls-3" points="165.42 1 178.01 8.27 190.6 1"/>
  <line class="cls-3" x1="178.01" y1="8.27" x2="178.01" y2="1"/>
  <line class="cls-3" x1="203.2" y1="8.27" x2="215.8" y2="1"/>
  <line class="cls-3" x1="203.2" y1="8.27" x2="203.2" y2="1"/>
  <line class="cls-3" x1="291.59" y1="11.91" x2="269.77" y2="11.91"/>
  <line class="cls-3" x1="291.59" y1="77.36" x2="269.77" y2="77.36"/>
  <line class="cls-3" x1="269.77" y1="55.54" x2="291.59" y2="55.54"/>
  <line class="cls-3" x1="269.77" y1="33.72" x2="291.59" y2="33.72"/>
  <polyline class="cls-3" points="269.77 11.91 250.88 1 250.88 22.82"/>
  <line class="cls-3" x1="269.77" y1="11.91" x2="269.77" y2="1"/>
  <line class="cls-3" x1="250.88" y1="22.82" x2="229.07" y2="22.82"/>
  <line class="cls-3" x1="229.06" y1="44.63" x2="250.88" y2="44.63"/>
  <line class="cls-3" x1="250.88" y1="66.45" x2="229.07" y2="66.45"/>
  <line class="cls-3" x1="250.88" y1="66.45" x2="269.77" y2="55.54"/>
  <line class="cls-3" x1="250.88" y1="44.63" x2="250.88" y2="66.45"/>
  <line class="cls-3" x1="269.77" y1="77.36" x2="269.77" y2="55.54"/>
  <line class="cls-3" x1="269.77" y1="77.36" x2="250.88" y2="88.26"/>
  <line class="cls-3" x1="250.88" y1="66.45" x2="269.77" y2="77.36"/>
  <line class="cls-3" x1="250.88" y1="88.26" x2="250.88" y2="66.45"/>
  <line class="cls-3" x1="269.77" y1="88.26" x2="269.77" y2="77.36"/>
  <line class="cls-3" x1="250.88" y1="22.82" x2="269.77" y2="11.91"/>
  <line class="cls-3" x1="269.77" y1="55.54" x2="250.88" y2="44.63"/>
  <line class="cls-3" x1="269.77" y1="33.72" x2="250.88" y2="44.63"/>
  <line class="cls-3" x1="269.77" y1="33.72" x2="250.88" y2="22.82"/>
  <line class="cls-3" x1="250.88" y1="44.63" x2="250.88" y2="22.82"/>
  <line class="cls-3" x1="269.77" y1="33.72" x2="269.77" y2="11.91"/>
  <line class="cls-3" x1="269.77" y1="55.54" x2="269.77" y2="33.72"/>
  <line class="cls-3" x1="310.48" y1="1" x2="291.59" y2="11.91"/>
  <line class="cls-3" x1="310.48" y1="22.82" x2="310.48" y2="1"/>
  <line class="cls-3" x1="291.59" y1="1" x2="291.59" y2="11.91"/>
  <polyline class="cls-3" points="291.59 55.54 310.48 66.45 310.48 44.63"/>
  <line class="cls-3" x1="291.59" y1="55.54" x2="291.59" y2="77.36"/>
  <line class="cls-3" x1="332.3" y1="66.45" x2="310.48" y2="66.45"/>
  <polyline class="cls-3" points="310.48 88.27 291.59 77.36 310.48 66.45"/>
  <line class="cls-3" x1="291.59" y1="77.36" x2="291.59" y2="88.27"/>
  <line class="cls-3" x1="310.48" y1="66.45" x2="310.48" y2="88.27"/>
  <line class="cls-3" x1="332.3" y1="22.82" x2="310.48" y2="22.82"/>
  <line class="cls-3" x1="310.48" y1="44.63" x2="332.3" y2="44.63"/>
  <line class="cls-3" x1="291.59" y1="33.72" x2="291.59" y2="11.91"/>
  <line class="cls-3" x1="291.59" y1="33.72" x2="310.48" y2="22.82"/>
  <line class="cls-3" x1="310.48" y1="44.63" x2="310.48" y2="22.82"/>
  <line class="cls-3" x1="310.48" y1="44.63" x2="291.59" y2="55.54"/>
  <polyline class="cls-3" points="310.48 44.63 291.59 33.72 291.59 55.54"/>
  <line class="cls-3" x1="291.59" y1="11.91" x2="310.48" y2="22.82"/>
  <line class="cls-3" x1="422.19" y1="172.66" x2="427.51" y2="163.44"/>
  <line class="cls-3" x1="337.39" y1="163.44" x2="342.71" y2="172.66"/>
  <line class="cls-3" x1="371.8" y1="172.66" x2="377.13" y2="163.44"/>
  <line class="cls-3" x1="387.77" y1="163.44" x2="393.09" y2="172.66"/>
  <line class="cls-3" x1="337.39" y1="181.88" x2="346.61" y2="187.2"/>
  <line class="cls-3" x1="351.93" y1="177.98" x2="342.71" y2="172.66"/>
  <line class="cls-3" x1="337.39" y1="181.88" x2="342.71" y2="172.66"/>
  <line class="cls-3" x1="337.39" y1="181.88" x2="332.07" y2="181.88"/>
  <polyline class="cls-3" points="393.09 172.66 387.77 181.88 396.99 187.2"/>
  <line class="cls-3" x1="367.91" y1="187.2" x2="377.13" y2="181.88"/>
  <line class="cls-3" x1="346.61" y1="187.2" x2="351.93" y2="177.98"/>
  <polyline class="cls-3" points="362.58 177.98 367.91 187.2 362.58 196.42"/>
  <line class="cls-3" x1="351.93" y1="196.42" x2="346.61" y2="187.2"/>
  <polyline class="cls-3" points="362.58 196.42 351.93 196.42 351.93 201.75"/>
  <line class="cls-3" x1="362.58" y1="201.75" x2="362.58" y2="196.42"/>
  <line class="cls-3" x1="371.8" y1="172.66" x2="362.58" y2="177.98"/>
  <line class="cls-3" x1="351.93" y1="177.98" x2="362.58" y2="177.98"/>
  <line class="cls-3" x1="371.8" y1="172.66" x2="377.13" y2="181.88"/>
  <line class="cls-3" x1="387.77" y1="181.88" x2="377.13" y2="181.88"/>
  <line class="cls-3" x1="396.99" y1="187.2" x2="402.32" y2="177.98"/>
  <polyline class="cls-3" points="412.96 177.98 418.29 187.2 427.51 181.88"/>
  <polyline class="cls-3" points="412.96 196.42 402.32 196.42 396.99 187.2"/>
  <line class="cls-3" x1="402.32" y1="196.42" x2="402.32" y2="201.75"/>
  <line class="cls-3" x1="418.29" y1="187.2" x2="412.96" y2="196.42"/>
  <line class="cls-3" x1="412.96" y1="201.75" x2="412.96" y2="196.42"/>
  <line class="cls-3" x1="402.32" y1="177.98" x2="412.96" y2="177.98"/>
  <line class="cls-3" x1="402.32" y1="177.98" x2="393.09" y2="172.66"/>
  <line class="cls-3" x1="422.19" y1="172.66" x2="427.51" y2="181.88"/>
  <line class="cls-3" x1="422.19" y1="172.66" x2="412.96" y2="177.98"/>
  <line class="cls-3" x1="432.83" y1="181.88" x2="427.51" y2="181.88"/>
  <line class="cls-3" x1="346.61" y1="129.03" x2="337.39" y2="134.35"/>
  <line class="cls-3" x1="342.72" y1="143.57" x2="351.93" y2="138.25"/>
  <line class="cls-3" x1="342.72" y1="143.57" x2="337.39" y2="152.79"/>
  <line class="cls-3" x1="337.39" y1="163.44" x2="337.39" y2="152.79"/>
  <line class="cls-3" x1="337.39" y1="163.44" x2="332.07" y2="163.44"/>
  <line class="cls-3" x1="337.39" y1="152.79" x2="332.07" y2="152.79"/>
  <line class="cls-3" x1="342.72" y1="143.57" x2="337.39" y2="134.35"/>
  <line class="cls-3" x1="332.07" y1="134.35" x2="337.39" y2="134.35"/>
  <polyline class="cls-3" points="427.51 134.35 418.28 129.03 412.96 138.25"/>
  <line class="cls-3" x1="402.32" y1="138.25" x2="396.99" y2="129.03"/>
  <line class="cls-3" x1="377.13" y1="134.35" x2="367.91" y2="129.03"/>
  <line class="cls-3" x1="362.58" y1="138.25" x2="367.9" y2="129.03"/>
  <line class="cls-3" x1="346.61" y1="129.03" x2="351.93" y2="138.25"/>
  <line class="cls-3" x1="396.99" y1="129.03" x2="387.77" y2="134.35"/>
  <line class="cls-3" x1="393.09" y1="143.57" x2="387.77" y2="152.79"/>
  <line class="cls-3" x1="387.77" y1="134.35" x2="393.09" y2="143.57"/>
  <line class="cls-3" x1="377.13" y1="152.79" x2="371.8" y2="143.57"/>
  <line class="cls-3" x1="387.77" y1="163.44" x2="387.77" y2="152.79"/>
  <line class="cls-3" x1="377.13" y1="152.79" x2="377.13" y2="163.44"/>
  <line class="cls-3" x1="387.77" y1="163.44" x2="377.13" y2="163.44"/>
  <line class="cls-3" x1="377.13" y1="152.79" x2="387.77" y2="152.79"/>
  <line class="cls-3" x1="362.58" y1="138.25" x2="371.8" y2="143.57"/>
  <line class="cls-3" x1="362.58" y1="138.25" x2="351.93" y2="138.25"/>
  <line class="cls-3" x1="377.13" y1="134.35" x2="371.8" y2="143.57"/>
  <line class="cls-3" x1="377.13" y1="134.35" x2="387.77" y2="134.35"/>
  <line class="cls-3" x1="427.51" y1="152.79" x2="422.18" y2="143.57"/>
  <line class="cls-3" x1="427.51" y1="152.79" x2="427.51" y2="163.44"/>
  <line class="cls-3" x1="432.83" y1="163.44" x2="427.51" y2="163.44"/>
  <line class="cls-3" x1="427.51" y1="152.79" x2="432.83" y2="152.79"/>
  <line class="cls-3" x1="412.96" y1="138.25" x2="402.32" y2="138.25"/>
  <line class="cls-3" x1="393.09" y1="143.57" x2="402.32" y2="138.25"/>
  <line class="cls-3" x1="427.51" y1="134.35" x2="422.18" y2="143.57"/>
  <line class="cls-3" x1="412.96" y1="138.25" x2="422.18" y2="143.57"/>
  <line class="cls-3" x1="427.51" y1="134.35" x2="432.83" y2="134.35"/>
  <line class="cls-3" x1="362.58" y1="119.81" x2="367.9" y2="129.03"/>
  <polyline class="cls-3" points="346.61 129.03 351.93 119.81 362.58 119.81"/>
  <line class="cls-3" x1="351.93" y1="119.81" x2="351.93" y2="114.48"/>
  <line class="cls-3" x1="362.58" y1="114.48" x2="362.58" y2="119.81"/>
  <line class="cls-3" x1="402.32" y1="119.81" x2="412.96" y2="119.81"/>
  <polyline class="cls-3" points="396.99 129.03 402.32 119.81 402.32 114.48"/>
  <line class="cls-3" x1="412.96" y1="119.81" x2="418.28" y2="129.03"/>
  <line class="cls-3" x1="412.96" y1="114.48" x2="412.96" y2="119.81"/>
  <g class="cls-1">
    <path class="cls-9" d="m101.76,1v87.26H1V1h100.76m1-1H0v89.26h102.76V0Z"/>
  </g>
  <path class="cls-9" d="m215.8,1v87.26h-100.76V1h100.76m1-1h-102.76v89.26h102.76V0Z"/>
  <path class="cls-9" d="m332.3,1v87.26h-103.23V1h103.23m1-1h-105.23v89.26h105.23V0Z"/>
  <g class="cls-10">
    <path class="cls-9" d="m432.83,1v87.26h-87.26V1h87.26m1-1h-89.26v89.26h89.26V0Z"/>
  </g>
  <path class="cls-9" d="m101.76,114.48v87.26H1v-87.26h100.76m1-1H0v89.26h102.76v-89.26Z"/>
  <path class="cls-9" d="m203.12,114.48v87.26h-87.26v-87.26h87.26m1-1h-89.26v89.26h89.26v-89.26Z"/>
  <path class="cls-9" d="m317.98,114.48v87.26h-100.76v-87.26h100.76m1-1h-102.76v89.26h102.76v-89.26Z"/>
  <g class="cls-11">
    <path class="cls-9" d="m432.83,114.48v87.26h-100.76v-87.26h100.76m1-1h-102.76v89.26h102.76v-89.26Z"/>
  </g>
  <text class="cls-13" transform="translate(36.19 103.45)"><tspan x="0" y="0">3.6.3.6</tspan></text>
  <text class="cls-13" transform="translate(156.54 103.45)"><tspan x="0" y="0">3</tspan></text>
  <text class="cls-12" transform="translate(162.1 100.45)"><tspan x="0" y="0">4</tspan></text>
  <text class="cls-13" transform="translate(166.55 103.45)"><tspan x="0" y="0">.6</tspan></text>
  <text class="cls-13" transform="translate(268.88 103.45)"><tspan x="0" y="0">3</tspan></text>
  <text class="cls-12" transform="translate(274.44 100.45)"><tspan x="0" y="0">3</tspan></text>
  <text class="cls-13" transform="translate(278.89 103.45)"><tspan x="0" y="0">.4</tspan></text>
  <text class="cls-12" transform="translate(287.23 100.45)"><tspan x="0" y="0">4</tspan></text>
  <text class="cls-13" transform="translate(371.64 103.45)"><tspan x="0" y="0">3</tspan></text>
  <text class="cls-12" transform="translate(377.2 100.45)"><tspan x="0" y="0">2</tspan></text>
  <text class="cls-13" transform="translate(381.65 103.45)"><tspan x="0" y="0">.4.3.4</tspan></text>
  <text class="cls-13" transform="translate(36.18 216.93)"><tspan x="0" y="0">3.4.6.4</tspan></text>
  <text class="cls-13" transform="translate(156.54 216.93)"><tspan x="0" y="0">4.8</tspan></text>
  <text class="cls-12" transform="translate(170.44 213.93)"><tspan x="0" y="0">2</tspan></text>
  <text class="cls-13" transform="translate(255.39 216.93)"><tspan x="0" y="0">3.12</tspan></text>
  <text class="cls-12" transform="translate(274.85 213.93)"><tspan x="0" y="0">2</tspan></text>
  <text class="cls-13" transform="translate(375.25 216.93)"><tspan x="0" y="0">4.6.12</tspan></text>
</svg>