<?xml version="1.0" encoding="UTF-8"?>
<svg id="Layer_1" data-name="Layer 1" xmlns="http://www.w3.org/2000/svg" xmlns:xlink="http://www.w3.org/1999/xlink" viewBox="0 0 440.22 344.25">
  <defs>
    <style>
      .cls-1 {
        stroke-width: .35px;
      }

      .cls-1, .cls-2, .cls-3, .cls-4, .cls-5, .cls-6, .cls-7, .cls-8, .cls-9, .cls-10, .cls-11, .cls-12, .cls-13, .cls-14, .cls-15, .cls-16, .cls-17, .cls-18, .cls-19, .cls-20, .cls-21, .cls-22, .cls-23, .cls-24 {
        fill: none;
      }

      .cls-1, .cls-3, .cls-5, .cls-6, .cls-7, .cls-8, .cls-9, .cls-10, .cls-11, .cls-12, .cls-13, .cls-14, .cls-15, .cls-16, .cls-17, .cls-18, .cls-19, .cls-20, .cls-21, .cls-22, .cls-23, .cls-24 {
        stroke-linejoin: round;
      }

      .cls-1, .cls-4 {
        stroke: #231f20;
        stroke-linecap: round;
      }

      .cls-25 {
        font-family: VqlvmgMcwmkmKsrnywArial-ItalicMT, 'VqlvmgMcwmkmKsrnywArial ItalicMT';
        font-style: italic;
      }

      .cls-25, .cls-26 {
        fill: #231f20;
        font-size: 9px;
      }

      .cls-27 {
        clip-path: url(#clippath);
      }

      .cls-2, .cls-28, .cls-29, .cls-30, .cls-31, .cls-32, .cls-33 {
        stroke-width: 0px;
      }

      .cls-3 {
        stroke: #cb3434;
      }

      .cls-3, .cls-5, .cls-6, .cls-7, .cls-8, .cls-9, .cls-10, .cls-11, .cls-12, .cls-13, .cls-14, .cls-15, .cls-16, .cls-17, .cls-18, .cls-19, .cls-20, .cls-21, .cls-22, .cls-23, .cls-24 {
        stroke-linecap: square;
      }

      .cls-34 {
        clip-path: url(#clippath-1);
      }

      .cls-35 {
        clip-path: url(#clippath-4);
      }

      .cls-36 {
        clip-path: url(#clippath-3);
      }

      .cls-37 {
        clip-path: url(#clippath-2);
      }

      .cls-38 {
        clip-path: url(#clippath-7);
      }

      .cls-39 {
        clip-path: url(#clippath-8);
      }

      .cls-40 {
        clip-path: url(#clippath-6);
      }

      .cls-41 {
        clip-path: url(#clippath-5);
      }

      .cls-42 {
        clip-path: url(#clippath-9);
      }

      .cls-43 {
        clip-path: url(#clippath-14);
      }

      .cls-44 {
        clip-path: url(#clippath-13);
      }

      .cls-45 {
        clip-path: url(#clippath-12);
      }

      .cls-46 {
        clip-path: url(#clippath-10);
      }

      .cls-47 {
        clip-path: url(#clippath-15);
      }

      .cls-48 {
        clip-path: url(#clippath-17);
      }

      .cls-49 {
        clip-path: url(#clippath-16);
      }

      .cls-50 {
        clip-path: url(#clippath-19);
      }

      .cls-51 {
        clip-path: url(#clippath-11);
      }

      .cls-52 {
        clip-path: url(#clippath-18);
      }

      .cls-26 {
        font-family: PqpnqrKsjllwLcvkxxArialMT, PqpnqrKsjllwLcvkxxArialMT;
      }

      .cls-4, .cls-5, .cls-6, .cls-7, .cls-8, .cls-9, .cls-10, .cls-11, .cls-12, .cls-13, .cls-14, .cls-15, .cls-16, .cls-17, .cls-18, .cls-19, .cls-20, .cls-21, .cls-22, .cls-23, .cls-24 {
        stroke-width: .75px;
      }

      .cls-5 {
        stroke: url(#Unnamed_Pattern_9);
      }

      .cls-6 {
        stroke: url(#Unnamed_Pattern_2);
      }

      .cls-7 {
        stroke: url(#Unnamed_Pattern_3);
      }

      .cls-8 {
        stroke: url(#Unnamed_Pattern_4);
      }

      .cls-9 {
        stroke: url(#Unnamed_Pattern);
      }

      .cls-10 {
        stroke: url(#Unnamed_Pattern_28);
      }

      .cls-11 {
        stroke: url(#Unnamed_Pattern_10);
      }

      .cls-12 {
        stroke: url(#Unnamed_Pattern_29);
      }

      .cls-13 {
        stroke: url(#Unnamed_Pattern_20);
      }

      .cls-14 {
        stroke: url(#Unnamed_Pattern_19);
      }

      .cls-15 {
        stroke: url(#Unnamed_Pattern_11);
      }

      .cls-16 {
        stroke: url(#Unnamed_Pattern_12);
      }

      .cls-17 {
        stroke: url(#Unnamed_Pattern_22);
      }

      .cls-18 {
        stroke: url(#Unnamed_Pattern_21);
      }

      .cls-19 {
        stroke: url(#Unnamed_Pattern_30);
      }

      .cls-20 {
        stroke: url(#Unnamed_Pattern_31);
      }

      .cls-21 {
        stroke: url(#Unnamed_Pattern_32);
      }

      .cls-22 {
        stroke: url(#Unnamed_Pattern_34);
      }

      .cls-23 {
        stroke: url(#Unnamed_Pattern_33);
      }

      .cls-24 {
        stroke: url(#Unnamed_Pattern_35);
      }

      .cls-28 {
        fill: #cb3434;
      }

      .cls-29 {
        fill: #d8d0e5;
      }

      .cls-30 {
        fill: #b5dded;
      }

      .cls-31 {
        fill: #b5d3b2;
      }

      .cls-32 {
        fill: #fbddaf;
      }

      .cls-33 {
        fill: #e6e6e7;
      }
    </style>
    <clipPath id="clippath">
      <rect class="cls-2" width="39.12" height="48.09"/>
    </clipPath>
    <pattern id="Unnamed_Pattern" data-name="Unnamed Pattern" x="0" y="0" width="39.12" height="48.09" patternTransform="translate(180.27 314.85) scale(1 -1)" patternUnits="userSpaceOnUse" viewBox="0 0 39.12 48.09">
      <g>
        <rect class="cls-2" width="39.12" height="48.09"/>
        <g class="cls-27">
          <rect class="cls-28" x=".5" y=".5" width="38.12" height="47.09"/>
          <rect class="cls-3" x=".5" y=".5" width="38.12" height="47.09"/>
        </g>
      </g>
    </pattern>
    <clipPath id="clippath-1">
      <rect class="cls-2" width="39.12" height="48.09"/>
    </clipPath>
    <pattern id="Unnamed_Pattern_2" data-name="Unnamed Pattern 2" x="0" y="0" width="39.12" height="48.09" patternTransform="translate(180.27 314.85) scale(1 -1)" patternUnits="userSpaceOnUse" viewBox="0 0 39.12 48.09">
      <g>
        <rect class="cls-2" width="39.12" height="48.09"/>
        <g class="cls-34">
          <rect class="cls-28" x=".5" y=".5" width="38.12" height="47.09"/>
          <rect class="cls-3" x=".5" y=".5" width="38.12" height="47.09"/>
        </g>
      </g>
    </pattern>
    <clipPath id="clippath-2">
      <rect class="cls-2" width="39.12" height="48.09"/>
    </clipPath>
    <pattern id="Unnamed_Pattern_3" data-name="Unnamed Pattern 3" x="0" y="0" width="39.12" height="48.09" patternTransform="translate(180.27 314.85) scale(1 -1)" patternUnits="userSpaceOnUse" viewBox="0 0 39.12 48.09">
      <g>
        <rect class="cls-2" width="39.12" height="48.09"/>
        <g class="cls-37">
          <rect class="cls-28" x=".5" y=".5" width="38.12" height="47.09"/>
          <rect class="cls-3" x=".5" y=".5" width="38.12" height="47.09"/>
        </g>
      </g>
    </pattern>
    <clipPath id="clippath-3">
      <rect class="cls-2" width="39.12" height="48.09"/>
    </clipPath>
    <pattern id="Unnamed_Pattern_4" data-name="Unnamed Pattern 4" x="0" y="0" width="39.12" height="48.09" patternTransform="translate(180.27 314.85) scale(1 -1)" patternUnits="userSpaceOnUse" viewBox="0 0 39.12 48.09">
      <g>
        <rect class="cls-2" width="39.12" height="48.09"/>
        <g class="cls-36">
          <rect class="cls-28" x=".5" y=".5" width="38.12" height="47.09"/>
          <rect class="cls-3" x=".5" y=".5" width="38.12" height="47.09"/>
        </g>
      </g>
    </pattern>
    <clipPath id="clippath-4">
      <rect class="cls-2" width="39.12" height="48.09"/>
    </clipPath>
    <pattern id="Unnamed_Pattern_9" data-name="Unnamed Pattern 9" x="0" y="0" width="39.12" height="48.09" patternTransform="translate(180.27 314.85) scale(1 -1)" patternUnits="userSpaceOnUse" viewBox="0 0 39.12 48.09">
      <g>
        <rect class="cls-2" width="39.12" height="48.09"/>
        <g class="cls-35">
          <rect class="cls-28" x=".5" y=".5" width="38.12" height="47.09"/>
          <rect class="cls-3" x=".5" y=".5" width="38.12" height="47.09"/>
        </g>
      </g>
    </pattern>
    <clipPath id="clippath-5">
      <rect class="cls-2" width="39.12" height="48.09"/>
    </clipPath>
    <pattern id="Unnamed_Pattern_10" data-name="Unnamed Pattern 10" x="0" y="0" width="39.12" height="48.09" patternTransform="translate(180.27 314.85) scale(1 -1)" patternUnits="userSpaceOnUse" viewBox="0 0 39.12 48.09">
      <g>
        <rect class="cls-2" width="39.12" height="48.09"/>
        <g class="cls-41">
          <rect class="cls-28" x=".5" y=".5" width="38.12" height="47.09"/>
          <rect class="cls-3" x=".5" y=".5" width="38.12" height="47.09"/>
        </g>
      </g>
    </pattern>
    <clipPath id="clippath-6">
      <rect class="cls-2" width="39.12" height="48.09"/>
    </clipPath>
    <pattern id="Unnamed_Pattern_11" data-name="Unnamed Pattern 11" x="0" y="0" width="39.12" height="48.09" patternTransform="translate(180.27 314.85) scale(1 -1)" patternUnits="userSpaceOnUse" viewBox="0 0 39.12 48.09">
      <g>
        <rect class="cls-2" width="39.12" height="48.09"/>
        <g class="cls-40">
          <rect class="cls-28" x=".5" y=".5" width="38.12" height="47.09"/>
          <rect class="cls-3" x=".5" y=".5" width="38.12" height="47.09"/>
        </g>
      </g>
    </pattern>
    <clipPath id="clippath-7">
      <rect class="cls-2" width="39.12" height="48.09"/>
    </clipPath>
    <pattern id="Unnamed_Pattern_12" data-name="Unnamed Pattern 12" x="0" y="0" width="39.12" height="48.09" patternTransform="translate(180.27 314.85) scale(1 -1)" patternUnits="userSpaceOnUse" viewBox="0 0 39.12 48.09">
      <g>
        <rect class="cls-2" width="39.12" height="48.09"/>
        <g class="cls-38">
          <rect class="cls-28" x=".5" y=".5" width="38.12" height="47.09"/>
          <rect class="cls-3" x=".5" y=".5" width="38.12" height="47.09"/>
        </g>
      </g>
    </pattern>
    <clipPath id="clippath-8">
      <rect class="cls-2" width="39.12" height="48.09"/>
    </clipPath>
    <pattern id="Unnamed_Pattern_19" data-name="Unnamed Pattern 19" x="0" y="0" width="39.12" height="48.09" patternTransform="translate(180.27 314.85) scale(1 -1)" patternUnits="userSpaceOnUse" viewBox="0 0 39.12 48.09">
      <g>
        <rect class="cls-2" width="39.12" height="48.09"/>
        <g class="cls-39">
          <rect class="cls-28" x=".5" y=".5" width="38.12" height="47.09"/>
          <rect class="cls-3" x=".5" y=".5" width="38.12" height="47.09"/>
        </g>
      </g>
    </pattern>
    <clipPath id="clippath-9">
      <rect class="cls-2" width="39.12" height="48.09"/>
    </clipPath>
    <pattern id="Unnamed_Pattern_20" data-name="Unnamed Pattern 20" x="0" y="0" width="39.12" height="48.09" patternTransform="translate(180.27 314.85) scale(1 -1)" patternUnits="userSpaceOnUse" viewBox="0 0 39.12 48.09">
      <g>
        <rect class="cls-2" width="39.12" height="48.09"/>
        <g class="cls-42">
          <rect class="cls-28" x=".5" y=".5" width="38.12" height="47.09"/>
          <rect class="cls-3" x=".5" y=".5" width="38.12" height="47.09"/>
        </g>
      </g>
    </pattern>
    <clipPath id="clippath-10">
      <rect class="cls-2" width="39.12" height="48.09"/>
    </clipPath>
    <pattern id="Unnamed_Pattern_21" data-name="Unnamed Pattern 21" x="0" y="0" width="39.12" height="48.09" patternTransform="translate(180.27 314.85) scale(1 -1)" patternUnits="userSpaceOnUse" viewBox="0 0 39.12 48.09">
      <g>
        <rect class="cls-2" width="39.12" height="48.09"/>
        <g class="cls-46">
          <rect class="cls-28" x=".5" y=".5" width="38.12" height="47.09"/>
          <rect class="cls-3" x=".5" y=".5" width="38.12" height="47.09"/>
        </g>
      </g>
    </pattern>
    <clipPath id="clippath-11">
      <rect class="cls-2" width="39.12" height="48.09"/>
    </clipPath>
    <pattern id="Unnamed_Pattern_22" data-name="Unnamed Pattern 22" x="0" y="0" width="39.12" height="48.09" patternTransform="translate(180.27 314.85) scale(1 -1)" patternUnits="userSpaceOnUse" viewBox="0 0 39.12 48.09">
      <g>
        <rect class="cls-2" width="39.12" height="48.09"/>
        <g class="cls-51">
          <rect class="cls-28" x=".5" y=".5" width="38.12" height="47.09"/>
          <rect class="cls-3" x=".5" y=".5" width="38.12" height="47.09"/>
        </g>
      </g>
    </pattern>
    <clipPath id="clippath-12">
      <rect class="cls-2" width="39.12" height="48.09"/>
    </clipPath>
    <pattern id="Unnamed_Pattern_28" data-name="Unnamed Pattern 28" x="0" y="0" width="39.12" height="48.09" patternTransform="translate(180.27 314.85) scale(1 -1)" patternUnits="userSpaceOnUse" viewBox="0 0 39.12 48.09">
      <g>
        <rect class="cls-2" width="39.12" height="48.09"/>
        <g class="cls-45">
          <rect class="cls-28" x=".5" y=".5" width="38.12" height="47.09"/>
          <rect class="cls-3" x=".5" y=".5" width="38.12" height="47.09"/>
        </g>
      </g>
    </pattern>
    <clipPath id="clippath-13">
      <rect class="cls-2" width="39.12" height="48.09"/>
    </clipPath>
    <pattern id="Unnamed_Pattern_29" data-name="Unnamed Pattern 29" x="0" y="0" width="39.12" height="48.09" patternTransform="translate(180.27 314.85) scale(1 -1)" patternUnits="userSpaceOnUse" viewBox="0 0 39.12 48.09">
      <g>
        <rect class="cls-2" width="39.12" height="48.09"/>
        <g class="cls-44">
          <rect class="cls-28" x=".5" y=".5" width="38.12" height="47.09"/>
          <rect class="cls-3" x=".5" y=".5" width="38.12" height="47.09"/>
        </g>
      </g>
    </pattern>
    <clipPath id="clippath-14">
      <rect class="cls-2" width="39.12" height="48.09"/>
    </clipPath>
    <pattern id="Unnamed_Pattern_30" data-name="Unnamed Pattern 30" x="0" y="0" width="39.12" height="48.09" patternTransform="translate(180.27 314.85) scale(1 -1)" patternUnits="userSpaceOnUse" viewBox="0 0 39.12 48.09">
      <g>
        <rect class="cls-2" width="39.12" height="48.09"/>
        <g class="cls-43">
          <rect class="cls-28" x=".5" y=".5" width="38.12" height="47.09"/>
          <rect class="cls-3" x=".5" y=".5" width="38.12" height="47.09"/>
        </g>
      </g>
    </pattern>
    <clipPath id="clippath-15">
      <rect class="cls-2" width="39.12" height="48.09"/>
    </clipPath>
    <pattern id="Unnamed_Pattern_31" data-name="Unnamed Pattern 31" x="0" y="0" width="39.12" height="48.09" patternTransform="translate(180.27 314.85) scale(1 -1)" patternUnits="userSpaceOnUse" viewBox="0 0 39.12 48.09">
      <g>
        <rect class="cls-2" width="39.12" height="48.09"/>
        <g class="cls-47">
          <rect class="cls-28" x=".5" y=".5" width="38.12" height="47.09"/>
          <rect class="cls-3" x=".5" y=".5" width="38.12" height="47.09"/>
        </g>
      </g>
    </pattern>
    <clipPath id="clippath-16">
      <rect class="cls-2" width="39.12" height="48.09"/>
    </clipPath>
    <pattern id="Unnamed_Pattern_32" data-name="Unnamed Pattern 32" x="0" y="0" width="39.12" height="48.09" patternTransform="translate(180.27 314.85) scale(1 -1)" patternUnits="userSpaceOnUse" viewBox="0 0 39.12 48.09">
      <g>
        <rect class="cls-2" width="39.12" height="48.09"/>
        <g class="cls-49">
          <rect class="cls-28" x=".5" y=".5" width="38.12" height="47.09"/>
          <rect class="cls-3" x=".5" y=".5" width="38.12" height="47.09"/>
        </g>
      </g>
    </pattern>
    <clipPath id="clippath-17">
      <rect class="cls-2" width="39.12" height="48.09"/>
    </clipPath>
    <pattern id="Unnamed_Pattern_33" data-name="Unnamed Pattern 33" x="0" y="0" width="39.12" height="48.09" patternTransform="translate(180.27 314.85) scale(1 -1)" patternUnits="userSpaceOnUse" viewBox="0 0 39.12 48.09">
      <g>
        <rect class="cls-2" width="39.12" height="48.09"/>
        <g class="cls-48">
          <rect class="cls-28" x=".5" y=".5" width="38.12" height="47.09"/>
          <rect class="cls-3" x=".5" y=".5" width="38.12" height="47.09"/>
        </g>
      </g>
    </pattern>
    <clipPath id="clippath-18">
      <rect class="cls-2" width="39.12" height="48.09"/>
    </clipPath>
    <pattern id="Unnamed_Pattern_34" data-name="Unnamed Pattern 34" x="0" y="0" width="39.12" height="48.09" patternTransform="translate(180.27 314.85) scale(1 -1)" patternUnits="userSpaceOnUse" viewBox="0 0 39.12 48.09">
      <g>
        <rect class="cls-2" width="39.12" height="48.09"/>
        <g class="cls-52">
          <rect class="cls-28" x=".5" y=".5" width="38.12" height="47.09"/>
          <rect class="cls-3" x=".5" y=".5" width="38.12" height="47.09"/>
        </g>
      </g>
    </pattern>
    <clipPath id="clippath-19">
      <rect class="cls-2" width="39.12" height="48.09"/>
    </clipPath>
    <pattern id="Unnamed_Pattern_35" data-name="Unnamed Pattern 35" x="0" y="0" width="39.12" height="48.09" patternTransform="translate(180.27 314.85) scale(1 -1)" patternUnits="userSpaceOnUse" viewBox="0 0 39.12 48.09">
      <g>
        <rect class="cls-2" width="39.12" height="48.09"/>
        <g class="cls-50">
          <rect class="cls-28" x=".5" y=".5" width="38.12" height="47.09"/>
          <rect class="cls-3" x=".5" y=".5" width="38.12" height="47.09"/>
        </g>
      </g>
    </pattern>
  </defs>
  <rect class="cls-33" width="440.22" height="344.25"/>
  <polyline class="cls-29" points="421.74 256.05 410.14 235.95 390.03 224.34 366.82 224.34 346.72 235.95 335.11 256.05 335.11 279.27 346.72 299.37 366.82 310.97 390.03 310.97 410.14 299.37 421.74 279.27 421.74 256.05"/>
  <polyline class="cls-29" points="330.87 203.59 319.26 183.48 299.16 171.88 275.95 171.88 255.84 183.48 244.24 203.59 244.24 226.8 255.84 246.9 275.95 258.51 299.16 258.51 319.26 246.9 330.87 226.8 330.87 203.59"/>
  <polyline class="cls-29" points="421.74 151.12 410.14 131.02 390.03 119.41 366.82 119.41 346.72 131.02 335.11 151.12 335.11 174.33 346.72 194.43 366.82 206.04 390.03 206.04 410.14 194.43 421.74 174.33 421.74 151.12"/>
  <polyline class="cls-29" points="330.87 98.65 319.26 78.55 299.16 66.94 275.95 66.94 255.84 78.55 244.24 98.65 244.24 121.86 255.84 141.96 275.95 153.57 299.16 153.57 319.26 141.96 330.87 121.86 330.87 98.65"/>
  <polyline class="cls-29" points="421.74 69.4 421.74 46.18 410.14 26.08 390.03 14.48 366.82 14.48 346.72 26.08 335.11 46.18 335.11 69.4 346.72 89.5 366.82 101.1 390.03 101.1 410.14 89.5 421.74 69.4"/>
  <polyline class="cls-30" points="243.91 267.66 232.3 247.56 209.09 247.56 197.48 267.66 209.09 287.76 232.3 287.76 243.91 267.66"/>
  <polyline class="cls-30" points="187.08 195.09 163.87 195.09 152.26 215.19 163.87 235.29 187.08 235.29 198.69 215.19 187.08 195.09"/>
  <polyline class="cls-30" points="243.91 162.72 232.3 142.62 209.09 142.62 197.48 162.72 209.09 182.83 232.3 182.83 243.91 162.72"/>
  <polyline class="cls-30" points="187.08 90.15 163.87 90.15 152.26 110.26 163.87 130.36 187.08 130.36 198.69 110.26 187.08 90.15"/>
  <polyline class="cls-30" points="243.91 57.79 232.3 37.69 209.09 37.69 197.48 57.79 209.09 77.89 232.3 77.89 243.91 57.79"/>
  <rect class="cls-31" x="110.85" y="256.05" width="23.21" height="23.21"/>
  <rect class="cls-31" x="110.85" y="203.59" width="23.21" height="23.21"/>
  <rect class="cls-31" x="110.85" y="151.12" width="23.21" height="23.21"/>
  <rect class="cls-31" x="110.85" y="98.65" width="23.21" height="23.21"/>
  <rect class="cls-31" x="110.85" y="46.18" width="23.21" height="23.21"/>
  <polyline class="cls-32" points="92.64 256.05 72.54 267.66 92.64 279.27 92.64 256.05"/>
  <polyline class="cls-32" points="92.64 203.59 72.54 215.19 92.64 226.8 92.64 203.59"/>
  <polyline class="cls-32" points="92.64 151.12 72.54 162.72 92.64 174.33 92.64 151.12"/>
  <polyline class="cls-32" points="92.64 98.65 72.54 110.26 92.64 121.86 92.64 98.65"/>
  <polyline class="cls-32" points="92.64 46.18 72.54 57.79 92.64 69.4 92.64 46.18"/>
  <polyline class="cls-9" points="330.87 98.65 319.26 78.55 299.16 66.94 275.95 66.94 255.84 78.55 244.24 98.65 244.24 121.86 255.84 141.96 275.95 153.57 299.16 153.57 319.26 141.96 330.87 121.86 330.87 98.65"/>
  <polyline class="cls-6" points="421.74 46.18 410.14 26.08 390.03 14.48 366.82 14.48 346.72 26.08 335.11 46.18 335.11 69.4 346.72 89.5 366.82 101.1 390.03 101.1 410.14 89.5 421.74 69.4 421.74 46.18"/>
  <polyline class="cls-7" points="421.74 151.12 410.14 131.02 390.03 119.41 366.82 119.41 346.72 131.02 335.11 151.12 335.11 174.33 346.72 194.43 366.82 206.04 390.03 206.04 410.14 194.43 421.74 174.33 421.74 151.12"/>
  <polyline class="cls-8" points="330.87 203.59 319.26 183.48 299.16 171.88 275.95 171.88 255.84 183.48 244.24 203.59 244.24 226.8 255.84 246.9 275.95 258.51 299.16 258.51 319.26 246.9 330.87 226.8 330.87 203.59"/>
  <polyline class="cls-5" points="209.09 77.89 232.3 77.89 243.91 57.79 232.3 37.69 209.09 37.69 197.49 57.79 209.09 77.89"/>
  <polyline class="cls-11" points="163.87 130.36 187.08 130.36 198.69 110.26 187.08 90.16 163.87 90.16 152.26 110.26 163.87 130.36"/>
  <polyline class="cls-15" points="209.09 182.83 232.3 182.83 243.91 162.73 232.3 142.62 209.09 142.62 197.49 162.73 209.09 182.83"/>
  <polyline class="cls-16" points="163.87 235.3 187.08 235.3 198.69 215.19 187.08 195.09 163.87 195.09 152.26 215.19 163.87 235.3"/>
  <rect class="cls-14" x="110.85" y="46.19" width="23.21" height="23.21"/>
  <rect class="cls-13" x="110.85" y="98.65" width="23.21" height="23.21"/>
  <rect class="cls-18" x="110.85" y="151.12" width="23.21" height="23.21"/>
  <rect class="cls-17" x="110.85" y="203.59" width="23.21" height="23.21"/>
  <polyline class="cls-10" points="209.09 287.76 232.3 287.76 243.91 267.66 232.3 247.56 209.09 247.56 197.48 267.66 209.09 287.76"/>
  <rect class="cls-12" x="110.85" y="256.06" width="23.21" height="23.21"/>
  <polyline class="cls-19" points="421.74 256.06 410.14 235.95 390.03 224.35 366.82 224.35 346.72 235.95 335.11 256.06 335.11 279.27 346.72 299.37 366.82 310.98 390.03 310.98 410.14 299.37 421.74 279.27 421.74 256.06"/>
  <polyline class="cls-20" points="92.64 69.4 92.64 46.19 72.54 57.79 92.64 69.4"/>
  <polyline class="cls-21" points="92.64 121.87 92.64 98.65 72.54 110.26 92.64 121.87"/>
  <polyline class="cls-23" points="92.64 174.33 92.64 151.12 72.54 162.73 92.64 174.33"/>
  <polyline class="cls-22" points="92.64 226.8 92.64 203.59 72.54 215.2 92.64 226.8"/>
  <polyline class="cls-24" points="92.64 279.27 92.64 256.06 72.54 267.66 92.64 279.27"/>
  <polyline class="cls-4" points="370.5 44.06 378.43 14.48 386.36 44.06"/>
  <polyline class="cls-4" points="364.7 49.86 356.77 20.28 378.43 41.94"/>
  <polyline class="cls-4" points="362.57 57.79 340.92 36.13 370.5 44.06"/>
  <polyline class="cls-4" points="364.7 65.72 335.11 57.79 364.7 49.86"/>
  <polyline class="cls-4" points="370.5 71.52 340.92 79.45 362.57 57.79"/>
  <polyline class="cls-4" points="378.43 73.64 356.77 95.3 364.7 65.72"/>
  <polyline class="cls-4" points="386.36 71.52 378.43 101.1 370.5 71.52"/>
  <polyline class="cls-4" points="392.16 65.72 400.09 95.3 378.43 73.64"/>
  <polyline class="cls-4" points="394.28 57.79 415.94 79.45 386.36 71.52"/>
  <polyline class="cls-4" points="392.16 49.86 421.74 57.79 392.16 65.72"/>
  <polyline class="cls-4" points="386.36 44.06 415.94 36.13 394.28 57.79"/>
  <polyline class="cls-4" points="378.43 41.94 400.09 20.28 392.16 49.86"/>
  <polyline class="cls-4" points="275.05 88.6 287.55 66.94 300.06 88.6"/>
  <polyline class="cls-4" points="265.9 97.75 265.9 72.75 287.55 85.25"/>
  <polyline class="cls-4" points="262.55 110.26 250.04 88.6 275.05 88.6"/>
  <polyline class="cls-4" points="265.9 122.76 244.24 110.26 265.9 97.75"/>
  <polyline class="cls-4" points="275.05 131.91 250.04 131.91 262.55 110.26"/>
  <polyline class="cls-4" points="287.55 135.26 265.9 147.77 265.9 122.76"/>
  <polyline class="cls-4" points="300.06 131.91 287.55 153.57 275.05 131.91"/>
  <polyline class="cls-4" points="309.21 122.76 309.21 147.77 287.55 135.26"/>
  <polyline class="cls-4" points="312.56 110.26 325.07 131.91 300.06 131.91"/>
  <polyline class="cls-4" points="309.21 97.75 330.87 110.26 309.21 122.76"/>
  <polyline class="cls-4" points="300.06 88.6 325.07 88.6 312.56 110.26"/>
  <polyline class="cls-4" points="287.55 85.25 309.21 72.75 309.21 97.75"/>
  <line class="cls-4" x1="378.43" y1="119.41" x2="394.28" y2="135.26"/>
  <line class="cls-4" x1="378.43" y1="119.41" x2="362.57" y2="135.26"/>
  <line class="cls-4" x1="356.77" y1="125.21" x2="378.43" y2="131.02"/>
  <line class="cls-4" x1="356.77" y1="125.21" x2="350.97" y2="146.87"/>
  <line class="cls-4" x1="340.92" y1="141.07" x2="362.57" y2="135.26"/>
  <line class="cls-4" x1="340.92" y1="141.07" x2="346.72" y2="162.72"/>
  <line class="cls-4" x1="335.12" y1="162.72" x2="350.97" y2="146.87"/>
  <line class="cls-4" x1="335.12" y1="162.72" x2="350.97" y2="178.58"/>
  <line class="cls-4" x1="340.92" y1="184.38" x2="346.72" y2="162.72"/>
  <line class="cls-4" x1="340.92" y1="184.38" x2="362.57" y2="190.18"/>
  <line class="cls-4" x1="356.77" y1="200.23" x2="350.97" y2="178.58"/>
  <line class="cls-4" x1="356.77" y1="200.23" x2="378.43" y2="194.43"/>
  <line class="cls-4" x1="378.43" y1="206.04" x2="362.57" y2="190.18"/>
  <line class="cls-4" x1="378.43" y1="206.04" x2="394.28" y2="190.18"/>
  <line class="cls-4" x1="400.09" y1="200.23" x2="378.43" y2="194.43"/>
  <line class="cls-4" x1="400.09" y1="200.23" x2="405.89" y2="178.58"/>
  <line class="cls-4" x1="415.94" y1="184.38" x2="394.28" y2="190.18"/>
  <line class="cls-4" x1="415.94" y1="184.38" x2="410.14" y2="162.72"/>
  <line class="cls-4" x1="421.74" y1="162.72" x2="405.89" y2="178.58"/>
  <line class="cls-4" x1="421.74" y1="162.72" x2="405.89" y2="146.87"/>
  <line class="cls-4" x1="415.94" y1="141.07" x2="410.14" y2="162.72"/>
  <line class="cls-4" x1="415.94" y1="141.07" x2="394.28" y2="135.26"/>
  <line class="cls-4" x1="400.09" y1="125.21" x2="405.89" y2="146.87"/>
  <line class="cls-4" x1="400.09" y1="125.21" x2="378.43" y2="131.02"/>
  <polyline class="cls-4" points="270.59 181.67 287.55 171.88 304.52 181.67"/>
  <polyline class="cls-4" points="256.1 194.65 265.9 177.68 285.49 177.68"/>
  <polyline class="cls-4" points="250.04 213.12 250.04 193.53 267.01 183.74"/>
  <polyline class="cls-4" points="254.03 232.16 244.24 215.19 254.03 198.23"/>
  <polyline class="cls-4" points="267.01 246.64 250.04 236.85 250.04 217.26"/>
  <polyline class="cls-4" points="285.49 252.7 265.9 252.7 256.1 235.74"/>
  <polyline class="cls-4" points="304.52 248.71 287.55 258.51 270.59 248.71"/>
  <polyline class="cls-4" points="319.01 235.74 309.21 252.7 289.62 252.7"/>
  <polyline class="cls-4" points="325.07 217.26 325.07 236.85 308.1 246.64"/>
  <polyline class="cls-4" points="321.07 198.23 330.87 215.19 321.07 232.16"/>
  <polyline class="cls-4" points="308.1 183.74 325.07 193.53 325.07 213.12"/>
  <polyline class="cls-4" points="289.62 177.68 309.21 177.68 319.01 194.65"/>
  <line class="cls-4" x1="293.01" y1="205.75" x2="285.49" y2="177.68"/>
  <line class="cls-4" x1="282.1" y1="205.75" x2="289.62" y2="177.68"/>
  <line class="cls-4" x1="287.55" y1="204.28" x2="267.01" y2="183.74"/>
  <line class="cls-4" x1="278.11" y1="209.74" x2="270.59" y2="181.67"/>
  <line class="cls-4" x1="282.1" y1="205.75" x2="254.03" y2="198.23"/>
  <line class="cls-4" x1="276.65" y1="215.19" x2="256.1" y2="194.65"/>
  <line class="cls-4" x1="278.11" y1="209.74" x2="250.04" y2="217.26"/>
  <line class="cls-4" x1="278.11" y1="220.64" x2="250.04" y2="213.12"/>
  <line class="cls-4" x1="276.65" y1="215.19" x2="256.1" y2="235.74"/>
  <line class="cls-4" x1="282.1" y1="224.64" x2="254.03" y2="232.16"/>
  <line class="cls-4" x1="278.11" y1="220.64" x2="270.59" y2="248.71"/>
  <line class="cls-4" x1="287.55" y1="226.1" x2="267.01" y2="246.64"/>
  <line class="cls-4" x1="282.1" y1="224.64" x2="289.62" y2="252.7"/>
  <line class="cls-4" x1="293.01" y1="224.64" x2="285.49" y2="252.7"/>
  <line class="cls-4" x1="287.55" y1="226.1" x2="308.1" y2="246.64"/>
  <line class="cls-4" x1="297" y1="220.64" x2="304.52" y2="248.71"/>
  <line class="cls-4" x1="293.01" y1="224.64" x2="321.07" y2="232.16"/>
  <line class="cls-4" x1="298.46" y1="215.19" x2="319.01" y2="235.74"/>
  <line class="cls-4" x1="297" y1="220.64" x2="325.07" y2="213.12"/>
  <line class="cls-4" x1="297" y1="209.74" x2="325.07" y2="217.26"/>
  <line class="cls-4" x1="298.46" y1="215.19" x2="319.01" y2="194.65"/>
  <line class="cls-4" x1="293.01" y1="205.75" x2="321.07" y2="198.23"/>
  <line class="cls-4" x1="297" y1="209.74" x2="304.52" y2="181.67"/>
  <line class="cls-4" x1="287.55" y1="204.28" x2="308.1" y2="183.74"/>
  <line class="cls-4" x1="220.7" y1="77.89" x2="217.02" y2="64.16"/>
  <line class="cls-4" x1="224.38" y1="64.16" x2="220.7" y2="77.89"/>
  <line class="cls-4" x1="213.34" y1="57.79" x2="203.29" y2="47.74"/>
  <polyline class="cls-4" points="217.02 64.16 203.29 67.84 213.34 57.79"/>
  <line class="cls-4" x1="203.29" y1="47.74" x2="217.02" y2="51.42"/>
  <line class="cls-4" x1="224.38" y1="51.42" x2="238.11" y2="47.74"/>
  <line class="cls-4" x1="238.11" y1="67.84" x2="224.38" y2="64.16"/>
  <polyline class="cls-4" points="217.02 51.42 220.7 37.69 224.38 51.42"/>
  <polyline class="cls-4" points="238.11 47.74 228.06 57.79 238.11 67.84"/>
  <line class="cls-4" x1="175.48" y1="130.36" x2="181.28" y2="120.31"/>
  <line class="cls-4" x1="169.67" y1="120.31" x2="175.48" y2="130.36"/>
  <line class="cls-4" x1="158.07" y1="100.21" x2="163.87" y2="110.26"/>
  <line class="cls-4" x1="158.07" y1="120.31" x2="163.87" y2="110.26"/>
  <line class="cls-4" x1="169.67" y1="120.31" x2="158.07" y2="120.31"/>
  <line class="cls-4" x1="169.67" y1="100.21" x2="158.07" y2="100.21"/>
  <line class="cls-4" x1="192.89" y1="120.31" x2="181.28" y2="120.31"/>
  <line class="cls-4" x1="192.89" y1="100.21" x2="181.28" y2="100.21"/>
  <polyline class="cls-4" points="169.67 100.21 175.48 90.15 181.28 100.21"/>
  <line class="cls-4" x1="187.08" y1="110.26" x2="192.89" y2="100.21"/>
  <line class="cls-4" x1="187.08" y1="110.26" x2="192.89" y2="120.31"/>
  <line class="cls-4" x1="203.29" y1="152.67" x2="213.34" y2="149.98"/>
  <line class="cls-4" x1="203.29" y1="172.78" x2="213.34" y2="175.47"/>
  <line class="cls-4" x1="203.29" y1="172.78" x2="205.98" y2="162.72"/>
  <line class="cls-4" x1="203.29" y1="152.67" x2="205.98" y2="162.72"/>
  <line class="cls-4" x1="238.11" y1="172.78" x2="235.41" y2="162.72"/>
  <line class="cls-4" x1="220.7" y1="182.83" x2="228.06" y2="175.47"/>
  <line class="cls-4" x1="220.7" y1="182.83" x2="213.34" y2="175.47"/>
  <line class="cls-4" x1="238.11" y1="172.78" x2="228.06" y2="175.47"/>
  <line class="cls-4" x1="220.7" y1="142.62" x2="228.06" y2="149.98"/>
  <line class="cls-4" x1="220.7" y1="142.62" x2="213.34" y2="149.98"/>
  <line class="cls-4" x1="238.11" y1="152.67" x2="228.06" y2="149.98"/>
  <line class="cls-4" x1="238.11" y1="152.67" x2="235.41" y2="162.72"/>
  <line class="cls-4" x1="175.48" y1="235.29" x2="158.07" y2="225.24"/>
  <line class="cls-4" x1="192.89" y1="225.24" x2="175.48" y2="235.29"/>
  <line class="cls-4" x1="158.07" y1="205.14" x2="175.48" y2="195.09"/>
  <line class="cls-4" x1="158.07" y1="225.24" x2="158.07" y2="205.14"/>
  <polyline class="cls-4" points="175.48 195.09 192.89 205.14 192.89 225.24"/>
  <polyline class="cls-4" points="120 55.34 122.45 46.18 124.91 55.34"/>
  <polyline class="cls-4" points="120 60.24 110.85 57.79 120 55.34"/>
  <polyline class="cls-4" points="124.91 60.24 122.45 69.4 120 60.24"/>
  <polyline class="cls-4" points="124.91 55.34 134.06 57.79 124.91 60.24"/>
  <polyline class="cls-4" points="118.21 106.01 122.45 98.65 126.7 106.01"/>
  <polyline class="cls-4" points="118.21 114.51 110.85 110.26 118.21 106.01"/>
  <polyline class="cls-4" points="126.7 114.51 122.45 121.86 118.21 114.51"/>
  <polyline class="cls-4" points="126.7 106.01 134.06 110.26 126.7 114.51"/>
  <polyline class="cls-4" points="122.45 151.12 110.85 162.73 122.45 174.33 134.06 162.73 122.45 151.12"/>
  <polyline class="cls-4" points="115.1 207.84 122.45 203.59 129.81 207.84"/>
  <polyline class="cls-4" points="115.1 222.55 110.85 215.19 115.1 207.84"/>
  <polyline class="cls-4" points="129.81 222.55 122.45 226.8 115.1 222.55"/>
  <polyline class="cls-4" points="129.81 207.84 134.06 215.19 129.81 222.55"/>
  <polyline class="cls-4" points="122.45 256.05 114.25 259.45 110.85 267.66 114.25 275.87 122.45 279.27 130.66 275.87 134.06 267.66 130.66 259.45 122.45 256.05"/>
  <line class="cls-4" x1="220.7" y1="247.56" x2="213.94" y2="250.36"/>
  <line class="cls-4" x1="227.46" y1="250.36" x2="220.7" y2="247.56"/>
  <line class="cls-4" x1="203.29" y1="257.61" x2="202.33" y2="264.86"/>
  <line class="cls-4" x1="209.09" y1="253.16" x2="203.29" y2="257.61"/>
  <line class="cls-4" x1="203.29" y1="277.71" x2="209.09" y2="282.16"/>
  <line class="cls-4" x1="202.33" y1="270.46" x2="203.29" y2="277.71"/>
  <line class="cls-4" x1="220.7" y1="287.76" x2="227.46" y2="284.96"/>
  <line class="cls-4" x1="213.94" y1="284.96" x2="220.7" y2="287.76"/>
  <line class="cls-4" x1="238.11" y1="277.71" x2="239.06" y2="270.46"/>
  <line class="cls-4" x1="232.3" y1="282.16" x2="238.11" y2="277.71"/>
  <line class="cls-4" x1="238.11" y1="257.61" x2="232.3" y2="253.16"/>
  <line class="cls-4" x1="239.06" y1="264.86" x2="238.11" y2="257.61"/>
  <line class="cls-4" x1="213.94" y1="250.36" x2="215.85" y2="264.86"/>
  <line class="cls-4" x1="209.09" y1="253.16" x2="220.7" y2="262.06"/>
  <line class="cls-4" x1="202.33" y1="264.86" x2="215.85" y2="270.46"/>
  <line class="cls-4" x1="202.33" y1="270.46" x2="215.85" y2="264.86"/>
  <line class="cls-4" x1="209.09" y1="282.16" x2="220.7" y2="273.26"/>
  <line class="cls-4" x1="213.94" y1="284.96" x2="215.85" y2="270.46"/>
  <line class="cls-4" x1="227.46" y1="284.96" x2="225.55" y2="270.46"/>
  <line class="cls-4" x1="232.3" y1="282.16" x2="220.7" y2="273.26"/>
  <line class="cls-4" x1="239.06" y1="270.46" x2="225.54" y2="264.86"/>
  <line class="cls-4" x1="239.06" y1="264.86" x2="225.54" y2="270.46"/>
  <line class="cls-4" x1="232.3" y1="253.15" x2="220.7" y2="262.06"/>
  <line class="cls-4" x1="227.45" y1="250.36" x2="225.54" y2="264.86"/>
  <line class="cls-4" x1="378.43" y1="224.34" x2="371.67" y2="227.14"/>
  <line class="cls-4" x1="385.19" y1="227.14" x2="378.43" y2="224.34"/>
  <line class="cls-4" x1="356.77" y1="230.15" x2="352.32" y2="235.95"/>
  <line class="cls-4" x1="364.02" y1="229.19" x2="356.77" y2="230.15"/>
  <line class="cls-4" x1="340.92" y1="246" x2="339.96" y2="253.25"/>
  <line class="cls-4" x1="346.72" y1="241.55" x2="340.92" y2="246"/>
  <line class="cls-4" x1="335.11" y1="267.66" x2="337.91" y2="274.42"/>
  <line class="cls-4" x1="337.91" y1="260.9" x2="335.11" y2="267.66"/>
  <line class="cls-4" x1="340.92" y1="289.32" x2="346.72" y2="293.77"/>
  <line class="cls-4" x1="339.96" y1="282.06" x2="340.92" y2="289.32"/>
  <line class="cls-4" x1="356.77" y1="305.17" x2="364.02" y2="306.13"/>
  <line class="cls-4" x1="352.32" y1="299.37" x2="356.77" y2="305.17"/>
  <line class="cls-4" x1="378.43" y1="310.97" x2="385.19" y2="308.17"/>
  <line class="cls-4" x1="371.67" y1="308.17" x2="378.43" y2="310.97"/>
  <line class="cls-4" x1="400.08" y1="305.17" x2="404.54" y2="299.37"/>
  <line class="cls-4" x1="392.83" y1="306.13" x2="400.08" y2="305.17"/>
  <line class="cls-4" x1="415.94" y1="289.32" x2="416.89" y2="282.06"/>
  <line class="cls-4" x1="410.14" y1="293.77" x2="415.94" y2="289.32"/>
  <line class="cls-4" x1="421.74" y1="267.66" x2="418.94" y2="260.9"/>
  <line class="cls-4" x1="418.94" y1="274.42" x2="421.74" y2="267.66"/>
  <line class="cls-4" x1="415.94" y1="246" x2="410.14" y2="241.55"/>
  <line class="cls-4" x1="416.89" y1="253.25" x2="415.94" y2="246"/>
  <line class="cls-4" x1="400.08" y1="230.15" x2="392.83" y2="229.19"/>
  <line class="cls-4" x1="404.54" y1="235.95" x2="400.08" y2="230.15"/>
  <line class="cls-4" x1="385.19" y1="227.14" x2="392.32" y2="253.77"/>
  <line class="cls-4" x1="397.4" y1="272.74" x2="404.54" y2="299.37"/>
  <line class="cls-4" x1="364.02" y1="229.19" x2="383.51" y2="248.68"/>
  <line class="cls-4" x1="397.4" y1="262.57" x2="416.89" y2="282.06"/>
  <line class="cls-4" x1="346.72" y1="241.55" x2="373.34" y2="248.68"/>
  <line class="cls-4" x1="392.32" y1="253.77" x2="418.94" y2="260.9"/>
  <line class="cls-4" x1="337.91" y1="260.9" x2="364.54" y2="253.77"/>
  <line class="cls-4" x1="383.51" y1="248.68" x2="410.14" y2="241.55"/>
  <line class="cls-4" x1="339.96" y1="282.06" x2="359.45" y2="262.57"/>
  <line class="cls-4" x1="373.34" y1="248.68" x2="392.83" y2="229.19"/>
  <line class="cls-4" x1="352.32" y1="299.37" x2="359.45" y2="272.74"/>
  <line class="cls-4" x1="364.54" y1="253.77" x2="371.67" y2="227.14"/>
  <line class="cls-4" x1="371.67" y1="308.17" x2="364.54" y2="281.55"/>
  <line class="cls-4" x1="359.45" y1="262.57" x2="352.32" y2="235.95"/>
  <line class="cls-4" x1="392.83" y1="306.13" x2="373.34" y2="286.64"/>
  <line class="cls-4" x1="359.45" y1="272.74" x2="339.96" y2="253.25"/>
  <line class="cls-4" x1="410.14" y1="293.77" x2="383.51" y2="286.64"/>
  <line class="cls-4" x1="364.54" y1="281.55" x2="337.91" y2="274.42"/>
  <line class="cls-4" x1="418.94" y1="274.42" x2="392.32" y2="281.55"/>
  <line class="cls-4" x1="373.34" y1="286.64" x2="346.72" y2="293.77"/>
  <line class="cls-4" x1="416.89" y1="253.25" x2="397.4" y2="272.74"/>
  <line class="cls-4" x1="383.51" y1="286.64" x2="364.02" y2="306.13"/>
  <line class="cls-4" x1="404.54" y1="235.95" x2="397.4" y2="262.57"/>
  <line class="cls-4" x1="392.32" y1="281.55" x2="385.19" y2="308.17"/>
  <polyline class="cls-4" points="86.84 56.23 92.64 57.79 86.84 59.34"/>
  <polyline class="cls-4" points="84.14 57.79 82.59 51.99 86.84 56.23"/>
  <polyline class="cls-4" points="86.84 59.34 82.59 63.59 84.14 57.79"/>
  <polyline class="cls-4" points="92.64 110.26 82.59 104.45 82.59 116.06 92.64 110.26"/>
  <polyline class="cls-4" points="88.39 166.97 92.64 162.72 88.39 158.48 82.59 156.92 81.03 162.72 82.59 168.53 88.39 166.97"/>
  <polyline class="cls-4" points="89.29 209.39 92.64 215.19 89.29 221"/>
  <polyline class="cls-4" points="79.24 215.19 82.59 209.39 89.29 209.39"/>
  <polyline class="cls-4" points="89.29 221 82.59 221 79.24 215.19"/>
  <polyline class="cls-4" points="89.84 274.42 92.64 267.66 89.84 260.9 82.59 261.86 78.14 267.66 82.59 273.46 89.84 274.42"/>
  <line class="cls-1" x1="141.12" y1="57.79" x2="190.42" y2="57.79"/>
  <line class="cls-1" x1="250.97" y1="57.79" x2="328.05" y2="57.79"/>
  <line class="cls-1" x1="205.75" y1="110.26" x2="237.17" y2="110.26"/>
  <line class="cls-1" x1="141.12" y1="162.72" x2="190.42" y2="162.72"/>
  <line class="cls-1" x1="250.97" y1="162.72" x2="328.05" y2="162.72"/>
  <line class="cls-1" x1="205.75" y1="215.19" x2="237.17" y2="215.19"/>
  <line class="cls-1" x1="141.12" y1="267.66" x2="190.42" y2="267.66"/>
  <line class="cls-1" x1="250.97" y1="267.66" x2="328.05" y2="267.66"/>
  <text class="cls-25" transform="translate(14.48 52.63)"><tspan x="0" y="0">Acute</tspan></text>
  <text class="cls-26" transform="translate(37.49 52.63)"><tspan x="0" y="0" xml:space="preserve"> with</tspan></text>
  <text class="cls-26" transform="translate(14.48 63.43)"><tspan x="0" y="0">30° angles</tspan></text>
  <text class="cls-25" transform="translate(14.48 105.05)"><tspan x="0" y="0">Median</tspan></text>
  <text class="cls-26" transform="translate(43.99 105.05)"><tspan x="0" y="0" xml:space="preserve"> with</tspan></text>
  <text class="cls-26" transform="translate(14.48 115.85)"><tspan x="0" y="0">60° angles</tspan></text>
  <text class="cls-25" transform="translate(14.48 157.52)"><tspan x="0" y="0">Median</tspan></text>
  <text class="cls-26" transform="translate(43.99 157.52)"><tspan x="0" y="0" xml:space="preserve"> with</tspan></text>
  <text class="cls-26" transform="translate(14.48 168.32)"><tspan x="0" y="0">90° angles</tspan></text>
  <text class="cls-25" transform="translate(14.48 209.99)"><tspan x="0" y="0">Obtuse</tspan></text>
  <text class="cls-26" transform="translate(43.49 209.99)"><tspan x="0" y="0" xml:space="preserve"> with</tspan></text>
  <text class="cls-26" transform="translate(14.48 220.79)"><tspan x="0" y="0">120° angles</tspan></text>
  <text class="cls-25" transform="translate(14.48 262.46)"><tspan x="0" y="0">Obtuse</tspan></text>
  <text class="cls-26" transform="translate(43.49 262.46)"><tspan x="0" y="0" xml:space="preserve"> with</tspan></text>
  <text class="cls-26" transform="translate(14.48 273.26)"><tspan x="0" y="0">135° angles</tspan></text>
</svg>