<?xml version="1.0" encoding="UTF-8"?>
<svg id="Layer_1" data-name="Layer 1" xmlns="http://www.w3.org/2000/svg" viewBox="0 0 886.81 1056.52">
  <defs>
    <style>
      .cls-1 {
        fill: none;
        stroke: #000;
        stroke-miterlimit: 10;
        stroke-width: .1px;
      }

      .cls-2, .cls-3 {
        stroke-width: 0px;
      }

      .cls-3 {
        fill: red;
      }
    </style>
  </defs>
  <polyline class="cls-2" points="349.76 537.06 409.76 537.06 452.18 579.48 494.61 537.06 494.61 477.06 434.61 477.06 392.18 434.63 349.76 477.06"/>
  <polygon class="cls-1" points="349.76 537.06 409.76 537.06 452.18 579.48 494.61 537.06 494.61 477.06 434.61 477.06 392.18 434.63 349.76 477.06 349.76 537.06"/>
  <polyline class="cls-3" points="434.61 477.06 494.61 477.06 494.61 417.06 537.04 374.63 494.61 332.2 434.61 332.2 434.61 392.2 392.18 434.63"/>
  <polygon class="cls-1" points="434.61 477.06 494.61 477.06 494.61 417.06 537.04 374.63 494.61 332.2 434.61 332.2 434.61 392.2 392.18 434.63 434.61 477.06"/>
  <polyline class="cls-3" points="409.76 537.06 349.76 537.06 349.76 597.06 307.33 639.48 349.76 681.91 409.76 681.91 409.76 621.91 452.18 579.48"/>
  <polygon class="cls-1" points="409.76 537.06 349.76 537.06 349.76 597.06 307.33 639.48 349.76 681.91 409.76 681.91 409.76 621.91 452.18 579.48 409.76 537.06"/>
  <polyline class="cls-3" points="392.18 434.63 349.76 392.2 289.76 392.2 289.76 452.2 247.33 494.63 289.76 537.06 349.76 537.06 349.76 477.06"/>
  <polygon class="cls-1" points="392.18 434.63 349.76 392.2 289.76 392.2 289.76 452.2 247.33 494.63 289.76 537.06 349.76 537.06 349.76 477.06 392.18 434.63"/>
  <polyline class="cls-2" points="392.18 434.63 434.61 392.2 434.61 332.2 374.61 332.2 332.18 289.78 289.76 332.2 289.76 392.2 349.76 392.2"/>
  <polygon class="cls-1" points="392.18 434.63 434.61 392.2 434.61 332.2 374.61 332.2 332.18 289.78 289.76 332.2 289.76 392.2 349.76 392.2 392.18 434.63"/>
  <polyline class="cls-3" points="452.18 579.48 494.61 621.91 554.61 621.91 554.61 561.91 597.04 519.48 554.61 477.06 494.61 477.06 494.61 537.06"/>
  <polygon class="cls-1" points="452.18 579.48 494.61 621.91 554.61 621.91 554.61 561.91 597.04 519.48 554.61 477.06 494.61 477.06 494.61 537.06 452.18 579.48"/>
  <polyline class="cls-2" points="452.18 579.48 409.76 621.91 409.76 681.91 469.76 681.91 512.18 724.33 554.61 681.91 554.61 621.91 494.61 621.91"/>
  <polygon class="cls-1" points="452.18 579.48 409.76 621.91 409.76 681.91 469.76 681.91 512.18 724.33 554.61 681.91 554.61 621.91 494.61 621.91 452.18 579.48"/>
  <polyline class="cls-2" points="494.61 477.06 554.61 477.06 597.04 519.48 639.46 477.06 639.46 417.06 579.46 417.06 537.04 374.63 494.61 417.06"/>
  <polygon class="cls-1" points="494.61 477.06 554.61 477.06 597.04 519.48 639.46 477.06 639.46 417.06 579.46 417.06 537.04 374.63 494.61 417.06 494.61 477.06"/>
  <polyline class="cls-2" points="349.76 537.06 289.76 537.06 247.33 494.63 204.9 537.06 204.9 597.06 264.9 597.06 307.33 639.48 349.76 597.06"/>
  <polygon class="cls-1" points="349.76 537.06 289.76 537.06 247.33 494.63 204.9 537.06 204.9 597.06 264.9 597.06 307.33 639.48 349.76 597.06 349.76 537.06"/>
  <polyline class="cls-2" points="537.04 374.63 579.46 332.2 579.46 272.2 519.46 272.2 477.04 229.78 434.61 272.2 434.61 332.2 494.61 332.2"/>
  <polygon class="cls-1" points="537.04 374.63 579.46 332.2 579.46 272.2 519.46 272.2 477.04 229.78 434.61 272.2 434.61 332.2 494.61 332.2 537.04 374.63"/>
  <polyline class="cls-3" points="537.04 374.63 579.46 417.06 639.46 417.06 639.46 357.06 681.89 314.63 639.46 272.2 579.46 272.2 579.46 332.2"/>
  <polygon class="cls-1" points="537.04 374.63 579.46 417.06 639.46 417.06 639.46 357.06 681.89 314.63 639.46 272.2 579.46 272.2 579.46 332.2 537.04 374.63"/>
  <polyline class="cls-2" points="554.61 621.91 614.61 621.91 657.04 664.33 699.46 621.91 699.46 561.91 639.46 561.91 597.04 519.48 554.61 561.91"/>
  <polygon class="cls-1" points="554.61 621.91 614.61 621.91 657.04 664.33 699.46 621.91 699.46 561.91 639.46 561.91 597.04 519.48 554.61 561.91 554.61 621.91"/>
  <polyline class="cls-3" points="554.61 621.91 554.61 681.91 512.18 724.33 554.61 766.76 614.61 766.76 614.61 706.76 657.04 664.33 614.61 621.91"/>
  <polygon class="cls-1" points="554.61 621.91 554.61 681.91 512.18 724.33 554.61 766.76 614.61 766.76 614.61 706.76 657.04 664.33 614.61 621.91 554.61 621.91"/>
  <polyline class="cls-3" points="434.61 332.2 434.61 272.2 477.04 229.78 434.61 187.35 374.61 187.35 374.61 247.35 332.18 289.78 374.61 332.2"/>
  <polygon class="cls-1" points="434.61 332.2 434.61 272.2 477.04 229.78 434.61 187.35 374.61 187.35 374.61 247.35 332.18 289.78 374.61 332.2 434.61 332.2"/>
  <polyline class="cls-2" points="307.33 639.48 264.9 681.91 264.9 741.91 324.9 741.91 367.33 784.33 409.76 741.91 409.76 681.91 349.76 681.91"/>
  <polygon class="cls-1" points="307.33 639.48 264.9 681.91 264.9 741.91 324.9 741.91 367.33 784.33 409.76 741.91 409.76 681.91 349.76 681.91 307.33 639.48"/>
  <polyline class="cls-3" points="307.33 639.48 264.9 597.06 204.9 597.06 204.9 657.06 162.48 699.48 204.9 741.91 264.9 741.91 264.9 681.91"/>
  <polygon class="cls-1" points="307.33 639.48 264.9 597.06 204.9 597.06 204.9 657.06 162.48 699.48 204.9 741.91 264.9 741.91 264.9 681.91 307.33 639.48"/>
  <polyline class="cls-3" points="409.76 681.91 409.76 741.91 367.33 784.33 409.76 826.76 469.76 826.76 469.76 766.76 512.18 724.33 469.76 681.91"/>
  <polygon class="cls-1" points="409.76 681.91 409.76 741.91 367.33 784.33 409.76 826.76 469.76 826.76 469.76 766.76 512.18 724.33 469.76 681.91 409.76 681.91"/>
  <polyline class="cls-3" points="289.76 332.2 332.18 289.78 289.76 247.35 229.76 247.35 229.76 307.35 187.33 349.78 229.76 392.2 289.76 392.2"/>
  <polygon class="cls-1" points="289.76 332.2 332.18 289.78 289.76 247.35 229.76 247.35 229.76 307.35 187.33 349.78 229.76 392.2 289.76 392.2 289.76 332.2"/>
  <polyline class="cls-2" points="289.76 392.2 229.76 392.2 187.33 349.78 144.9 392.2 144.9 452.2 204.9 452.2 247.33 494.63 289.76 452.2"/>
  <polygon class="cls-1" points="289.76 392.2 229.76 392.2 187.33 349.78 144.9 392.2 144.9 452.2 204.9 452.2 247.33 494.63 289.76 452.2 289.76 392.2"/>
  <polyline class="cls-2" points="332.18 289.78 374.61 247.35 374.61 187.35 314.61 187.35 272.18 144.92 229.76 187.35 229.76 247.35 289.76 247.35"/>
  <polygon class="cls-1" points="332.18 289.78 374.61 247.35 374.61 187.35 314.61 187.35 272.18 144.92 229.76 187.35 229.76 247.35 289.76 247.35 332.18 289.78"/>
  <polyline class="cls-2" points="512.18 724.33 469.76 766.76 469.76 826.76 529.76 826.76 572.18 869.19 614.61 826.76 614.61 766.76 554.61 766.76"/>
  <polygon class="cls-1" points="512.18 724.33 469.76 766.76 469.76 826.76 529.76 826.76 572.18 869.19 614.61 826.76 614.61 766.76 554.61 766.76 512.18 724.33"/>
  <polyline class="cls-3" points="597.04 519.48 639.46 561.91 699.46 561.91 699.46 501.91 741.89 459.48 699.46 417.06 639.46 417.06 639.46 477.06"/>
  <polygon class="cls-1" points="597.04 519.48 639.46 561.91 699.46 561.91 699.46 501.91 741.89 459.48 699.46 417.06 639.46 417.06 639.46 477.06 597.04 519.48"/>
  <polyline class="cls-3" points="579.46 272.2 579.46 212.2 621.89 169.78 579.46 127.35 519.46 127.35 519.46 187.35 477.04 229.78 519.46 272.2"/>
  <polygon class="cls-1" points="579.46 272.2 579.46 212.2 621.89 169.78 579.46 127.35 519.46 127.35 519.46 187.35 477.04 229.78 519.46 272.2 579.46 272.2"/>
  <polyline class="cls-2" points="579.46 272.2 639.46 272.2 681.89 314.63 724.32 272.2 724.32 212.2 664.32 212.2 621.89 169.78 579.46 212.2"/>
  <polygon class="cls-1" points="579.46 272.2 639.46 272.2 681.89 314.63 724.32 272.2 724.32 212.2 664.32 212.2 621.89 169.78 579.46 212.2 579.46 272.2"/>
  <polyline class="cls-3" points="264.9 741.91 264.9 801.91 222.48 844.33 264.9 886.76 324.9 886.76 324.9 826.76 367.33 784.33 324.9 741.91"/>
  <polygon class="cls-1" points="264.9 741.91 264.9 801.91 222.48 844.33 264.9 886.76 324.9 886.76 324.9 826.76 367.33 784.33 324.9 741.91 264.9 741.91"/>
  <polyline class="cls-2" points="264.9 741.91 204.9 741.91 162.48 699.48 120.05 741.91 120.05 801.91 180.05 801.91 222.48 844.33 264.9 801.91"/>
  <polygon class="cls-1" points="264.9 741.91 204.9 741.91 162.48 699.48 120.05 741.91 120.05 801.91 180.05 801.91 222.48 844.33 264.9 801.91 264.9 741.91"/>
  <polyline class="cls-2" points="614.61 706.76 614.61 766.76 674.61 766.76 717.04 809.19 759.46 766.76 759.46 706.76 699.46 706.76 657.04 664.33"/>
  <polygon class="cls-1" points="614.61 706.76 614.61 766.76 674.61 766.76 717.04 809.19 759.46 766.76 759.46 706.76 699.46 706.76 657.04 664.33 614.61 706.76"/>
  <polyline class="cls-3" points="247.33 494.63 204.9 452.2 144.9 452.2 144.9 512.2 102.48 554.63 144.9 597.06 204.9 597.06 204.9 537.06"/>
  <polygon class="cls-1" points="247.33 494.63 204.9 452.2 144.9 452.2 144.9 512.2 102.48 554.63 144.9 597.06 204.9 597.06 204.9 537.06 247.33 494.63"/>
  <polyline class="cls-3" points="614.61 766.76 614.61 826.76 572.18 869.19 614.61 911.61 674.61 911.61 674.61 851.61 717.04 809.19 674.61 766.76"/>
  <polygon class="cls-1" points="614.61 766.76 614.61 826.76 572.18 869.19 614.61 911.61 674.61 911.61 674.61 851.61 717.04 809.19 674.61 766.76 614.61 766.76"/>
  <polyline class="cls-2" points="477.04 229.78 519.46 187.35 519.46 127.35 459.46 127.35 417.04 84.92 374.61 127.35 374.61 187.35 434.61 187.35"/>
  <polygon class="cls-1" points="477.04 229.78 519.46 187.35 519.46 127.35 459.46 127.35 417.04 84.92 374.61 127.35 374.61 187.35 434.61 187.35 477.04 229.78"/>
  <polyline class="cls-2" points="229.76 247.35 169.76 247.35 127.33 204.92 84.9 247.35 84.9 307.35 144.9 307.35 187.33 349.78 229.76 307.35"/>
  <polygon class="cls-1" points="229.76 247.35 169.76 247.35 127.33 204.92 84.9 247.35 84.9 307.35 144.9 307.35 187.33 349.78 229.76 307.35 229.76 247.35"/>
  <polyline class="cls-3" points="229.76 247.35 229.76 187.35 272.18 144.92 229.76 102.5 169.76 102.5 169.76 162.5 127.33 204.92 169.76 247.35"/>
  <polygon class="cls-1" points="229.76 247.35 229.76 187.35 272.18 144.92 229.76 102.5 169.76 102.5 169.76 162.5 127.33 204.92 169.76 247.35 229.76 247.35"/>
  <polyline class="cls-2" points="367.33 784.33 324.9 826.76 324.9 886.76 384.9 886.76 427.33 929.19 469.76 886.76 469.76 826.76 409.76 826.76"/>
  <polygon class="cls-1" points="367.33 784.33 324.9 826.76 324.9 886.76 384.9 886.76 427.33 929.19 469.76 886.76 469.76 826.76 409.76 826.76 367.33 784.33"/>
  <polyline class="cls-2" points="639.46 417.06 699.46 417.06 741.89 459.48 784.32 417.06 784.32 357.06 724.32 357.06 681.89 314.63 639.46 357.06"/>
  <polygon class="cls-1" points="639.46 417.06 699.46 417.06 741.89 459.48 784.32 417.06 784.32 357.06 724.32 357.06 681.89 314.63 639.46 357.06 639.46 417.06"/>
  <polyline class="cls-3" points="657.04 664.33 699.46 706.76 759.46 706.76 759.46 646.76 801.89 604.33 759.46 561.91 699.46 561.91 699.46 621.91"/>
  <polygon class="cls-1" points="657.04 664.33 699.46 706.76 759.46 706.76 759.46 646.76 801.89 604.33 759.46 561.91 699.46 561.91 699.46 621.91 657.04 664.33"/>
  <polyline class="cls-2" points="204.9 597.06 144.9 597.06 102.48 554.63 60.05 597.06 60.05 657.06 120.05 657.06 162.48 699.48 204.9 657.06"/>
  <polygon class="cls-1" points="204.9 597.06 144.9 597.06 102.48 554.63 60.05 597.06 60.05 657.06 120.05 657.06 162.48 699.48 204.9 657.06 204.9 597.06"/>
  <polyline class="cls-3" points="374.61 187.35 374.61 127.35 417.04 84.92 374.61 42.5 314.61 42.5 314.61 102.5 272.18 144.92 314.61 187.35"/>
  <polygon class="cls-1" points="374.61 187.35 374.61 127.35 417.04 84.92 374.61 42.5 314.61 42.5 314.61 102.5 272.18 144.92 314.61 187.35 374.61 187.35"/>
  <polyline class="cls-3" points="664.32 212.2 724.32 212.2 724.32 152.2 766.74 109.78 724.32 67.35 664.32 67.35 664.32 127.35 621.89 169.78"/>
  <polygon class="cls-1" points="664.32 212.2 724.32 212.2 724.32 152.2 766.74 109.78 724.32 67.35 664.32 67.35 664.32 127.35 621.89 169.78 664.32 212.2"/>
  <polyline class="cls-3" points="469.76 826.76 469.76 886.76 427.33 929.19 469.76 971.61 529.76 971.61 529.76 911.61 572.18 869.19 529.76 826.76"/>
  <polygon class="cls-1" points="469.76 826.76 469.76 886.76 427.33 929.19 469.76 971.61 529.76 971.61 529.76 911.61 572.18 869.19 529.76 826.76 469.76 826.76"/>
  <polyline class="cls-2" points="621.89 169.78 664.32 127.35 664.32 67.35 604.32 67.35 561.89 24.92 519.46 67.35 519.46 127.35 579.46 127.35"/>
  <polygon class="cls-1" points="621.89 169.78 664.32 127.35 664.32 67.35 604.32 67.35 561.89 24.92 519.46 67.35 519.46 127.35 579.46 127.35 621.89 169.78"/>
  <polyline class="cls-3" points="187.33 349.78 144.9 307.35 84.9 307.35 84.9 367.35 42.48 409.78 84.9 452.2 144.9 452.2 144.9 392.2"/>
  <polygon class="cls-1" points="187.33 349.78 144.9 307.35 84.9 307.35 84.9 367.35 42.48 409.78 84.9 452.2 144.9 452.2 144.9 392.2 187.33 349.78"/>
  <polyline class="cls-2" points="222.48 844.33 180.05 886.76 180.05 946.76 240.05 946.76 282.48 989.19 324.9 946.76 324.9 886.76 264.9 886.76"/>
  <polygon class="cls-1" points="222.48 844.33 180.05 886.76 180.05 946.76 240.05 946.76 282.48 989.19 324.9 946.76 324.9 886.76 264.9 886.76 222.48 844.33"/>
  <polyline class="cls-3" points="222.48 844.33 180.05 801.91 120.05 801.91 120.05 861.91 77.62 904.33 120.05 946.76 180.05 946.76 180.05 886.76"/>
  <polygon class="cls-1" points="222.48 844.33 180.05 801.91 120.05 801.91 120.05 861.91 77.62 904.33 120.05 946.76 180.05 946.76 180.05 886.76 222.48 844.33"/>
  <polyline class="cls-3" points="681.89 314.63 724.32 357.06 784.32 357.06 784.32 297.06 826.74 254.63 784.32 212.2 724.32 212.2 724.32 272.2"/>
  <polygon class="cls-1" points="681.89 314.63 724.32 357.06 784.32 357.06 784.32 297.06 826.74 254.63 784.32 212.2 724.32 212.2 724.32 272.2 681.89 314.63"/>
  <polyline class="cls-2" points="674.61 851.61 674.61 911.61 734.61 911.61 777.04 954.04 819.46 911.61 819.46 851.61 759.46 851.61 717.04 809.19"/>
  <polygon class="cls-1" points="674.61 851.61 674.61 911.61 734.61 911.61 777.04 954.04 819.46 911.61 819.46 851.61 759.46 851.61 717.04 809.19 674.61 851.61"/>
  <polyline class="cls-2" points="272.18 144.92 314.61 102.5 314.61 42.5 254.61 42.5 212.18 .07 169.76 42.5 169.76 102.5 229.76 102.5"/>
  <polygon class="cls-1" points="272.18 144.92 314.61 102.5 314.61 42.5 254.61 42.5 212.18 .07 169.76 42.5 169.76 102.5 229.76 102.5 272.18 144.92"/>
  <polyline class="cls-2" points="169.76 162.5 169.76 102.5 109.76 102.5 67.33 60.07 24.9 102.5 24.9 162.5 84.9 162.5 127.33 204.92"/>
  <polygon class="cls-1" points="169.76 162.5 169.76 102.5 109.76 102.5 67.33 60.07 24.9 102.5 24.9 162.5 84.9 162.5 127.33 204.92 169.76 162.5"/>
  <polyline class="cls-2" points="572.18 869.19 529.76 911.61 529.76 971.61 589.76 971.61 632.18 1014.04 674.61 971.61 674.61 911.61 614.61 911.61"/>
  <polygon class="cls-1" points="572.18 869.19 529.76 911.61 529.76 971.61 589.76 971.61 632.18 1014.04 674.61 971.61 674.61 911.61 614.61 911.61 572.18 869.19"/>
  <polyline class="cls-2" points="699.46 561.91 759.46 561.91 801.89 604.33 844.32 561.91 844.32 501.91 784.32 501.91 741.89 459.48 699.46 501.91"/>
  <polygon class="cls-1" points="699.46 561.91 759.46 561.91 801.89 604.33 844.32 561.91 844.32 501.91 784.32 501.91 741.89 459.48 699.46 501.91 699.46 561.91"/>
  <polyline class="cls-3" points="162.48 699.48 120.05 657.06 60.05 657.06 60.05 717.06 17.62 759.48 60.05 801.91 120.05 801.91 120.05 741.91"/>
  <polygon class="cls-1" points="162.48 699.48 120.05 657.06 60.05 657.06 60.05 717.06 17.62 759.48 60.05 801.91 120.05 801.91 120.05 741.91 162.48 699.48"/>
  <polyline class="cls-3" points="324.9 886.76 324.9 946.76 282.48 989.19 324.9 1031.61 384.9 1031.61 384.9 971.61 427.33 929.19 384.9 886.76"/>
  <polygon class="cls-1" points="324.9 886.76 324.9 946.76 282.48 989.19 324.9 1031.61 384.9 1031.61 384.9 971.61 427.33 929.19 384.9 886.76 324.9 886.76"/>
  <polyline class="cls-3" points="717.04 809.19 759.46 851.61 819.46 851.61 819.46 791.61 861.89 749.19 819.46 706.76 759.46 706.76 759.46 766.76"/>
  <polygon class="cls-1" points="717.04 809.19 759.46 851.61 819.46 851.61 819.46 791.61 861.89 749.19 819.46 706.76 759.46 706.76 759.46 766.76 717.04 809.19"/>
  <polyline class="cls-2" points="144.9 452.2 84.9 452.2 42.48 409.78 .05 452.2 .05 512.2 60.05 512.2 102.48 554.63 144.9 512.2"/>
  <polygon class="cls-1" points="144.9 452.2 84.9 452.2 42.48 409.78 .05 452.2 .05 512.2 60.05 512.2 102.48 554.63 144.9 512.2 144.9 452.2"/>
  <polyline class="cls-2" points="724.32 212.2 784.32 212.2 826.74 254.63 869.17 212.2 869.17 152.2 809.17 152.2 766.74 109.78 724.32 152.2"/>
  <polygon class="cls-1" points="724.32 212.2 784.32 212.2 826.74 254.63 869.17 212.2 869.17 152.2 809.17 152.2 766.74 109.78 724.32 152.2 724.32 212.2"/>
  <polyline class="cls-3" points="674.61 911.61 674.61 971.61 632.18 1014.04 674.61 1056.47 734.61 1056.47 734.61 996.47 777.04 954.04 734.61 911.61"/>
  <polygon class="cls-1" points="674.61 911.61 674.61 971.61 632.18 1014.04 674.61 1056.47 734.61 1056.47 734.61 996.47 777.04 954.04 734.61 911.61 674.61 911.61"/>
  <polyline class="cls-3" points="741.89 459.48 784.32 501.91 844.32 501.91 844.32 441.91 886.74 399.48 844.32 357.06 784.32 357.06 784.32 417.06"/>
  <polygon class="cls-1" points="741.89 459.48 784.32 501.91 844.32 501.91 844.32 441.91 886.74 399.48 844.32 357.06 784.32 357.06 784.32 417.06 741.89 459.48"/>
  <polyline class="cls-2" points="120.05 946.76 77.62 904.33 35.2 946.76 35.2 1006.76 95.2 1006.76 137.62 1049.19 180.05 1006.76 180.05 946.76"/>
  <polygon class="cls-1" points="120.05 946.76 77.62 904.33 35.2 946.76 35.2 1006.76 95.2 1006.76 137.62 1049.19 180.05 1006.76 180.05 946.76 120.05 946.76"/>
</svg>