<?xml version="1.0" encoding="UTF-8"?>
<svg id="Layer_1" data-name="Layer 1" xmlns="http://www.w3.org/2000/svg" xmlns:xlink="http://www.w3.org/1999/xlink" viewBox="0 0 900.24 1080.24">
  <defs>
    <style>
      .cls-1 {
        clip-path: url(#clippath);
      }

      .cls-2, .cls-3 {
        fill: none;
      }

      .cls-2, .cls-4, .cls-5 {
        stroke-width: 0px;
      }

      .cls-3 {
        stroke: #000;
        stroke-miterlimit: 10;
        stroke-width: .1px;
      }

      .cls-4 {
        fill: #f8c499;
      }

      .cls-5 {
        fill: #404284;
      }
    </style>
    <clipPath id="clippath">
      <rect class="cls-2" x="152.62" y="171.12" width="612" height="792"/>
    </clipPath>
  </defs>
  <g class="cls-1">
    <polyline class="cls-4" points="450.12 630.12 480.12 600.12 540.12 600.12 510.12 570.12 540.12 540.12 510.12 510.12 480.12 540.12 480.12 480.12 450.12 450.12 420.12 480.12 420.12 540.12 390.12 510.12 360.12 540.12 390.12 570.12 360.12 600.12 420.12 600.12"/>
    <polygon class="cls-3" points="450.12 630.12 480.12 600.12 540.12 600.12 510.12 570.12 540.12 540.12 510.12 510.12 480.12 540.12 480.12 480.12 450.12 450.12 420.12 480.12 420.12 540.12 390.12 510.12 360.12 540.12 390.12 570.12 360.12 600.12 420.12 600.12 450.12 630.12"/>
    <polyline class="cls-5" points="480.12 540.12 510.12 510.12 540.12 540.12 570.12 510.12 540.12 480.12 600.12 480.12 630.12 450.12 600.12 420.12 540.12 420.12 570.12 390.12 540.12 360.12 510.12 390.12 480.12 360.12 480.12 420.12 450.12 450.12 480.12 480.12"/>
    <polygon class="cls-3" points="480.12 540.12 510.12 510.12 540.12 540.12 570.12 510.12 540.12 480.12 600.12 480.12 630.12 450.12 600.12 420.12 540.12 420.12 570.12 390.12 540.12 360.12 510.12 390.12 480.12 360.12 480.12 420.12 450.12 450.12 480.12 480.12 480.12 540.12"/>
    <polyline class="cls-5" points="420.12 540.12 420.12 480.12 450.12 450.12 420.12 420.12 420.12 360.12 390.12 390.12 360.12 360.12 330.12 390.12 360.12 420.12 300.12 420.12 270.12 450.12 300.12 480.12 360.12 480.12 330.12 510.12 360.12 540.12 390.12 510.12"/>
    <polygon class="cls-3" points="420.12 540.12 420.12 480.12 450.12 450.12 420.12 420.12 420.12 360.12 390.12 390.12 360.12 360.12 330.12 390.12 360.12 420.12 300.12 420.12 270.12 450.12 300.12 480.12 360.12 480.12 330.12 510.12 360.12 540.12 390.12 510.12 420.12 540.12"/>
    <polyline class="cls-5" points="420.12 600.12 360.12 600.12 390.12 570.12 360.12 540.12 330.12 570.12 300.12 540.12 300.12 600.12 270.12 630.12 300.12 660.12 300.12 720.12 330.12 690.12 360.12 720.12 390.12 690.12 360.12 660.12 420.12 660.12 450.12 630.12"/>
    <polygon class="cls-3" points="420.12 600.12 360.12 600.12 390.12 570.12 360.12 540.12 330.12 570.12 300.12 540.12 300.12 600.12 270.12 630.12 300.12 660.12 300.12 720.12 330.12 690.12 360.12 720.12 390.12 690.12 360.12 660.12 420.12 660.12 450.12 630.12 420.12 600.12"/>
    <polyline class="cls-5" points="480.12 600.12 450.12 630.12 480.12 660.12 540.12 660.12 510.12 690.12 540.12 720.12 570.12 690.12 600.12 720.12 600.12 660.12 630.12 630.12 600.12 600.12 600.12 540.12 570.12 570.12 540.12 540.12 510.12 570.12 540.12 600.12"/>
    <polygon class="cls-3" points="480.12 600.12 450.12 630.12 480.12 660.12 540.12 660.12 510.12 690.12 540.12 720.12 570.12 690.12 600.12 720.12 600.12 660.12 630.12 630.12 600.12 600.12 600.12 540.12 570.12 570.12 540.12 540.12 510.12 570.12 540.12 600.12 480.12 600.12"/>
    <polyline class="cls-4" points="450.12 630.12 420.12 660.12 360.12 660.12 390.12 690.12 360.12 720.12 390.12 750.12 420.12 720.12 420.12 780.12 450.12 810.12 480.12 780.12 480.12 720.12 510.12 750.12 540.12 720.12 510.12 690.12 540.12 660.12 480.12 660.12"/>
    <polygon class="cls-3" points="450.12 630.12 420.12 660.12 360.12 660.12 390.12 690.12 360.12 720.12 390.12 750.12 420.12 720.12 420.12 780.12 450.12 810.12 480.12 780.12 480.12 720.12 510.12 750.12 540.12 720.12 510.12 690.12 540.12 660.12 480.12 660.12 450.12 630.12"/>
    <polyline class="cls-4" points="450.12 450.12 480.12 420.12 480.12 360.12 510.12 390.12 540.12 360.12 510.12 330.12 540.12 300.12 480.12 300.12 450.12 270.12 420.12 300.12 360.12 300.12 390.12 330.12 360.12 360.12 390.12 390.12 420.12 360.12 420.12 420.12"/>
    <polygon class="cls-3" points="450.12 450.12 480.12 420.12 480.12 360.12 510.12 390.12 540.12 360.12 510.12 330.12 540.12 300.12 480.12 300.12 450.12 270.12 420.12 300.12 360.12 300.12 390.12 330.12 360.12 360.12 390.12 390.12 420.12 360.12 420.12 420.12 450.12 450.12"/>
    <polyline class="cls-4" points="360.12 420.12 330.12 390.12 360.12 360.12 330.12 330.12 300.12 360.12 300.12 300.12 270.12 270.12 240.12 300.12 240.12 360.12 210.12 330.12 180.12 360.12 210.12 390.12 180.12 420.12 240.12 420.12 270.12 450.12 300.12 420.12"/>
    <polygon class="cls-3" points="360.12 420.12 330.12 390.12 360.12 360.12 330.12 330.12 300.12 360.12 300.12 300.12 270.12 270.12 240.12 300.12 240.12 360.12 210.12 330.12 180.12 360.12 210.12 390.12 180.12 420.12 240.12 420.12 270.12 450.12 300.12 420.12 360.12 420.12"/>
    <polyline class="cls-4" points="360.12 480.12 300.12 480.12 270.12 450.12 240.12 480.12 180.12 480.12 210.12 510.12 180.12 540.12 210.12 570.12 240.12 540.12 240.12 600.12 270.12 630.12 300.12 600.12 300.12 540.12 330.12 570.12 360.12 540.12 330.12 510.12"/>
    <polygon class="cls-3" points="360.12 480.12 300.12 480.12 270.12 450.12 240.12 480.12 180.12 480.12 210.12 510.12 180.12 540.12 210.12 570.12 240.12 540.12 240.12 600.12 270.12 630.12 300.12 600.12 300.12 540.12 330.12 570.12 360.12 540.12 330.12 510.12 360.12 480.12"/>
    <polyline class="cls-4" points="540.12 540.12 570.12 570.12 600.12 540.12 600.12 600.12 630.12 630.12 660.12 600.12 660.12 540.12 690.12 570.12 720.12 540.12 690.12 510.12 720.12 480.12 660.12 480.12 630.12 450.12 600.12 480.12 540.12 480.12 570.12 510.12"/>
    <polygon class="cls-3" points="540.12 540.12 570.12 570.12 600.12 540.12 600.12 600.12 630.12 630.12 660.12 600.12 660.12 540.12 690.12 570.12 720.12 540.12 690.12 510.12 720.12 480.12 660.12 480.12 630.12 450.12 600.12 480.12 540.12 480.12 570.12 510.12 540.12 540.12"/>
    <polyline class="cls-4" points="540.12 420.12 600.12 420.12 630.12 450.12 660.12 420.12 720.12 420.12 690.12 390.12 720.12 360.12 690.12 330.12 660.12 360.12 660.12 300.12 630.12 270.12 600.12 300.12 600.12 360.12 570.12 330.12 540.12 360.12 570.12 390.12"/>
    <polygon class="cls-3" points="540.12 420.12 600.12 420.12 630.12 450.12 660.12 420.12 720.12 420.12 690.12 390.12 720.12 360.12 690.12 330.12 660.12 360.12 660.12 300.12 630.12 270.12 600.12 300.12 600.12 360.12 570.12 330.12 540.12 360.12 570.12 390.12 540.12 420.12"/>
    <polyline class="cls-4" points="330.12 690.12 300.12 720.12 300.12 660.12 270.12 630.12 240.12 660.12 240.12 720.12 210.12 690.12 180.12 720.12 210.12 750.12 180.12 780.12 240.12 780.12 270.12 810.12 300.12 780.12 360.12 780.12 330.12 750.12 360.12 720.12"/>
    <polygon class="cls-3" points="330.12 690.12 300.12 720.12 300.12 660.12 270.12 630.12 240.12 660.12 240.12 720.12 210.12 690.12 180.12 720.12 210.12 750.12 180.12 780.12 240.12 780.12 270.12 810.12 300.12 780.12 360.12 780.12 330.12 750.12 360.12 720.12 330.12 690.12"/>
    <polyline class="cls-4" points="570.12 690.12 540.12 720.12 570.12 750.12 540.12 780.12 600.12 780.12 630.12 810.12 660.12 780.12 720.12 780.12 690.12 750.12 720.12 720.12 690.12 690.12 660.12 720.12 660.12 660.12 630.12 630.12 600.12 660.12 600.12 720.12"/>
    <polygon class="cls-3" points="570.12 690.12 540.12 720.12 570.12 750.12 540.12 780.12 600.12 780.12 630.12 810.12 660.12 780.12 720.12 780.12 690.12 750.12 720.12 720.12 690.12 690.12 660.12 720.12 660.12 660.12 630.12 630.12 600.12 660.12 600.12 720.12 570.12 690.12"/>
    <polyline class="cls-5" points="540.12 720.12 510.12 750.12 480.12 720.12 480.12 780.12 450.12 810.12 480.12 840.12 480.12 900.12 510.12 870.12 540.12 900.12 570.12 870.12 540.12 840.12 600.12 840.12 630.12 810.12 600.12 780.12 540.12 780.12 570.12 750.12"/>
    <polygon class="cls-3" points="540.12 720.12 510.12 750.12 480.12 720.12 480.12 780.12 450.12 810.12 480.12 840.12 480.12 900.12 510.12 870.12 540.12 900.12 570.12 870.12 540.12 840.12 600.12 840.12 630.12 810.12 600.12 780.12 540.12 780.12 570.12 750.12 540.12 720.12"/>
    <polyline class="cls-5" points="360.12 720.12 330.12 750.12 360.12 780.12 300.12 780.12 270.12 810.12 300.12 840.12 360.12 840.12 330.12 870.12 360.12 900.12 390.12 870.12 420.12 900.12 420.12 840.12 450.12 810.12 420.12 780.12 420.12 720.12 390.12 750.12"/>
    <polygon class="cls-3" points="360.12 720.12 330.12 750.12 360.12 780.12 300.12 780.12 270.12 810.12 300.12 840.12 360.12 840.12 330.12 870.12 360.12 900.12 390.12 870.12 420.12 900.12 420.12 840.12 450.12 810.12 420.12 780.12 420.12 720.12 390.12 750.12 360.12 720.12"/>
    <polyline class="cls-5" points="540.12 360.12 570.12 330.12 600.12 360.12 600.12 300.12 630.12 270.12 600.12 240.12 600.12 180.12 570.12 210.12 540.12 180.12 510.12 210.12 540.12 240.12 480.12 240.12 450.12 270.12 480.12 300.12 540.12 300.12 510.12 330.12"/>
    <polygon class="cls-3" points="540.12 360.12 570.12 330.12 600.12 360.12 600.12 300.12 630.12 270.12 600.12 240.12 600.12 180.12 570.12 210.12 540.12 180.12 510.12 210.12 540.12 240.12 480.12 240.12 450.12 270.12 480.12 300.12 540.12 300.12 510.12 330.12 540.12 360.12"/>
    <polyline class="cls-5" points="360.12 360.12 390.12 330.12 360.12 300.12 420.12 300.12 450.12 270.12 420.12 240.12 360.12 240.12 390.12 210.12 360.12 180.12 330.12 210.12 300.12 180.12 300.12 240.12 270.12 270.12 300.12 300.12 300.12 360.12 330.12 330.12"/>
    <polygon class="cls-3" points="360.12 360.12 390.12 330.12 360.12 300.12 420.12 300.12 450.12 270.12 420.12 240.12 360.12 240.12 390.12 210.12 360.12 180.12 330.12 210.12 300.12 180.12 300.12 240.12 270.12 270.12 300.12 300.12 300.12 360.12 330.12 330.12 360.12 360.12"/>
    <polyline class="cls-5" points="270.12 450.12 240.12 420.12 180.12 420.12 210.12 390.12 180.12 360.12 150.12 390.12 120.12 360.12 120.12 420.12 90.12 450.12 120.12 480.12 120.12 540.12 150.12 510.12 180.12 540.12 210.12 510.12 180.12 480.12 240.12 480.12"/>
    <polygon class="cls-3" points="270.12 450.12 240.12 420.12 180.12 420.12 210.12 390.12 180.12 360.12 150.12 390.12 120.12 360.12 120.12 420.12 90.12 450.12 120.12 480.12 120.12 540.12 150.12 510.12 180.12 540.12 210.12 510.12 180.12 480.12 240.12 480.12 270.12 450.12"/>
    <polyline class="cls-5" points="270.12 630.12 240.12 600.12 240.12 540.12 210.12 570.12 180.12 540.12 150.12 570.12 180.12 600.12 120.12 600.12 90.12 630.12 120.12 660.12 180.12 660.12 150.12 690.12 180.12 720.12 210.12 690.12 240.12 720.12 240.12 660.12"/>
    <polygon class="cls-3" points="270.12 630.12 240.12 600.12 240.12 540.12 210.12 570.12 180.12 540.12 150.12 570.12 180.12 600.12 120.12 600.12 90.12 630.12 120.12 660.12 180.12 660.12 150.12 690.12 180.12 720.12 210.12 690.12 240.12 720.12 240.12 660.12 270.12 630.12"/>
    <polyline class="cls-5" points="630.12 630.12 660.12 660.12 660.12 720.12 690.12 690.12 720.12 720.12 750.12 690.12 720.12 660.12 780.12 660.12 810.12 630.12 780.12 600.12 720.12 600.12 750.12 570.12 720.12 540.12 690.12 570.12 660.12 540.12 660.12 600.12"/>
    <polygon class="cls-3" points="630.12 630.12 660.12 660.12 660.12 720.12 690.12 690.12 720.12 720.12 750.12 690.12 720.12 660.12 780.12 660.12 810.12 630.12 780.12 600.12 720.12 600.12 750.12 570.12 720.12 540.12 690.12 570.12 660.12 540.12 660.12 600.12 630.12 630.12"/>
    <polyline class="cls-5" points="630.12 450.12 660.12 480.12 720.12 480.12 690.12 510.12 720.12 540.12 750.12 510.12 780.12 540.12 780.12 480.12 810.12 450.12 780.12 420.12 780.12 360.12 750.12 390.12 720.12 360.12 690.12 390.12 720.12 420.12 660.12 420.12"/>
    <polygon class="cls-3" points="630.12 450.12 660.12 480.12 720.12 480.12 690.12 510.12 720.12 540.12 750.12 510.12 780.12 540.12 780.12 480.12 810.12 450.12 780.12 420.12 780.12 360.12 750.12 390.12 720.12 360.12 690.12 390.12 720.12 420.12 660.12 420.12 630.12 450.12"/>
    <polyline class="cls-4" points="270.12 810.12 240.12 840.12 180.12 840.12 210.12 870.12 180.12 900.12 210.12 930.12 240.12 900.12 240.12 960.12 270.12 990.12 300.12 960.12 300.12 900.12 330.12 930.12 360.12 900.12 330.12 870.12 360.12 840.12 300.12 840.12"/>
    <polygon class="cls-3" points="270.12 810.12 240.12 840.12 180.12 840.12 210.12 870.12 180.12 900.12 210.12 930.12 240.12 900.12 240.12 960.12 270.12 990.12 300.12 960.12 300.12 900.12 330.12 930.12 360.12 900.12 330.12 870.12 360.12 840.12 300.12 840.12 270.12 810.12"/>
    <polyline class="cls-5" points="270.12 810.12 240.12 780.12 180.12 780.12 210.12 750.12 180.12 720.12 150.12 750.12 120.12 720.12 120.12 780.12 90.12 810.12 120.12 840.12 120.12 900.12 150.12 870.12 180.12 900.12 210.12 870.12 180.12 840.12 240.12 840.12"/>
    <polygon class="cls-3" points="270.12 810.12 240.12 780.12 180.12 780.12 210.12 750.12 180.12 720.12 150.12 750.12 120.12 720.12 120.12 780.12 90.12 810.12 120.12 840.12 120.12 900.12 150.12 870.12 180.12 900.12 210.12 870.12 180.12 840.12 240.12 840.12 270.12 810.12"/>
    <polyline class="cls-4" points="450.12 810.12 420.12 840.12 420.12 900.12 390.12 870.12 360.12 900.12 390.12 930.12 360.12 960.12 420.12 960.12 450.12 990.12 480.12 960.12 540.12 960.12 510.12 930.12 540.12 900.12 510.12 870.12 480.12 900.12 480.12 840.12"/>
    <polygon class="cls-3" points="450.12 810.12 420.12 840.12 420.12 900.12 390.12 870.12 360.12 900.12 390.12 930.12 360.12 960.12 420.12 960.12 450.12 990.12 480.12 960.12 540.12 960.12 510.12 930.12 540.12 900.12 510.12 870.12 480.12 900.12 480.12 840.12 450.12 810.12"/>
    <polyline class="cls-5" points="630.12 810.12 660.12 840.12 720.12 840.12 690.12 870.12 720.12 900.12 750.12 870.12 780.12 900.12 780.12 840.12 810.12 810.12 780.12 780.12 780.12 720.12 750.12 750.12 720.12 720.12 690.12 750.12 720.12 780.12 660.12 780.12"/>
    <polygon class="cls-3" points="630.12 810.12 660.12 840.12 720.12 840.12 690.12 870.12 720.12 900.12 750.12 870.12 780.12 900.12 780.12 840.12 810.12 810.12 780.12 780.12 780.12 720.12 750.12 750.12 720.12 720.12 690.12 750.12 720.12 780.12 660.12 780.12 630.12 810.12"/>
    <polyline class="cls-4" points="630.12 810.12 600.12 840.12 540.12 840.12 570.12 870.12 540.12 900.12 570.12 930.12 600.12 900.12 600.12 960.12 630.12 990.12 660.12 960.12 660.12 900.12 690.12 930.12 720.12 900.12 690.12 870.12 720.12 840.12 660.12 840.12"/>
    <polygon class="cls-3" points="630.12 810.12 600.12 840.12 540.12 840.12 570.12 870.12 540.12 900.12 570.12 930.12 600.12 900.12 600.12 960.12 630.12 990.12 660.12 960.12 660.12 900.12 690.12 930.12 720.12 900.12 690.12 870.12 720.12 840.12 660.12 840.12 630.12 810.12"/>
    <polyline class="cls-4" points="630.12 270.12 660.12 240.12 660.12 180.12 690.12 210.12 720.12 180.12 690.12 150.12 720.12 120.12 660.12 120.12 630.12 90.12 600.12 120.12 540.12 120.12 570.12 150.12 540.12 180.12 570.12 210.12 600.12 180.12 600.12 240.12"/>
    <polygon class="cls-3" points="630.12 270.12 660.12 240.12 660.12 180.12 690.12 210.12 720.12 180.12 690.12 150.12 720.12 120.12 660.12 120.12 630.12 90.12 600.12 120.12 540.12 120.12 570.12 150.12 540.12 180.12 570.12 210.12 600.12 180.12 600.12 240.12 630.12 270.12"/>
    <polyline class="cls-5" points="630.12 270.12 660.12 300.12 660.12 360.12 690.12 330.12 720.12 360.12 750.12 330.12 720.12 300.12 780.12 300.12 810.12 270.12 780.12 240.12 720.12 240.12 750.12 210.12 720.12 180.12 690.12 210.12 660.12 180.12 660.12 240.12"/>
    <polygon class="cls-3" points="630.12 270.12 660.12 300.12 660.12 360.12 690.12 330.12 720.12 360.12 750.12 330.12 720.12 300.12 780.12 300.12 810.12 270.12 780.12 240.12 720.12 240.12 750.12 210.12 720.12 180.12 690.12 210.12 660.12 180.12 660.12 240.12 630.12 270.12"/>
    <polyline class="cls-4" points="450.12 270.12 480.12 240.12 540.12 240.12 510.12 210.12 540.12 180.12 510.12 150.12 480.12 180.12 480.12 120.12 450.12 90.12 420.12 120.12 420.12 180.12 390.12 150.12 360.12 180.12 390.12 210.12 360.12 240.12 420.12 240.12"/>
    <polygon class="cls-3" points="450.12 270.12 480.12 240.12 540.12 240.12 510.12 210.12 540.12 180.12 510.12 150.12 480.12 180.12 480.12 120.12 450.12 90.12 420.12 120.12 420.12 180.12 390.12 150.12 360.12 180.12 390.12 210.12 360.12 240.12 420.12 240.12 450.12 270.12"/>
    <polyline class="cls-5" points="270.12 270.12 240.12 240.12 240.12 180.12 210.12 210.12 180.12 180.12 150.12 210.12 180.12 240.12 120.12 240.12 90.12 270.12 120.12 300.12 180.12 300.12 150.12 330.12 180.12 360.12 210.12 330.12 240.12 360.12 240.12 300.12"/>
    <polygon class="cls-3" points="270.12 270.12 240.12 240.12 240.12 180.12 210.12 210.12 180.12 180.12 150.12 210.12 180.12 240.12 120.12 240.12 90.12 270.12 120.12 300.12 180.12 300.12 150.12 330.12 180.12 360.12 210.12 330.12 240.12 360.12 240.12 300.12 270.12 270.12"/>
    <polyline class="cls-4" points="270.12 270.12 300.12 240.12 300.12 180.12 330.12 210.12 360.12 180.12 330.12 150.12 360.12 120.12 300.12 120.12 270.12 90.12 240.12 120.12 180.12 120.12 210.12 150.12 180.12 180.12 210.12 210.12 240.12 180.12 240.12 240.12"/>
    <polygon class="cls-3" points="270.12 270.12 300.12 240.12 300.12 180.12 330.12 210.12 360.12 180.12 330.12 150.12 360.12 120.12 300.12 120.12 270.12 90.12 240.12 120.12 180.12 120.12 210.12 150.12 180.12 180.12 210.12 210.12 240.12 180.12 240.12 240.12 270.12 270.12"/>
    <polyline class="cls-5" points="240.12 900.12 210.12 930.12 180.12 900.12 150.12 930.12 180.12 960.12 120.12 960.12 90.12 990.12 120.12 1020.12 180.12 1020.12 150.12 1050.12 180.12 1080.12 210.12 1050.12 240.12 1080.12 240.12 1020.12 270.12 990.12 240.12 960.12"/>
    <polygon class="cls-3" points="240.12 900.12 210.12 930.12 180.12 900.12 150.12 930.12 180.12 960.12 120.12 960.12 90.12 990.12 120.12 1020.12 180.12 1020.12 150.12 1050.12 180.12 1080.12 210.12 1050.12 240.12 1080.12 240.12 1020.12 270.12 990.12 240.12 960.12 240.12 900.12"/>
    <polyline class="cls-5" points="300.12 900.12 300.12 960.12 270.12 990.12 300.12 1020.12 300.12 1080.12 330.12 1050.12 360.12 1080.12 390.12 1050.12 360.12 1020.12 420.12 1020.12 450.12 990.12 420.12 960.12 360.12 960.12 390.12 930.12 360.12 900.12 330.12 930.12"/>
    <polygon class="cls-3" points="300.12 900.12 300.12 960.12 270.12 990.12 300.12 1020.12 300.12 1080.12 330.12 1050.12 360.12 1080.12 390.12 1050.12 360.12 1020.12 420.12 1020.12 450.12 990.12 420.12 960.12 360.12 960.12 390.12 930.12 360.12 900.12 330.12 930.12 300.12 900.12"/>
    <polyline class="cls-5" points="540.12 900.12 510.12 930.12 540.12 960.12 480.12 960.12 450.12 990.12 480.12 1020.12 540.12 1020.12 510.12 1050.12 540.12 1080.12 570.12 1050.12 600.12 1080.12 600.12 1020.12 630.12 990.12 600.12 960.12 600.12 900.12 570.12 930.12"/>
    <polygon class="cls-3" points="540.12 900.12 510.12 930.12 540.12 960.12 480.12 960.12 450.12 990.12 480.12 1020.12 540.12 1020.12 510.12 1050.12 540.12 1080.12 570.12 1050.12 600.12 1080.12 600.12 1020.12 630.12 990.12 600.12 960.12 600.12 900.12 570.12 930.12 540.12 900.12"/>
    <polyline class="cls-5" points="660.12 900.12 660.12 960.12 630.12 990.12 660.12 1020.12 660.12 1080.12 690.12 1050.12 720.12 1080.12 750.12 1050.12 720.12 1020.12 780.12 1020.12 810.12 990.12 780.12 960.12 720.12 960.12 750.12 930.12 720.12 900.12 690.12 930.12"/>
    <polygon class="cls-3" points="660.12 900.12 660.12 960.12 630.12 990.12 660.12 1020.12 660.12 1080.12 690.12 1050.12 720.12 1080.12 750.12 1050.12 720.12 1020.12 780.12 1020.12 810.12 990.12 780.12 960.12 720.12 960.12 750.12 930.12 720.12 900.12 690.12 930.12 660.12 900.12"/>
    <polyline class="cls-5" points="540.12 180.12 570.12 150.12 540.12 120.12 600.12 120.12 630.12 90.12 600.12 60.12 540.12 60.12 570.12 30.12 540.12 .12 510.12 30.12 480.12 .12 480.12 60.12 450.12 90.12 480.12 120.12 480.12 180.12 510.12 150.12"/>
    <polygon class="cls-3" points="540.12 180.12 570.12 150.12 540.12 120.12 600.12 120.12 630.12 90.12 600.12 60.12 540.12 60.12 570.12 30.12 540.12 .12 510.12 30.12 480.12 .12 480.12 60.12 450.12 90.12 480.12 120.12 480.12 180.12 510.12 150.12 540.12 180.12"/>
    <polyline class="cls-5" points="420.12 180.12 420.12 120.12 450.12 90.12 420.12 60.12 420.12 .12 390.12 30.12 360.12 .12 330.12 30.12 360.12 60.12 300.12 60.12 270.12 90.12 300.12 120.12 360.12 120.12 330.12 150.12 360.12 180.12 390.12 150.12"/>
    <polygon class="cls-3" points="420.12 180.12 420.12 120.12 450.12 90.12 420.12 60.12 420.12 .12 390.12 30.12 360.12 .12 330.12 30.12 360.12 60.12 300.12 60.12 270.12 90.12 300.12 120.12 360.12 120.12 330.12 150.12 360.12 180.12 390.12 150.12 420.12 180.12"/>
    <polyline class="cls-4" points="180.12 180.12 150.12 150.12 120.12 180.12 120.12 120.12 90.12 90.12 60.12 120.12 60.12 180.12 30.12 150.12 .12 180.12 30.12 210.12 .12 240.12 60.12 240.12 90.12 270.12 120.12 240.12 180.12 240.12 150.12 210.12"/>
    <polygon class="cls-3" points="180.12 180.12 150.12 150.12 120.12 180.12 120.12 120.12 90.12 90.12 60.12 120.12 60.12 180.12 30.12 150.12 .12 180.12 30.12 210.12 .12 240.12 60.12 240.12 90.12 270.12 120.12 240.12 180.12 240.12 150.12 210.12 180.12 180.12"/>
    <polyline class="cls-5" points="180.12 180.12 210.12 150.12 180.12 120.12 240.12 120.12 270.12 90.12 240.12 60.12 180.12 60.12 210.12 30.12 180.12 .12 150.12 30.12 120.12 .12 120.12 60.12 90.12 90.12 120.12 120.12 120.12 180.12 150.12 150.12"/>
    <polygon class="cls-3" points="180.12 180.12 210.12 150.12 180.12 120.12 240.12 120.12 270.12 90.12 240.12 60.12 180.12 60.12 210.12 30.12 180.12 .12 150.12 30.12 120.12 .12 120.12 60.12 90.12 90.12 120.12 120.12 120.12 180.12 150.12 150.12 180.12 180.12"/>
    <polyline class="cls-4" points="180.12 300.12 120.12 300.12 90.12 270.12 60.12 300.12 .12 300.12 30.12 330.12 .12 360.12 30.12 390.12 60.12 360.12 60.12 420.12 90.12 450.12 120.12 420.12 120.12 360.12 150.12 390.12 180.12 360.12 150.12 330.12"/>
    <polygon class="cls-3" points="180.12 300.12 120.12 300.12 90.12 270.12 60.12 300.12 .12 300.12 30.12 330.12 .12 360.12 30.12 390.12 60.12 360.12 60.12 420.12 90.12 450.12 120.12 420.12 120.12 360.12 150.12 390.12 180.12 360.12 150.12 330.12 180.12 300.12"/>
    <polyline class="cls-4" points="180.12 540.12 150.12 510.12 120.12 540.12 120.12 480.12 90.12 450.12 60.12 480.12 60.12 540.12 30.12 510.12 .12 540.12 30.12 570.12 .12 600.12 60.12 600.12 90.12 630.12 120.12 600.12 180.12 600.12 150.12 570.12"/>
    <polygon class="cls-3" points="180.12 540.12 150.12 510.12 120.12 540.12 120.12 480.12 90.12 450.12 60.12 480.12 60.12 540.12 30.12 510.12 .12 540.12 30.12 570.12 .12 600.12 60.12 600.12 90.12 630.12 120.12 600.12 180.12 600.12 150.12 570.12 180.12 540.12"/>
    <polyline class="cls-4" points="180.12 660.12 120.12 660.12 90.12 630.12 60.12 660.12 .12 660.12 30.12 690.12 .12 720.12 30.12 750.12 60.12 720.12 60.12 780.12 90.12 810.12 120.12 780.12 120.12 720.12 150.12 750.12 180.12 720.12 150.12 690.12"/>
    <polygon class="cls-3" points="180.12 660.12 120.12 660.12 90.12 630.12 60.12 660.12 .12 660.12 30.12 690.12 .12 720.12 30.12 750.12 60.12 720.12 60.12 780.12 90.12 810.12 120.12 780.12 120.12 720.12 150.12 750.12 180.12 720.12 150.12 690.12 180.12 660.12"/>
    <polyline class="cls-4" points="180.12 900.12 150.12 870.12 120.12 900.12 120.12 840.12 90.12 810.12 60.12 840.12 60.12 900.12 30.12 870.12 .12 900.12 30.12 930.12 .12 960.12 60.12 960.12 90.12 990.12 120.12 960.12 180.12 960.12 150.12 930.12"/>
    <polygon class="cls-3" points="180.12 900.12 150.12 870.12 120.12 900.12 120.12 840.12 90.12 810.12 60.12 840.12 60.12 900.12 30.12 870.12 .12 900.12 30.12 930.12 .12 960.12 60.12 960.12 90.12 990.12 120.12 960.12 180.12 960.12 150.12 930.12 180.12 900.12"/>
    <polyline class="cls-4" points="720.12 900.12 750.12 930.12 720.12 960.12 780.12 960.12 810.12 990.12 840.12 960.12 900.12 960.12 870.12 930.12 900.12 900.12 870.12 870.12 840.12 900.12 840.12 840.12 810.12 810.12 780.12 840.12 780.12 900.12 750.12 870.12"/>
    <polygon class="cls-3" points="720.12 900.12 750.12 930.12 720.12 960.12 780.12 960.12 810.12 990.12 840.12 960.12 900.12 960.12 870.12 930.12 900.12 900.12 870.12 870.12 840.12 900.12 840.12 840.12 810.12 810.12 780.12 840.12 780.12 900.12 750.12 870.12 720.12 900.12"/>
    <polyline class="cls-4" points="720.12 720.12 750.12 750.12 780.12 720.12 780.12 780.12 810.12 810.12 840.12 780.12 840.12 720.12 870.12 750.12 900.12 720.12 870.12 690.12 900.12 660.12 840.12 660.12 810.12 630.12 780.12 660.12 720.12 660.12 750.12 690.12"/>
    <polygon class="cls-3" points="720.12 720.12 750.12 750.12 780.12 720.12 780.12 780.12 810.12 810.12 840.12 780.12 840.12 720.12 870.12 750.12 900.12 720.12 870.12 690.12 900.12 660.12 840.12 660.12 810.12 630.12 780.12 660.12 720.12 660.12 750.12 690.12 720.12 720.12"/>
    <polyline class="cls-4" points="720.12 600.12 780.12 600.12 810.12 630.12 840.12 600.12 900.12 600.12 870.12 570.12 900.12 540.12 870.12 510.12 840.12 540.12 840.12 480.12 810.12 450.12 780.12 480.12 780.12 540.12 750.12 510.12 720.12 540.12 750.12 570.12"/>
    <polygon class="cls-3" points="720.12 600.12 780.12 600.12 810.12 630.12 840.12 600.12 900.12 600.12 870.12 570.12 900.12 540.12 870.12 510.12 840.12 540.12 840.12 480.12 810.12 450.12 780.12 480.12 780.12 540.12 750.12 510.12 720.12 540.12 750.12 570.12 720.12 600.12"/>
    <polyline class="cls-4" points="720.12 360.12 750.12 390.12 780.12 360.12 780.12 420.12 810.12 450.12 840.12 420.12 840.12 360.12 870.12 390.12 900.12 360.12 870.12 330.12 900.12 300.12 840.12 300.12 810.12 270.12 780.12 300.12 720.12 300.12 750.12 330.12"/>
    <polygon class="cls-3" points="720.12 360.12 750.12 390.12 780.12 360.12 780.12 420.12 810.12 450.12 840.12 420.12 840.12 360.12 870.12 390.12 900.12 360.12 870.12 330.12 900.12 300.12 840.12 300.12 810.12 270.12 780.12 300.12 720.12 300.12 750.12 330.12 720.12 360.12"/>
    <polyline class="cls-4" points="720.12 240.12 780.12 240.12 810.12 270.12 840.12 240.12 900.12 240.12 870.12 210.12 900.12 180.12 870.12 150.12 840.12 180.12 840.12 120.12 810.12 90.12 780.12 120.12 780.12 180.12 750.12 150.12 720.12 180.12 750.12 210.12"/>
    <polygon class="cls-3" points="720.12 240.12 780.12 240.12 810.12 270.12 840.12 240.12 900.12 240.12 870.12 210.12 900.12 180.12 870.12 150.12 840.12 180.12 840.12 120.12 810.12 90.12 780.12 120.12 780.12 180.12 750.12 150.12 720.12 180.12 750.12 210.12 720.12 240.12"/>
    <polyline class="cls-5" points="720.12 180.12 750.12 150.12 780.12 180.12 780.12 120.12 810.12 90.12 780.12 60.12 780.12 .12 750.12 30.12 720.12 .12 690.12 30.12 720.12 60.12 660.12 60.12 630.12 90.12 660.12 120.12 720.12 120.12 690.12 150.12"/>
    <polygon class="cls-3" points="720.12 180.12 750.12 150.12 780.12 180.12 780.12 120.12 810.12 90.12 780.12 60.12 780.12 .12 750.12 30.12 720.12 .12 690.12 30.12 720.12 60.12 660.12 60.12 630.12 90.12 660.12 120.12 720.12 120.12 690.12 150.12 720.12 180.12"/>
  </g>
</svg>