<?xml version="1.0" encoding="UTF-8"?>
<svg id="Layer_3" data-name="Layer 3" xmlns="http://www.w3.org/2000/svg" viewBox="0 0 588.92 534.31">
  <defs>
    <style>
      .cls-1 {
        stroke: aqua;
      }

      .cls-1, .cls-2, .cls-3 {
        stroke-miterlimit: 10;
        stroke-width: .25px;
      }

      .cls-1, .cls-4 {
        fill: aqua;
      }

      .cls-2, .cls-3 {
        stroke: #be272d;
      }

      .cls-5, .cls-4 {
        stroke-width: 0px;
      }

      .cls-3 {
        fill: none;
      }
    </style>
  </defs>
  <g>
    <polygon class="cls-2" points="54.75 164.6 63.75 155.6 63.75 137.6 72.75 146.6 81.75 137.6 90.75 146.6 81.75 155.6 99.75 155.6 108.75 164.6 99.75 173.6 81.75 173.6 90.75 182.6 81.75 191.6 72.75 182.6 63.75 191.6 63.75 173.6 54.75 164.6"/>
    <g>
      <polygon class="cls-4" points="108.75 164.6 117.75 173.6 135.75 173.6 126.75 182.6 135.75 191.6 126.75 200.6 117.75 191.6 117.75 209.6 108.75 218.6 99.75 209.6 99.75 191.6 90.75 200.6 81.75 191.6 90.75 182.6 81.75 173.6 99.75 173.6 108.75 164.6"/>
      <polygon class="cls-1" points="54.75 218.6 63.75 209.6 81.75 209.6 72.75 200.6 81.75 191.6 72.75 182.6 63.75 191.6 63.75 173.6 54.75 164.6 45.75 173.6 45.75 191.6 36.75 182.6 27.75 191.6 36.75 200.6 27.75 209.6 45.75 209.6 54.75 218.6"/>
    </g>
    <polygon class="cls-5" points="162.75 164.6 153.75 155.6 153.75 137.6 144.75 146.6 135.75 137.6 126.75 146.6 135.75 155.6 117.75 155.6 108.75 164.6 117.75 173.6 135.75 173.6 126.75 182.6 135.75 191.6 144.75 182.6 153.75 191.6 153.75 173.6 162.75 164.6"/>
    <line class="cls-3" x1=".75" y1="137.6" x2="153.75" y2="137.6"/>
    <line class="cls-3" x1=".75" y1="146.6" x2="153.75" y2="146.6"/>
    <line class="cls-3" x1=".75" y1="155.6" x2="153.75" y2="155.6"/>
    <line class="cls-3" x1=".75" y1="164.6" x2="153.75" y2="164.6"/>
    <line class="cls-3" x1=".75" y1="173.6" x2="153.75" y2="173.6"/>
    <line class="cls-3" x1=".75" y1="182.6" x2="153.75" y2="182.6"/>
    <line class="cls-3" x1=".75" y1="191.6" x2="153.75" y2="191.6"/>
    <line class="cls-3" x1=".75" y1="200.6" x2="153.75" y2="200.6"/>
    <line class="cls-3" x1=".75" y1="209.6" x2="153.75" y2="209.6"/>
    <line class="cls-3" x1=".75" y1="218.6" x2=".75" y2="137.6"/>
    <line class="cls-3" x1="9.75" y1="137.6" x2="9.75" y2="218.6"/>
    <line class="cls-3" x1="18.75" y1="137.6" x2="18.75" y2="218.6"/>
    <line class="cls-3" x1="27.75" y1="137.6" x2="27.75" y2="218.6"/>
    <line class="cls-3" x1="36.75" y1="137.6" x2="36.75" y2="218.6"/>
    <line class="cls-3" x1="45.75" y1="218.6" x2="45.75" y2="137.6"/>
    <line class="cls-3" x1="54.75" y1="137.6" x2="54.75" y2="218.6"/>
    <line class="cls-3" x1="63.75" y1="218.6" x2="63.75" y2="137.6"/>
    <line class="cls-3" x1="72.75" y1="137.6" x2="72.75" y2="218.6"/>
    <line class="cls-3" x1="81.75" y1="218.6" x2="81.75" y2="137.6"/>
    <line class="cls-3" x1="90.75" y1="137.6" x2="90.75" y2="218.6"/>
    <line class="cls-3" x1="99.75" y1="218.6" x2="99.75" y2="137.6"/>
    <line class="cls-3" x1="108.75" y1="137.6" x2="108.75" y2="218.6"/>
    <line class="cls-3" x1="117.75" y1="218.6" x2="117.75" y2="137.6"/>
    <line class="cls-3" x1="126.75" y1="137.6" x2="126.75" y2="218.6"/>
    <line class="cls-3" x1="135.75" y1="218.6" x2="135.75" y2="137.6"/>
    <line class="cls-3" x1="144.75" y1="137.6" x2="144.75" y2="218.6"/>
    <line class="cls-3" x1="153.75" y1="218.6" x2="153.75" y2="137.6"/>
    <line class="cls-3" x1="162.75" y1="137.6" x2="162.75" y2="218.6"/>
    <line class="cls-3" x1="153.75" y1="137.6" x2="162.75" y2="137.6"/>
    <line class="cls-3" x1="153.75" y1="146.6" x2="162.75" y2="146.6"/>
    <line class="cls-3" x1="153.75" y1="155.6" x2="162.75" y2="155.6"/>
    <line class="cls-3" x1="144.75" y1="182.6" x2="162.75" y2="182.6"/>
    <line class="cls-3" x1="162.75" y1="173.6" x2="144.75" y2="173.6"/>
    <line class="cls-3" x1="162.75" y1="164.6" x2="144.75" y2="164.6"/>
    <line class="cls-3" x1="162.75" y1="191.6" x2="144.75" y2="191.6"/>
    <line class="cls-3" x1="162.75" y1="200.6" x2="153.75" y2="200.6"/>
    <line class="cls-3" x1="162.75" y1="209.6" x2="153.75" y2="209.6"/>
    <line class="cls-3" x1="162.75" y1="218.6" x2=".75" y2="218.6"/>
  </g>
  <g>
    <line class="cls-3" x1=".75" y1="227.6" x2="153.75" y2="227.6"/>
    <line class="cls-3" x1=".75" y1="236.6" x2="153.75" y2="236.6"/>
    <line class="cls-3" x1=".75" y1="245.6" x2="153.75" y2="245.6"/>
    <line class="cls-3" x1=".75" y1="254.6" x2="153.75" y2="254.6"/>
    <line class="cls-3" x1=".75" y1="263.6" x2="153.75" y2="263.6"/>
    <line class="cls-3" x1=".75" y1="272.6" x2="153.75" y2="272.6"/>
    <line class="cls-3" x1=".75" y1="281.6" x2="153.75" y2="281.6"/>
    <line class="cls-3" x1=".75" y1="290.6" x2="153.75" y2="290.6"/>
    <line class="cls-3" x1=".75" y1="308.6" x2=".75" y2="227.6"/>
    <line class="cls-3" x1="9.75" y1="227.6" x2="9.75" y2="308.6"/>
    <line class="cls-3" x1="18.75" y1="227.6" x2="18.75" y2="308.6"/>
    <line class="cls-3" x1="27.75" y1="227.6" x2="27.75" y2="308.6"/>
    <line class="cls-3" x1="36.75" y1="227.6" x2="36.75" y2="308.6"/>
    <line class="cls-3" x1="45.75" y1="308.6" x2="45.75" y2="227.6"/>
    <line class="cls-3" x1="54.75" y1="227.6" x2="54.75" y2="308.6"/>
    <line class="cls-3" x1="63.75" y1="308.6" x2="63.75" y2="227.6"/>
    <line class="cls-3" x1="72.75" y1="227.6" x2="72.75" y2="308.6"/>
    <line class="cls-3" x1="81.75" y1="308.6" x2="81.75" y2="227.6"/>
    <line class="cls-3" x1="90.75" y1="227.6" x2="90.75" y2="308.6"/>
    <line class="cls-3" x1="99.75" y1="308.6" x2="99.75" y2="227.6"/>
    <line class="cls-3" x1="108.75" y1="227.6" x2="108.75" y2="308.6"/>
    <line class="cls-3" x1="117.75" y1="308.6" x2="117.75" y2="227.6"/>
    <line class="cls-3" x1="126.75" y1="227.6" x2="126.75" y2="308.6"/>
    <line class="cls-3" x1="135.75" y1="308.6" x2="135.75" y2="227.6"/>
    <line class="cls-3" x1="144.75" y1="227.6" x2="144.75" y2="308.6"/>
    <line class="cls-3" x1="153.75" y1="308.6" x2="153.75" y2="227.6"/>
    <line class="cls-3" x1="162.75" y1="227.6" x2="162.75" y2="308.6"/>
    <line class="cls-3" x1="153.75" y1="227.6" x2="162.75" y2="227.6"/>
    <line class="cls-3" x1="153.75" y1="236.6" x2="162.75" y2="236.6"/>
    <line class="cls-3" x1="153.75" y1="245.6" x2="162.75" y2="245.6"/>
    <line class="cls-3" x1="144.75" y1="272.6" x2="162.75" y2="272.6"/>
    <line class="cls-3" x1="162.75" y1="263.6" x2="144.75" y2="263.6"/>
    <line class="cls-3" x1="162.75" y1="254.6" x2="144.75" y2="254.6"/>
    <line class="cls-3" x1="162.75" y1="281.6" x2="144.75" y2="281.6"/>
    <line class="cls-3" x1="162.75" y1="290.6" x2="153.75" y2="290.6"/>
    <line class="cls-3" x1=".75" y1="308.6" x2="162.75" y2="308.6"/>
    <line class="cls-3" x1="162.75" y1="299.6" x2=".75" y2="299.6"/>
  </g>
</svg>